
CASCADE Topology V1, (c) Matra-Datavision
Locations 10
1
1.000000000000000 0.000000000000000 0.000000000000000 0.000000000000000 
0.000000000000000 -1.000000000000000 0.000000000000000 0.000000000000000 
0.000000000000000 0.000000000000000 -1.000000000000000 0.000000000000000 
1
1.000000000000000 0.000000000000000 0.000000000000000 0.000000000000000 
0.000000000000000 1.000000000000000 0.000000000000000 0.000000000000000 
0.000000000000000 0.000000000000000 1.000000000000000 0.000000000000000 
2  1 1 2 -1 0
2  2 1 1 -1 0
2  1 -1 0
1
1.000000000000000 0.000000000000000 0.000000000000000 0.000000000000000 
0.000000000000000 1.000000000000000 0.000000000000000 0.000000000000000 
0.000000000000000 0.000000000000000 1.000000000000000 7.000000000000000 
2  1 1 2 -1 6 1 0
2  6 -1 2 1 1 -1 0
2  2 -1 0
2  2 -1 6 1 0
Curve2ds 6
1 0.00000000000000000 0.00000000000000000 0.00000000000000000 -1.00000000000000000 
1 6.28318530717958623 0.00000000000000000 0.00000000000000000 -1.00000000000000000 
1 0.00000000000000000 0.00000000000000000 1.00000000000000000 0.00000000000000000 
2 0.00000000000000000 0.00000000000002842 -1.00000000000000000 0.00000000000000000 -0.00000000000000000 -1.00000000000000000 2.25000000000000000
1 0.00000000000000000 -7.00000000000000000 1.00000000000000000 0.00000000000000000 
2 0.00000000000000000 0.00000000000002842 -1.00000000000000000 0.00000000000000000 -0.00000000000000000 -1.00000000000000000 2.25000000000000000
Curves 3
1 107.25000000000000000 188.00000000000000000 0.00000000000000000 0.00000000000000000 0.00000000000000000 1.00000000000000000 
2 105.00000000000000000 -188.00000000000000000 0.00000000000000000 0.00000000000000000 0.00000000000000000 1.00000000000000000 1.00000000000000000 0.00000000000000000 -0.00000000000000000 -0.00000000000000000 1.00000000000000000 0.00000000000000000 2.25000000000000000
2 105.00000000000000000 -188.00000000000000000 0.00000000000000000 0.00000000000000000 0.00000000000000000 1.00000000000000000 1.00000000000000000 0.00000000000000000 -0.00000000000000000 -0.00000000000000000 1.00000000000000000 0.00000000000000000 2.25000000000000000
Polygon3D 0
PolygonOnTriangulations 0
Surfaces 3
2 105.00000000000000000 188.00000000000000000 0.00000000000000000 0.00000000000000000 0.00000000000000000 -1.00000000000000000 1.00000000000000000 0.00000000000000000 0.00000000000000000 0.00000000000000000 -1.00000000000000000 0.00000000000000000 2.25000000000000000
1 105.00000000000000000 187.99999999999997158 0.00000000000000000 -0.00000000000000000 -0.00000000000000000 -1.00000000000000000 -1.00000000000000000 0.00000000000000000 0.00000000000000000 0.00000000000000000 1.00000000000000000 -0.00000000000000000 
1 105.00000000000000000 187.99999999999997158 0.00000000000000000 -0.00000000000000000 -0.00000000000000000 -1.00000000000000000 -1.00000000000000000 0.00000000000000000 0.00000000000000000 0.00000000000000000 1.00000000000000000 -0.00000000000000000 
Triangulations 0

TShapes 13
Ve
0.000000100000000
107.250000000000000 188.000000000000000 0.000000000000000
0 0

0101101
*
Ve
0.000000100000000
107.250000000000000 188.000000000000000 7.000000000000000
0 0

0101101
*
Ed
 0.000000100000000 1 1 0
1  1 0 0.000000000000000 7.000000000000000
3  1 2CN 1 0 0.000000000000000 7.000000000000000
0

0101000
+13 0 -12 0 *
Ed
 0.000000100000000 1 1 0
1  2 0 0.000000000000000 6.283185307179586
2  3 1 4 0.000000000000000 6.283185307179586
2  4 2 5 0.000000000000000 6.283185307179586
0

0101000
+13 4 -13 4 *
Ed
 0.000000100000000 1 1 0
1  3 0 0.000000000000000 6.283185307179586
2  5 1 8 0.000000000000000 6.283185307179586
2  6 3 5 0.000000000000000 6.283185307179586
0

0101000
+12 8 -12 8 *
Wi

0101100
+11 0 -11 0 -10 3 +9 7 *
Fa
0  0.000000100000000 1 0

0111000
+8 0 *
Wi

0101100
+10 0 *
Fa
0  0.000000100000000 2 0

0111000
+6 1 *
Wi

0101100
+9 0 *
Fa
0  0.000000100000000 3 0

0111000
+4 1 *
Sh

0101100
+7 0 +5 9 -3 10 *
So

1100000
+2 0 *

+1 0 