
CASCADE Topology V1, (c) Matra-Datavision
Locations 10
1
0.000000000000000 0.000000000000000 -1.000000000000000 0.000000000000000 
-1.000000000000000 0.000000000000000 0.000000000000000 0.000000000000000 
0.000000000000000 1.000000000000000 0.000000000000000 0.000000000000000 
1
1.000000000000000 0.000000000000000 0.000000000000000 0.000000000000000 
0.000000000000000 1.000000000000000 0.000000000000000 0.000000000000000 
0.000000000000000 0.000000000000000 1.000000000000000 0.000000000000000 
2  1 1 2 -1 0
2  2 1 1 -1 0
2  1 -1 0
1
1.000000000000000 0.000000000000000 0.000000000000000 5.000000000000000 
0.000000000000000 1.000000000000000 0.000000000000000 0.000000000000000 
0.000000000000000 0.000000000000000 1.000000000000000 0.000000000000000 
2  1 1 2 -1 6 1 0
2  6 -1 2 1 1 -1 0
2  2 -1 0
2  2 -1 6 1 0
Curve2ds 36
1 0.00000000000000000 0.00000000000000000 0.00000000000000000 -1.00000000000000000 
1 4.71238897176493410 0.00000000000000000 0.00000000000000000 -1.00000000000000000 
1 35.00000000000000000 0.00000000000000000 0.00000000000000000 -1.00000000000000000 
1 0.00000000000000000 0.00000000000000000 0.00000000000000000 -1.00000000000000000 
1 0.00000000000000000 0.00000000000000000 1.00000000000000000 0.00000000000000000 
1 -3.69421189355969481 -22.67471202017038934 0.00000000000000000 -1.00000000000000000 
1 0.00000000000000000 -5.00000000000000000 1.00000000000000000 0.00000000000000000 
1 -3.69421189355969481 -22.67471202017038934 0.00000000000000000 -1.00000000000000000 
1 5.50000000000000000 0.00000000000000000 0.00000000000000000 -1.00000000000000000 
1 0.00000000000000000 -0.00000000000000000 0.00000000000000000 -1.00000000000000000 
1 0.00000000000000000 0.00000000000000000 1.00000000000000000 0.00000000000000000 
1 -3.69421189355969481 -57.67471202017038934 1.00000000000000000 0.00000000000000000 
1 0.00000000000000000 -5.00000000000000000 1.00000000000000000 0.00000000000000000 
1 -3.69421189355969481 -57.67471202017038934 1.00000000000000000 0.00000000000000000 
1 35.00000000000000000 0.00000000000000000 0.00000000000000000 -1.00000000000000000 
1 0.00000000000000000 -0.00000000000000000 0.00000000000000000 -1.00000000000000000 
1 0.00000000000000000 -0.00000000000000000 1.00000000000000000 0.00000000000000000 
1 1.80578810644030519 -57.67471202017038934 0.00000000000000000 1.00000000000000000 
1 0.00000000000000000 -5.00000000000000000 1.00000000000000000 0.00000000000000000 
1 1.80578810644030519 -57.67471202017038934 0.00000000000000000 1.00000000000000000 
1 83.00000000000000000 0.00000000000000000 0.00000000000000000 -1.00000000000000000 
1 1.57079631692014154 0.00000000000000000 0.00000000000000000 -1.00000000000000000 
1 0.00000000000000000 -0.00000000000000000 1.00000000000000000 0.00000000000000000 
1 1.80578810644030519 -22.67471202017038934 0.00000000000000000 1.00000000000000000 
1 0.00000000000000000 -5.00000000000000000 1.00000000000000000 0.00000000000000000 
1 1.80578810644030519 -22.67471202017038934 0.00000000000000000 1.00000000000000000 
1 1.70313283133151039 0.00000000000000000 0.00000000000000000 -1.00000000000000000 
1 4.84472578927521802 0.00000000000000000 0.00000000000000000 -1.00000000000000000 
1 0.00000000000000000 0.00000000000000000 1.00000000000000000 0.00000000000000000 
2 -312.70553164002598123 60.32528487410735352 0.00000000000000000 1.00000000000000000 1.00000000000000000 -0.00000000000000000 314.51131974646631306
1 0.00000000000000000 -5.00000000000000000 1.00000000000000000 0.00000000000000000 
2 -312.70553164002598123 60.32528487410735352 0.00000000000000000 1.00000000000000000 1.00000000000000000 -0.00000000000000000 314.51131974646631306
1 0.00000000000000000 0.00000000000000000 1.00000000000000000 0.00000000000000000 
2 310.81710785290664489 -22.67470930915963834 0.00000000000000000 1.00000000000000000 1.00000000000000000 -0.00000000000000000 314.51131974646631306
1 0.00000000000000000 -5.00000000000000000 1.00000000000000000 0.00000000000000000 
2 310.81710785290664489 -22.67470930915963834 0.00000000000000000 1.00000000000000000 1.00000000000000000 -0.00000000000000000 314.51131974646631306
Curves 18
1 0.00000000000000000 148.00000000000000000 4.00000000000000000 1.00000000000000000 0.00000000000000000 0.00000000000000000 
1 0.00000000000000000 183.00000000000000000 4.00000000000000000 1.00000000000000000 0.00000000000000000 0.00000000000000000 
1 -148.00000000000000000 4.00000000000000000 0.00000000000000000 -1.00000000000000000 0.00000000000000000 0.00000000000000000 
1 -148.00000000000000000 4.00000000000000000 0.00000000000000000 -1.00000000000000000 0.00000000000000000 0.00000000000000000 
1 0.00000000000000000 183.00000000000000000 9.50000000000000000 1.00000000000000000 0.00000000000000000 0.00000000000000000 
1 -183.00000000000000000 4.00000000000000000 0.00000000000000000 0.00000000000000000 1.00000000000000000 0.00000000000000000 
1 -183.00000000000000000 4.00000000000000000 0.00000000000000000 0.00000000000000000 1.00000000000000000 0.00000000000000000 
1 0.00000000000000000 148.00000000000000000 9.50000000000000000 1.00000000000000000 0.00000000000000000 0.00000000000000000 
1 -183.00000000000000000 9.50000000000000000 0.00000000000000000 1.00000000000000000 0.00000000000000000 0.00000000000000000 
1 -183.00000000000000000 9.50000000000000000 0.00000000000000000 1.00000000000000000 0.00000000000000000 0.00000000000000000 
1 0.00000000000000000 65.00000000000000000 9.50000000000000000 1.00000000000000000 0.00000000000000000 0.00000000000000000 
1 -148.00000000000000000 9.50000000000000000 0.00000000000000000 1.00000000000000000 0.00000000000000000 0.00000000000000000 
1 -148.00000000000000000 9.50000000000000000 0.00000000000000000 1.00000000000000000 0.00000000000000000 0.00000000000000000 
1 0.00000000000000000 106.49995275446673304 6.75000631534328477 1.00000000000000000 0.00000000000000000 0.00000000000000000 
2 -65.00000310572225715 -305.01131974646631306 0.00000000000000000 0.00000000000000000 0.00000000000000000 1.00000000000000000 1.00000000000000000 0.00000000000000000 -0.00000000000000000 -0.00000000000000000 1.00000000000000000 0.00000000000000000 314.51131974646631306
2 -65.00000310572225715 -305.01131974646631306 0.00000000000000000 0.00000000000000000 0.00000000000000000 1.00000000000000000 1.00000000000000000 0.00000000000000000 -0.00000000000000000 -0.00000000000000000 1.00000000000000000 0.00000000000000000 314.51131974646631306
2 -147.99999728898924900 318.51131974646631306 0.00000000000000000 0.00000000000000000 0.00000000000000000 1.00000000000000000 1.00000000000000000 0.00000000000000000 -0.00000000000000000 -0.00000000000000000 1.00000000000000000 0.00000000000000000 314.51131974646631306
2 -147.99999728898924900 318.51131974646631306 0.00000000000000000 0.00000000000000000 0.00000000000000000 1.00000000000000000 1.00000000000000000 0.00000000000000000 -0.00000000000000000 -0.00000000000000000 1.00000000000000000 0.00000000000000000 314.51131974646631306
Polygon3D 0
PolygonOnTriangulations 0
Surfaces 8
1 0.00000000000000000 148.00000000000000000 4.00000000000000000 0.00000000000000000 0.00000000000000000 1.00000000000000000 0.00000000000000000 1.00000000000000000 0.00000000000000000 -1.00000000000000000 0.00000000000000000 0.00000000000000000 
2 0.00000000000000000 147.99999728898924900 318.51131974646631306 -1.00000000000000000 0.00000000000000000 0.00000000000000000 0.00000000000000000 -1.00000000000000000 0.00000000000000000 0.00000000000000000 0.00000000000000000 1.00000000000000000 314.51131974646631306
1 0.00000000000000000 183.00000000000000000 4.00000000000000000 0.00000000000000000 -1.00000000000000000 0.00000000000000000 0.00000000000000000 0.00000000000000000 1.00000000000000000 -1.00000000000000000 0.00000000000000000 0.00000000000000000 
1 0.00000000000000000 125.32528797982961066 7.69421189355969481 1.00000000000000000 0.00000000000000000 0.00000000000000000 -0.00000000000000000 0.00000000000000000 1.00000000000000000 0.00000000000000000 -1.00000000000000000 0.00000000000000000 
1 0.00000000000000000 125.32528797982961066 7.69421189355969481 1.00000000000000000 0.00000000000000000 0.00000000000000000 -0.00000000000000000 0.00000000000000000 1.00000000000000000 0.00000000000000000 -1.00000000000000000 0.00000000000000000 
1 0.00000000000000000 183.00000000000000000 9.50000000000000000 0.00000000000000000 0.00000000000000000 -1.00000000000000000 0.00000000000000000 -1.00000000000000000 0.00000000000000000 -1.00000000000000000 -0.00000000000000000 -0.00000000000000000 
1 0.00000000000000000 148.00000000000000000 9.50000000000000000 0.00000000000000000 0.00000000000000000 -1.00000000000000000 0.00000000000000000 -1.00000000000000000 0.00000000000000000 -1.00000000000000000 -0.00000000000000000 -0.00000000000000000 
2 0.00000000000000000 65.00000310572225715 -305.01131974646631306 -1.00000000000000000 0.00000000000000000 0.00000000000000000 0.00000000000000000 -1.00000000000000000 0.00000000000000000 0.00000000000000000 0.00000000000000000 1.00000000000000000 314.51131974646631306
Triangulations 0

TShapes 48
Ve
0.000000100000000
0.000000000000000 148.000000000000000 4.000000000000000
0 0

0101101
*
Ve
0.000000100000000
5.000000000000000 148.000000000000000 4.000000000000000
0 0

0101101
*
Ed
 0.000000100000000 1 1 0
1  1 0 0.000000000000000 5.000000000000000
2  1 1 0 0.000000000000000 5.000000000000000
2  2 2 0 0.000000000000000 5.000000000000000
4 G1 1 0 2 0
0

0101000
+48 0 -47 0 *
Ve
0.000000100000000
0.000000000000000 183.000000000000000 4.000000000000000
0 0

0101101
*
Ve
0.000000100000000
5.000000000000000 183.000000000000000 4.000000000000000
0 0

0101101
*
Ed
 0.000000100000000 1 1 0
1  2 0 0.000000000000000 5.000000000000000
2  3 1 0 0.000000000000000 5.000000000000000
2  4 3 0 0.000000000000000 5.000000000000000
0

0101000
+45 0 -44 0 *
Ed
 0.000000100000000 1 1 0
1  3 0 0.000000000000000 35.000000000000000
2  5 1 4 0.000000000000000 35.000000000000000
2  6 4 5 0.000000000000000 35.000000000000000
0

0101000
+48 4 -45 4 *
Ed
 0.000000100000000 1 1 0
1  4 0 0.000000000000000 35.000000000000000
2  7 1 8 0.000000000000000 35.000000000000000
2  8 5 5 0.000000000000000 35.000000000000000
0

0101000
+47 8 -44 8 *
Wi

0101100
+46 0 -43 0 -42 3 +41 7 *
Fa
0  0.000000100000000 1 0

0111000
+40 0 *
Ve
0.000000100000000
0.000000000000000 183.000000000000000 9.500000000000000
0 0

0101101
*
Ve
0.000000100000000
5.000000000000000 183.000000000000000 9.500000000000000
0 0

0101101
*
Ed
 0.000000100000000 1 1 0
1  5 0 0.000000000000000 5.000000000000000
2  9 3 0 0.000000000000000 5.000000000000000
2  10 6 0 0.000000000000000 5.000000000000000
0

0101000
+38 0 -37 0 *
Ed
 0.000000100000000 1 1 0
1  6 0 0.000000000000000 5.500000000000000
2  11 3 4 0.000000000000000 5.500000000000000
2  12 4 5 0.000000000000000 5.500000000000000
0

0101000
+45 4 -38 4 *
Ed
 0.000000100000000 1 1 0
1  7 0 0.000000000000000 5.500000000000000
2  13 3 8 0.000000000000000 5.500000000000000
2  14 5 5 0.000000000000000 5.500000000000000
0

0101000
+44 8 -37 8 *
Wi

0101100
+43 0 -36 0 -35 3 +34 7 *
Fa
0  0.000000100000000 3 0

0111000
+33 0 *
Ve
0.000000100000000
0.000000000000000 148.000000000000000 9.500000000000000
0 0

0101101
*
Ve
0.000000100000000
5.000000000000000 148.000000000000000 9.500000000000000
0 0

0101101
*
Ed
 0.000000100000000 1 1 0
1  8 0 0.000000000000000 5.000000000000000
2  15 6 0 0.000000000000000 5.000000000000000
2  16 7 0 0.000000000000000 5.000000000000000
4 C2 6 0 7 0
0

0101000
+31 0 -30 0 *
Ed
 0.000000100000000 1 1 0
1  9 0 0.000000000000000 35.000000000000000
2  17 6 4 0.000000000000000 35.000000000000000
2  18 4 5 0.000000000000000 35.000000000000000
0

0101000
+38 4 -31 4 *
Ed
 0.000000100000000 1 1 0
1  10 0 0.000000000000000 35.000000000000000
2  19 6 8 0.000000000000000 35.000000000000000
2  20 5 5 0.000000000000000 35.000000000000000
0

0101000
+37 8 -30 8 *
Wi

0101100
+36 0 -29 0 -28 3 +27 7 *
Fa
0  0.000000100000000 6 0

0111000
+26 0 *
Ve
0.000003105723257
0.000000000000000 65.000000000000000 9.500000000000000
0 0

0101101
*
Ve
0.000003105723257
5.000000000000000 65.000000000000000 9.500000000000000
0 0

0101101
*
Ed
 0.000000100000000 1 1 0
1  11 0 0.000000000000000 5.000000000000000
2  21 7 0 0.000000000000000 5.000000000000000
2  22 8 0 0.000000000000000 5.000000000000000
0

0101000
+24 0 -23 0 *
Ed
 0.000000100000000 1 1 0
1  12 0 0.000000000000000 83.000000000000000
2  23 7 4 0.000000000000000 83.000000000000000
2  24 4 5 0.000000000000000 83.000000000000000
0

0101000
+31 4 -24 4 *
Ed
 0.000000100000000 1 1 0
1  13 0 0.000000000000000 83.000000000000000
2  25 7 8 0.000000000000000 83.000000000000000
2  26 5 5 0.000000000000000 83.000000000000000
0

0101000
+30 8 -23 8 *
Wi

0101100
+29 0 -22 0 -21 3 +20 7 *
Fa
0  0.000000100000000 7 0

0111000
+19 0 *
Ve
0.000000100003667
0.000000000000000 106.499952754466733 6.750006315343285
0 0

0101101
*
Ve
0.000000100003667
5.000000000000000 106.499952754466733 6.750006315343285
0 0

0101101
*
Ed
 0.000000100003667 1 1 0
1  14 0 0.000000000000000 5.000000000000000
2  27 8 0 0.000000000000000 5.000000000000000
2  28 2 0 0.000000000000000 5.000000000000000
4 C1 8 0 2 0
0

0101000
+17 0 -16 0 *
Ed
 0.000000100000000 1 1 0
1  15 0 1.570796316920142 1.703132831331510
2  29 8 4 1.570796316920142 1.703132831331510
2  30 4 5 1.570796316920142 1.703132831331510
0

0101000
+24 4 -17 4 *
Ed
 0.000000100000000 1 1 0
1  16 0 1.570796316920142 1.703132831331510
2  31 8 8 1.570796316920142 1.703132831331510
2  32 5 5 1.570796316920142 1.703132831331510
0

0101000
+23 8 -16 8 *
Wi

0101100
+22 0 -15 0 -14 3 +13 7 *
Fa
0  0.000000100000000 8 0

0111000
+12 0 *
Ed
 0.000000100000000 1 1 0
1  17 0 4.712388971764934 4.844725789275218
2  33 2 4 4.712388971764934 4.844725789275218
2  34 4 5 4.712388971764934 4.844725789275218
0

0101000
+48 4 -17 4 *
Ed
 0.000000100000000 1 1 0
1  18 0 4.712388971764934 4.844725789275218
2  35 2 8 4.712388971764934 4.844725789275218
2  36 5 5 4.712388971764934 4.844725789275218
0

0101000
+47 8 -16 8 *
Wi

0101100
+46 0 -15 0 -10 3 +9 7 *
Fa
0  0.000000100000000 2 0

0111000
+8 0 *
Wi

0101100
+42 0 +35 0 +28 0 +21 0 +14 0 -10 0 *
Fa
0  0.000000100000000 4 0

0111000
+6 1 *
Wi

0101100
+41 0 +34 0 +27 0 +20 0 +13 0 -9 0 *
Fa
0  0.000000100000000 5 0

0111000
+4 1 *
Sh

0101100
+39 0 +32 0 +25 0 +18 0 +11 0 -7 0 +5 9 -3 10 *
So

1100000
-2 0 *

+1 0 