
CASCADE Topology V1, (c) Matra-Datavision
Locations 10
1
1.000000000000000 0.000000000000000 0.000000000000000 0.000000000000000 
0.000000000000000 1.000000000000000 0.000000000000000 0.000000000000000 
0.000000000000000 0.000000000000000 1.000000000000000 0.000000000000000 
1
1.000000000000000 0.000000000000000 0.000000000000000 0.000000000000000 
0.000000000000000 1.000000000000000 0.000000000000000 0.000000000000000 
0.000000000000000 0.000000000000000 1.000000000000000 0.000000000000000 
2  1 1 2 -1 0
2  2 1 1 -1 0
2  1 -1 0
1
1.000000000000000 0.000000000000000 0.000000000000000 0.000000000000000 
0.000000000000000 1.000000000000000 0.000000000000000 0.000000000000000 
0.000000000000000 0.000000000000000 1.000000000000000 2.000000000000000 
2  1 1 2 -1 6 1 0
2  6 -1 2 1 1 -1 0
2  2 -1 0
2  2 -1 6 1 0
Curve2ds 78
1 0.00000000000000000 0.00000000000000000 0.00000000000000000 -1.00000000000000000 
1 183.00000000000000000 0.00000000000000000 0.00000000000000000 -1.00000000000000000 
1 290.00000000000000000 0.00000000000000000 0.00000000000000000 -1.00000000000000000 
1 0.00000000000000000 0.00000000000000000 0.00000000000000000 -1.00000000000000000 
1 0.00000000000000000 0.00000000000000000 1.00000000000000000 0.00000000000000000 
1 -145.00000000000000000 -91.50000000000000000 1.00000000000000000 0.00000000000000000 
1 0.00000000000000000 -2.00000000000000000 1.00000000000000000 0.00000000000000000 
1 -145.00000000000000000 -91.50000000000000000 1.00000000000000000 0.00000000000000000 
1 183.00000000000000000 0.00000000000000000 0.00000000000000000 -1.00000000000000000 
1 0.00000000000000000 -0.00000000000000000 0.00000000000000000 -1.00000000000000000 
1 0.00000000000000000 0.00000000000000000 1.00000000000000000 0.00000000000000000 
1 145.00000000000000000 -91.50000000000000000 0.00000000000000000 1.00000000000000000 
1 0.00000000000000000 -2.00000000000000000 1.00000000000000000 0.00000000000000000 
1 145.00000000000000000 -91.50000000000000000 0.00000000000000000 1.00000000000000000 
1 290.00000000000000000 0.00000000000000000 0.00000000000000000 -1.00000000000000000 
1 0.00000000000000000 0.00000000000000000 0.00000000000000000 -1.00000000000000000 
1 0.00000000000000000 -0.00000000000000000 1.00000000000000000 0.00000000000000000 
1 145.00000000000000000 91.50000000000000000 -1.00000000000000000 0.00000000000000000 
1 0.00000000000000000 -2.00000000000000000 1.00000000000000000 0.00000000000000000 
1 145.00000000000000000 91.50000000000000000 -1.00000000000000000 0.00000000000000000 
1 0.00000000000000000 0.00000000000000000 1.00000000000000000 0.00000000000000000 
1 -145.00000000000000000 91.50000000000000000 0.00000000000000000 -1.00000000000000000 
1 0.00000000000000000 -2.00000000000000000 1.00000000000000000 0.00000000000000000 
1 -145.00000000000000000 91.50000000000000000 0.00000000000000000 -1.00000000000000000 
1 0.00000000000000000 0.00000000000000000 0.00000000000000000 -1.00000000000000000 
1 6.28318530717958623 0.00000000000000000 0.00000000000000000 -1.00000000000000000 
1 0.00000000000000000 0.00000000000000000 1.00000000000000000 0.00000000000000000 
2 40.50000000000000000 -78.50000000000000000 1.00000000000000000 0.00000000000000000 -0.00000000000000000 1.00000000000000000 2.25000000000000000
1 0.00000000000000000 -2.00000000000000000 1.00000000000000000 0.00000000000000000 
2 40.50000000000000000 -78.50000000000000000 1.00000000000000000 0.00000000000000000 -0.00000000000000000 1.00000000000000000 2.25000000000000000
1 0.00000000000000000 0.00000000000000000 0.00000000000000000 -1.00000000000000000 
1 6.28318530717958623 0.00000000000000000 0.00000000000000000 -1.00000000000000000 
1 0.00000000000000000 0.00000000000000000 1.00000000000000000 0.00000000000000000 
2 -128.50000000000000000 83.50000000000000000 1.00000000000000000 0.00000000000000000 -0.00000000000000000 1.00000000000000000 2.25000000000000000
1 0.00000000000000000 -2.00000000000000000 1.00000000000000000 0.00000000000000000 
2 -128.50000000000000000 83.50000000000000000 1.00000000000000000 0.00000000000000000 -0.00000000000000000 1.00000000000000000 2.25000000000000000
1 0.00000000000000000 0.00000000000000000 0.00000000000000000 -1.00000000000000000 
1 6.28318530717958623 0.00000000000000000 0.00000000000000000 -1.00000000000000000 
1 0.00000000000000000 0.00000000000000000 1.00000000000000000 0.00000000000000000 
2 0.00000000000000000 12.93166847433114697 1.00000000000000000 0.00000000000000000 -0.00000000000000000 1.00000000000000000 2.25000000000000000
1 0.00000000000000000 -2.00000000000000000 1.00000000000000000 0.00000000000000000 
2 0.00000000000000000 12.93166847433114697 1.00000000000000000 0.00000000000000000 -0.00000000000000000 1.00000000000000000 2.25000000000000000
1 0.00000000000000000 0.00000000000000000 0.00000000000000000 -1.00000000000000000 
1 6.28318530717958623 0.00000000000000000 0.00000000000000000 -1.00000000000000000 
1 0.00000000000000000 0.00000000000000000 1.00000000000000000 0.00000000000000000 
2 -131.50000000000000000 -78.50000000000000000 1.00000000000000000 0.00000000000000000 -0.00000000000000000 1.00000000000000000 2.25000000000000000
1 0.00000000000000000 -2.00000000000000000 1.00000000000000000 0.00000000000000000 
2 -131.50000000000000000 -78.50000000000000000 1.00000000000000000 0.00000000000000000 -0.00000000000000000 1.00000000000000000 2.25000000000000000
1 0.00000000000000000 0.00000000000000000 0.00000000000000000 -1.00000000000000000 
1 6.28318530717958623 0.00000000000000000 0.00000000000000000 -1.00000000000000000 
1 0.00000000000000000 0.00000000000000000 1.00000000000000000 0.00000000000000000 
2 -40.50000000000000000 -78.50000000000000000 1.00000000000000000 0.00000000000000000 -0.00000000000000000 1.00000000000000000 2.25000000000000000
1 0.00000000000000000 -2.00000000000000000 1.00000000000000000 0.00000000000000000 
2 -40.50000000000000000 -78.50000000000000000 1.00000000000000000 0.00000000000000000 -0.00000000000000000 1.00000000000000000 2.25000000000000000
1 0.00000000000000000 0.00000000000000000 0.00000000000000000 -1.00000000000000000 
1 6.28318530717958623 0.00000000000000000 0.00000000000000000 -1.00000000000000000 
1 0.00000000000000000 0.00000000000000000 1.00000000000000000 0.00000000000000000 
2 -131.50000000000000000 10.50000000000000000 1.00000000000000000 0.00000000000000000 -0.00000000000000000 1.00000000000000000 2.25000000000000000
1 0.00000000000000000 -2.00000000000000000 1.00000000000000000 0.00000000000000000 
2 -131.50000000000000000 10.50000000000000000 1.00000000000000000 0.00000000000000000 -0.00000000000000000 1.00000000000000000 2.25000000000000000
1 0.00000000000000000 0.00000000000000000 0.00000000000000000 -1.00000000000000000 
1 6.28318530717958623 0.00000000000000000 0.00000000000000000 -1.00000000000000000 
1 0.00000000000000000 0.00000000000000000 1.00000000000000000 0.00000000000000000 
2 128.50000000000000000 83.50000000000000000 1.00000000000000000 0.00000000000000000 -0.00000000000000000 1.00000000000000000 2.25000000000000000
1 0.00000000000000000 -2.00000000000000000 1.00000000000000000 0.00000000000000000 
2 128.50000000000000000 83.50000000000000000 1.00000000000000000 0.00000000000000000 -0.00000000000000000 1.00000000000000000 2.25000000000000000
1 0.00000000000000000 0.00000000000000000 0.00000000000000000 -1.00000000000000000 
1 6.28318530717958623 0.00000000000000000 0.00000000000000000 -1.00000000000000000 
1 0.00000000000000000 0.00000000000000000 1.00000000000000000 0.00000000000000000 
2 131.50000000000000000 -78.50000000000000000 1.00000000000000000 0.00000000000000000 -0.00000000000000000 1.00000000000000000 2.25000000000000000
1 0.00000000000000000 -2.00000000000000000 1.00000000000000000 0.00000000000000000 
2 131.50000000000000000 -78.50000000000000000 1.00000000000000000 0.00000000000000000 -0.00000000000000000 1.00000000000000000 2.25000000000000000
1 0.00000000000000000 0.00000000000000000 0.00000000000000000 -1.00000000000000000 
1 6.28318530717958623 0.00000000000000000 0.00000000000000000 -1.00000000000000000 
1 0.00000000000000000 0.00000000000000000 1.00000000000000000 0.00000000000000000 
2 131.50000000000000000 10.50000000000000000 1.00000000000000000 0.00000000000000000 -0.00000000000000000 1.00000000000000000 2.25000000000000000
1 0.00000000000000000 -2.00000000000000000 1.00000000000000000 0.00000000000000000 
2 131.50000000000000000 10.50000000000000000 1.00000000000000000 0.00000000000000000 -0.00000000000000000 1.00000000000000000 2.25000000000000000
Curves 39
1 0.00000000000000000 0.00000000000000000 0.00000000000000000 0.00000000000000000 0.00000000000000000 1.00000000000000000 
1 290.00000000000000000 0.00000000000000000 0.00000000000000000 0.00000000000000000 0.00000000000000000 1.00000000000000000 
1 0.00000000000000000 0.00000000000000000 0.00000000000000000 1.00000000000000000 0.00000000000000000 0.00000000000000000 
1 0.00000000000000000 0.00000000000000000 0.00000000000000000 1.00000000000000000 0.00000000000000000 0.00000000000000000 
1 290.00000000000000000 183.00000000000000000 0.00000000000000000 0.00000000000000000 0.00000000000000000 1.00000000000000000 
1 290.00000000000000000 0.00000000000000000 0.00000000000000000 0.00000000000000000 1.00000000000000000 0.00000000000000000 
1 290.00000000000000000 0.00000000000000000 0.00000000000000000 0.00000000000000000 1.00000000000000000 0.00000000000000000 
1 0.00000000000000000 183.00000000000000000 0.00000000000000000 0.00000000000000000 0.00000000000000000 1.00000000000000000 
1 290.00000000000000000 183.00000000000000000 0.00000000000000000 -1.00000000000000000 0.00000000000000000 0.00000000000000000 
1 290.00000000000000000 183.00000000000000000 0.00000000000000000 -1.00000000000000000 0.00000000000000000 0.00000000000000000 
1 0.00000000000000000 183.00000000000000000 0.00000000000000000 0.00000000000000000 -1.00000000000000000 0.00000000000000000 
1 0.00000000000000000 183.00000000000000000 0.00000000000000000 0.00000000000000000 -1.00000000000000000 0.00000000000000000 
1 187.75000000000000000 13.00000000000000000 0.00000000000000000 0.00000000000000000 0.00000000000000000 1.00000000000000000 
2 185.50000000000000000 13.00000000000000000 0.00000000000000000 0.00000000000000000 0.00000000000000000 1.00000000000000000 1.00000000000000000 0.00000000000000000 -0.00000000000000000 -0.00000000000000000 1.00000000000000000 0.00000000000000000 2.25000000000000000
2 185.50000000000000000 13.00000000000000000 0.00000000000000000 0.00000000000000000 0.00000000000000000 1.00000000000000000 1.00000000000000000 0.00000000000000000 -0.00000000000000000 -0.00000000000000000 1.00000000000000000 0.00000000000000000 2.25000000000000000
1 18.75000000000000000 175.00000000000000000 0.00000000000000000 0.00000000000000000 0.00000000000000000 1.00000000000000000 
2 16.50000000000000000 175.00000000000000000 0.00000000000000000 0.00000000000000000 0.00000000000000000 1.00000000000000000 1.00000000000000000 0.00000000000000000 -0.00000000000000000 -0.00000000000000000 1.00000000000000000 0.00000000000000000 2.25000000000000000
2 16.50000000000000000 175.00000000000000000 0.00000000000000000 0.00000000000000000 0.00000000000000000 1.00000000000000000 1.00000000000000000 0.00000000000000000 -0.00000000000000000 -0.00000000000000000 1.00000000000000000 0.00000000000000000 2.25000000000000000
1 147.25000000000000000 104.43166847433114697 0.00000000000000000 0.00000000000000000 0.00000000000000000 1.00000000000000000 
2 145.00000000000000000 104.43166847433114697 0.00000000000000000 0.00000000000000000 0.00000000000000000 1.00000000000000000 1.00000000000000000 0.00000000000000000 -0.00000000000000000 -0.00000000000000000 1.00000000000000000 0.00000000000000000 2.25000000000000000
2 145.00000000000000000 104.43166847433114697 0.00000000000000000 0.00000000000000000 0.00000000000000000 1.00000000000000000 1.00000000000000000 0.00000000000000000 -0.00000000000000000 -0.00000000000000000 1.00000000000000000 0.00000000000000000 2.25000000000000000
1 15.75000000000000000 13.00000000000000000 0.00000000000000000 0.00000000000000000 0.00000000000000000 1.00000000000000000 
2 13.50000000000000000 13.00000000000000000 0.00000000000000000 0.00000000000000000 0.00000000000000000 1.00000000000000000 1.00000000000000000 0.00000000000000000 -0.00000000000000000 -0.00000000000000000 1.00000000000000000 0.00000000000000000 2.25000000000000000
2 13.50000000000000000 13.00000000000000000 0.00000000000000000 0.00000000000000000 0.00000000000000000 1.00000000000000000 1.00000000000000000 0.00000000000000000 -0.00000000000000000 -0.00000000000000000 1.00000000000000000 0.00000000000000000 2.25000000000000000
1 106.75000000000000000 13.00000000000000000 0.00000000000000000 0.00000000000000000 0.00000000000000000 1.00000000000000000 
2 104.50000000000000000 13.00000000000000000 0.00000000000000000 0.00000000000000000 0.00000000000000000 1.00000000000000000 1.00000000000000000 0.00000000000000000 -0.00000000000000000 -0.00000000000000000 1.00000000000000000 0.00000000000000000 2.25000000000000000
2 104.50000000000000000 13.00000000000000000 0.00000000000000000 0.00000000000000000 0.00000000000000000 1.00000000000000000 1.00000000000000000 0.00000000000000000 -0.00000000000000000 -0.00000000000000000 1.00000000000000000 0.00000000000000000 2.25000000000000000
1 15.75000000000000000 102.00000000000000000 0.00000000000000000 0.00000000000000000 0.00000000000000000 1.00000000000000000 
2 13.50000000000000000 102.00000000000000000 0.00000000000000000 0.00000000000000000 0.00000000000000000 1.00000000000000000 1.00000000000000000 0.00000000000000000 -0.00000000000000000 -0.00000000000000000 1.00000000000000000 0.00000000000000000 2.25000000000000000
2 13.50000000000000000 102.00000000000000000 0.00000000000000000 0.00000000000000000 0.00000000000000000 1.00000000000000000 1.00000000000000000 0.00000000000000000 -0.00000000000000000 -0.00000000000000000 1.00000000000000000 0.00000000000000000 2.25000000000000000
1 275.75000000000000000 175.00000000000000000 0.00000000000000000 0.00000000000000000 0.00000000000000000 1.00000000000000000 
2 273.50000000000000000 175.00000000000000000 0.00000000000000000 0.00000000000000000 0.00000000000000000 1.00000000000000000 1.00000000000000000 0.00000000000000000 -0.00000000000000000 -0.00000000000000000 1.00000000000000000 0.00000000000000000 2.25000000000000000
2 273.50000000000000000 175.00000000000000000 0.00000000000000000 0.00000000000000000 0.00000000000000000 1.00000000000000000 1.00000000000000000 0.00000000000000000 -0.00000000000000000 -0.00000000000000000 1.00000000000000000 0.00000000000000000 2.25000000000000000
1 278.75000000000000000 13.00000000000000000 0.00000000000000000 0.00000000000000000 0.00000000000000000 1.00000000000000000 
2 276.50000000000000000 13.00000000000000000 0.00000000000000000 0.00000000000000000 0.00000000000000000 1.00000000000000000 1.00000000000000000 0.00000000000000000 -0.00000000000000000 -0.00000000000000000 1.00000000000000000 0.00000000000000000 2.25000000000000000
2 276.50000000000000000 13.00000000000000000 0.00000000000000000 0.00000000000000000 0.00000000000000000 1.00000000000000000 1.00000000000000000 0.00000000000000000 -0.00000000000000000 -0.00000000000000000 1.00000000000000000 0.00000000000000000 2.25000000000000000
1 278.75000000000000000 102.00000000000000000 0.00000000000000000 0.00000000000000000 0.00000000000000000 1.00000000000000000 
2 276.50000000000000000 102.00000000000000000 0.00000000000000000 0.00000000000000000 0.00000000000000000 1.00000000000000000 1.00000000000000000 0.00000000000000000 -0.00000000000000000 -0.00000000000000000 1.00000000000000000 0.00000000000000000 2.25000000000000000
2 276.50000000000000000 102.00000000000000000 0.00000000000000000 0.00000000000000000 0.00000000000000000 1.00000000000000000 1.00000000000000000 0.00000000000000000 -0.00000000000000000 -0.00000000000000000 1.00000000000000000 0.00000000000000000 2.25000000000000000
Polygon3D 0
PolygonOnTriangulations 0
Surfaces 15
1 0.00000000000000000 0.00000000000000000 0.00000000000000000 0.00000000000000000 1.00000000000000000 0.00000000000000000 1.00000000000000000 0.00000000000000000 0.00000000000000000 0.00000000000000000 0.00000000000000000 -1.00000000000000000 
1 0.00000000000000000 183.00000000000000000 0.00000000000000000 1.00000000000000000 0.00000000000000000 -0.00000000000000000 0.00000000000000000 -1.00000000000000000 0.00000000000000000 0.00000000000000000 -0.00000000000000000 -1.00000000000000000 
1 290.00000000000000000 0.00000000000000000 0.00000000000000000 -1.00000000000000000 0.00000000000000000 0.00000000000000000 0.00000000000000000 1.00000000000000000 0.00000000000000000 0.00000000000000000 0.00000000000000000 -1.00000000000000000 
1 145.00000000000000000 91.50000000000000000 0.00000000000000000 0.00000000000000000 0.00000000000000000 1.00000000000000000 1.00000000000000000 0.00000000000000000 -0.00000000000000000 -0.00000000000000000 1.00000000000000000 0.00000000000000000 
1 145.00000000000000000 91.50000000000000000 0.00000000000000000 0.00000000000000000 0.00000000000000000 1.00000000000000000 1.00000000000000000 0.00000000000000000 -0.00000000000000000 -0.00000000000000000 1.00000000000000000 0.00000000000000000 
1 290.00000000000000000 183.00000000000000000 0.00000000000000000 0.00000000000000000 -1.00000000000000000 0.00000000000000000 -1.00000000000000000 0.00000000000000000 0.00000000000000000 -0.00000000000000000 -0.00000000000000000 -1.00000000000000000 
2 185.50000000000000000 13.00000000000000000 0.00000000000000000 -0.00000000000000000 -0.00000000000000000 -1.00000000000000000 1.00000000000000000 0.00000000000000000 0.00000000000000000 -0.00000000000000000 1.00000000000000000 -0.00000000000000000 2.25000000000000000
2 16.50000000000000000 175.00000000000000000 0.00000000000000000 -0.00000000000000000 -0.00000000000000000 -1.00000000000000000 1.00000000000000000 0.00000000000000000 0.00000000000000000 -0.00000000000000000 1.00000000000000000 -0.00000000000000000 2.25000000000000000
2 145.00000000000000000 104.43166847433114697 0.00000000000000000 -0.00000000000000000 -0.00000000000000000 -1.00000000000000000 1.00000000000000000 0.00000000000000000 0.00000000000000000 -0.00000000000000000 1.00000000000000000 -0.00000000000000000 2.25000000000000000
2 13.50000000000000000 13.00000000000000000 0.00000000000000000 -0.00000000000000000 -0.00000000000000000 -1.00000000000000000 1.00000000000000000 0.00000000000000000 0.00000000000000000 -0.00000000000000000 1.00000000000000000 -0.00000000000000000 2.25000000000000000
2 104.50000000000000000 13.00000000000000000 0.00000000000000000 -0.00000000000000000 -0.00000000000000000 -1.00000000000000000 1.00000000000000000 0.00000000000000000 0.00000000000000000 -0.00000000000000000 1.00000000000000000 -0.00000000000000000 2.25000000000000000
2 13.50000000000000000 102.00000000000000000 0.00000000000000000 -0.00000000000000000 -0.00000000000000000 -1.00000000000000000 1.00000000000000000 0.00000000000000000 0.00000000000000000 -0.00000000000000000 1.00000000000000000 -0.00000000000000000 2.25000000000000000
2 273.50000000000000000 175.00000000000000000 0.00000000000000000 -0.00000000000000000 -0.00000000000000000 -1.00000000000000000 1.00000000000000000 0.00000000000000000 0.00000000000000000 -0.00000000000000000 1.00000000000000000 -0.00000000000000000 2.25000000000000000
2 276.50000000000000000 13.00000000000000000 0.00000000000000000 -0.00000000000000000 -0.00000000000000000 -1.00000000000000000 1.00000000000000000 0.00000000000000000 0.00000000000000000 -0.00000000000000000 1.00000000000000000 -0.00000000000000000 2.25000000000000000
2 276.50000000000000000 102.00000000000000000 0.00000000000000000 -0.00000000000000000 -0.00000000000000000 -1.00000000000000000 1.00000000000000000 0.00000000000000000 0.00000000000000000 -0.00000000000000000 1.00000000000000000 -0.00000000000000000 2.25000000000000000
Triangulations 0

TShapes 115
Ve
0.000000100005000
0.000000000000000 0.000000000000000 0.000000000000000
0 0

0101101
*
Ve
0.000000100005000
0.000000000000000 0.000000000000000 2.000000000000000
0 0

0101101
*
Ed
 0.000000100005000 1 1 0
1  1 0 0.000000000000000 2.000000000000000
2  1 1 0 0.000000000000000 2.000000000000000
2  2 2 0 0.000000000000000 2.000000000000000
0

0101000
+115 0 -114 0 *
Ve
0.000000100005000
290.000000000000000 0.000000000000000 0.000000000000000
0 0

0101101
*
Ve
0.000000100005000
290.000000000000000 0.000000000000000 2.000000000000000
0 0

0101101
*
Ed
 0.000000100005000 1 1 0
1  2 0 0.000000000000000 2.000000000000000
2  3 1 0 0.000000000000000 2.000000000000000
2  4 3 0 0.000000000000000 2.000000000000000
0

0101000
+112 0 -111 0 *
Ed
 0.000000100005000 1 1 0
1  3 0 0.000000000000000 290.000000000000000
2  5 1 4 0.000000000000000 290.000000000000000
2  6 4 5 0.000000000000000 290.000000000000000
0

0101000
+115 4 -112 4 *
Ed
 0.000000100005000 1 1 0
1  4 0 0.000000000000000 290.000000000000000
2  7 1 8 0.000000000000000 290.000000000000000
2  8 5 5 0.000000000000000 290.000000000000000
0

0101000
+114 8 -111 8 *
Wi

0101100
+113 0 -110 0 -109 3 +108 7 *
Fa
0  0.000000100005000 1 0

0111000
+107 0 *
Ve
0.000000100005000
290.000000000000000 183.000000000000000 0.000000000000000
0 0

0101101
*
Ve
0.000000100005000
290.000000000000000 183.000000000000000 2.000000000000000
0 0

0101101
*
Ed
 0.000000100005000 1 1 0
1  5 0 0.000000000000000 2.000000000000000
2  9 3 0 0.000000000000000 2.000000000000000
2  10 6 0 0.000000000000000 2.000000000000000
0

0101000
+105 0 -104 0 *
Ed
 0.000000100005000 1 1 0
1  6 0 0.000000000000000 183.000000000000000
2  11 3 4 0.000000000000000 183.000000000000000
2  12 4 5 0.000000000000000 183.000000000000000
0

0101000
+112 4 -105 4 *
Ed
 0.000000100005000 1 1 0
1  7 0 0.000000000000000 183.000000000000000
2  13 3 8 0.000000000000000 183.000000000000000
2  14 5 5 0.000000000000000 183.000000000000000
0

0101000
+111 8 -104 8 *
Wi

0101100
+110 0 -103 0 -102 3 +101 7 *
Fa
0  0.000000100005000 3 0

0111000
+100 0 *
Ve
0.000000100005000
0.000000000000000 183.000000000000000 0.000000000000000
0 0

0101101
*
Ve
0.000000100005000
0.000000000000000 183.000000000000000 2.000000000000000
0 0

0101101
*
Ed
 0.000000100005000 1 1 0
1  8 0 0.000000000000000 2.000000000000000
2  15 6 0 0.000000000000000 2.000000000000000
2  16 2 0 0.000000000000000 2.000000000000000
0

0101000
+98 0 -97 0 *
Ed
 0.000000100005000 1 1 0
1  9 0 0.000000000000000 290.000000000000000
2  17 6 4 0.000000000000000 290.000000000000000
2  18 4 5 0.000000000000000 290.000000000000000
0

0101000
+105 4 -98 4 *
Ed
 0.000000100005000 1 1 0
1  10 0 0.000000000000000 290.000000000000000
2  19 6 8 0.000000000000000 290.000000000000000
2  20 5 5 0.000000000000000 290.000000000000000
0

0101000
+104 8 -97 8 *
Wi

0101100
+103 0 -96 0 -95 3 +94 7 *
Fa
0  0.000000100005000 6 0

0111000
+93 0 *
Ed
 0.000000100005000 1 1 0
1  11 0 0.000000000000000 183.000000000000000
2  21 2 4 0.000000000000000 183.000000000000000
2  22 4 5 0.000000000000000 183.000000000000000
0

0101000
+98 4 -115 4 *
Ed
 0.000000100005000 1 1 0
1  12 0 0.000000000000000 183.000000000000000
2  23 2 8 0.000000000000000 183.000000000000000
2  24 5 5 0.000000000000000 183.000000000000000
0

0101000
+97 8 -114 8 *
Wi

0101100
+96 0 -113 0 -91 3 +90 7 *
Fa
0  0.000000100005000 2 0

0111000
+89 0 *
Ve
0.000000100005000
187.750000000000000 13.000000000000000 0.000000000000000
0 0

0101101
*
Ve
0.000000100005000
187.750000000000000 13.000000000000000 2.000000000000000
0 0

0101101
*
Ed
 0.000000100005000 1 1 0
1  13 0 0.000000000000000 2.000000000000000
3  25 26CN 7 0 0.000000000000000 2.000000000000000
0

0101000
+87 0 -86 0 *
Ed
 0.000000100005000 1 1 0
1  14 0 0.000000000000000 6.283185307179586
2  27 7 4 0.000000000000000 6.283185307179586
2  28 4 5 0.000000000000000 6.283185307179586
0

0101000
+87 4 -87 4 *
Ed
 0.000000100005000 1 1 0
1  15 0 0.000000000000000 6.283185307179586
2  29 7 8 0.000000000000000 6.283185307179586
2  30 5 5 0.000000000000000 6.283185307179586
0

0101000
+86 8 -86 8 *
Wi

0101100
+85 0 -85 0 -84 3 +83 7 *
Fa
0  0.000000100005000 7 0

0111000
+82 0 *
Ve
0.000000100005000
18.750000000000000 175.000000000000000 0.000000000000000
0 0

0101101
*
Ve
0.000000100005000
18.750000000000000 175.000000000000000 2.000000000000000
0 0

0101101
*
Ed
 0.000000100005000 1 1 0
1  16 0 0.000000000000000 2.000000000000000
3  31 32CN 8 0 0.000000000000000 2.000000000000000
0

0101000
+80 0 -79 0 *
Ed
 0.000000100005000 1 1 0
1  17 0 0.000000000000000 6.283185307179586
2  33 8 4 0.000000000000000 6.283185307179586
2  34 4 5 0.000000000000000 6.283185307179586
0

0101000
+80 4 -80 4 *
Ed
 0.000000100005000 1 1 0
1  18 0 0.000000000000000 6.283185307179586
2  35 8 8 0.000000000000000 6.283185307179586
2  36 5 5 0.000000000000000 6.283185307179586
0

0101000
+79 8 -79 8 *
Wi

0101100
+78 0 -78 0 -77 3 +76 7 *
Fa
0  0.000000100005000 8 0

0111000
+75 0 *
Ve
0.000000100005000
147.250000000000000 104.431668474331147 0.000000000000000
0 0

0101101
*
Ve
0.000000100005000
147.250000000000000 104.431668474331147 2.000000000000000
0 0

0101101
*
Ed
 0.000000100005000 1 1 0
1  19 0 0.000000000000000 2.000000000000000
3  37 38CN 9 0 0.000000000000000 2.000000000000000
0

0101000
+73 0 -72 0 *
Ed
 0.000000100005000 1 1 0
1  20 0 0.000000000000000 6.283185307179586
2  39 9 4 0.000000000000000 6.283185307179586
2  40 4 5 0.000000000000000 6.283185307179586
0

0101000
+73 4 -73 4 *
Ed
 0.000000100005000 1 1 0
1  21 0 0.000000000000000 6.283185307179586
2  41 9 8 0.000000000000000 6.283185307179586
2  42 5 5 0.000000000000000 6.283185307179586
0

0101000
+72 8 -72 8 *
Wi

0101100
+71 0 -71 0 -70 3 +69 7 *
Fa
0  0.000000100005000 9 0

0111000
+68 0 *
Ve
0.000000100005000
15.750000000000000 13.000000000000000 0.000000000000000
0 0

0101101
*
Ve
0.000000100005000
15.750000000000000 13.000000000000000 2.000000000000000
0 0

0101101
*
Ed
 0.000000100005000 1 1 0
1  22 0 0.000000000000000 2.000000000000000
3  43 44CN 10 0 0.000000000000000 2.000000000000000
0

0101000
+66 0 -65 0 *
Ed
 0.000000100005000 1 1 0
1  23 0 0.000000000000000 6.283185307179586
2  45 10 4 0.000000000000000 6.283185307179586
2  46 4 5 0.000000000000000 6.283185307179586
0

0101000
+66 4 -66 4 *
Ed
 0.000000100005000 1 1 0
1  24 0 0.000000000000000 6.283185307179586
2  47 10 8 0.000000000000000 6.283185307179586
2  48 5 5 0.000000000000000 6.283185307179586
0

0101000
+65 8 -65 8 *
Wi

0101100
+64 0 -64 0 -63 3 +62 7 *
Fa
0  0.000000100005000 10 0

0111000
+61 0 *
Ve
0.000000100005000
106.750000000000000 13.000000000000000 0.000000000000000
0 0

0101101
*
Ve
0.000000100005000
106.750000000000000 13.000000000000000 2.000000000000000
0 0

0101101
*
Ed
 0.000000100005000 1 1 0
1  25 0 0.000000000000000 2.000000000000000
3  49 50CN 11 0 0.000000000000000 2.000000000000000
0

0101000
+59 0 -58 0 *
Ed
 0.000000100005000 1 1 0
1  26 0 0.000000000000000 6.283185307179586
2  51 11 4 0.000000000000000 6.283185307179586
2  52 4 5 0.000000000000000 6.283185307179586
0

0101000
+59 4 -59 4 *
Ed
 0.000000100005000 1 1 0
1  27 0 0.000000000000000 6.283185307179586
2  53 11 8 0.000000000000000 6.283185307179586
2  54 5 5 0.000000000000000 6.283185307179586
0

0101000
+58 8 -58 8 *
Wi

0101100
+57 0 -57 0 -56 3 +55 7 *
Fa
0  0.000000100005000 11 0

0111000
+54 0 *
Ve
0.000000100005000
15.750000000000000 102.000000000000000 0.000000000000000
0 0

0101101
*
Ve
0.000000100005000
15.750000000000000 102.000000000000000 2.000000000000000
0 0

0101101
*
Ed
 0.000000100005000 1 1 0
1  28 0 0.000000000000000 2.000000000000000
3  55 56CN 12 0 0.000000000000000 2.000000000000000
0

0101000
+52 0 -51 0 *
Ed
 0.000000100005000 1 1 0
1  29 0 0.000000000000000 6.283185307179586
2  57 12 4 0.000000000000000 6.283185307179586
2  58 4 5 0.000000000000000 6.283185307179586
0

0101000
+52 4 -52 4 *
Ed
 0.000000100005000 1 1 0
1  30 0 0.000000000000000 6.283185307179586
2  59 12 8 0.000000000000000 6.283185307179586
2  60 5 5 0.000000000000000 6.283185307179586
0

0101000
+51 8 -51 8 *
Wi

0101100
+50 0 -50 0 -49 3 +48 7 *
Fa
0  0.000000100005000 12 0

0111000
+47 0 *
Ve
0.000000100005000
275.750000000000000 175.000000000000000 0.000000000000000
0 0

0101101
*
Ve
0.000000100005000
275.750000000000000 175.000000000000000 2.000000000000000
0 0

0101101
*
Ed
 0.000000100005000 1 1 0
1  31 0 0.000000000000000 2.000000000000000
3  61 62CN 13 0 0.000000000000000 2.000000000000000
0

0101000
+45 0 -44 0 *
Ed
 0.000000100005000 1 1 0
1  32 0 0.000000000000000 6.283185307179586
2  63 13 4 0.000000000000000 6.283185307179586
2  64 4 5 0.000000000000000 6.283185307179586
0

0101000
+45 4 -45 4 *
Ed
 0.000000100005000 1 1 0
1  33 0 0.000000000000000 6.283185307179586
2  65 13 8 0.000000000000000 6.283185307179586
2  66 5 5 0.000000000000000 6.283185307179586
0

0101000
+44 8 -44 8 *
Wi

0101100
+43 0 -43 0 -42 3 +41 7 *
Fa
0  0.000000100005000 13 0

0111000
+40 0 *
Ve
0.000000100005000
278.750000000000000 13.000000000000000 0.000000000000000
0 0

0101101
*
Ve
0.000000100005000
278.750000000000000 13.000000000000000 2.000000000000000
0 0

0101101
*
Ed
 0.000000100005000 1 1 0
1  34 0 0.000000000000000 2.000000000000000
3  67 68CN 14 0 0.000000000000000 2.000000000000000
0

0101000
+38 0 -37 0 *
Ed
 0.000000100005000 1 1 0
1  35 0 0.000000000000000 6.283185307179586
2  69 14 4 0.000000000000000 6.283185307179586
2  70 4 5 0.000000000000000 6.283185307179586
0

0101000
+38 4 -38 4 *
Ed
 0.000000100005000 1 1 0
1  36 0 0.000000000000000 6.283185307179586
2  71 14 8 0.000000000000000 6.283185307179586
2  72 5 5 0.000000000000000 6.283185307179586
0

0101000
+37 8 -37 8 *
Wi

0101100
+36 0 -36 0 -35 3 +34 7 *
Fa
0  0.000000100005000 14 0

0111000
+33 0 *
Ve
0.000000100005000
278.750000000000000 102.000000000000000 0.000000000000000
0 0

0101101
*
Ve
0.000000100005000
278.750000000000000 102.000000000000000 2.000000000000000
0 0

0101101
*
Ed
 0.000000100005000 1 1 0
1  37 0 0.000000000000000 2.000000000000000
3  73 74CN 15 0 0.000000000000000 2.000000000000000
0

0101000
+31 0 -30 0 *
Ed
 0.000000100005000 1 1 0
1  38 0 0.000000000000000 6.283185307179586
2  75 15 4 0.000000000000000 6.283185307179586
2  76 4 5 0.000000000000000 6.283185307179586
0

0101000
+31 4 -31 4 *
Ed
 0.000000100005000 1 1 0
1  39 0 0.000000000000000 6.283185307179586
2  77 15 8 0.000000000000000 6.283185307179586
2  78 5 5 0.000000000000000 6.283185307179586
0

0101000
+30 8 -30 8 *
Wi

0101100
+29 0 -29 0 -28 3 +27 7 *
Fa
0  0.000000100005000 15 0

0111000
+26 0 *
Wi

0101100
+109 1 +102 1 +95 1 +91 1 *
Wi

0101100
-84 1 *
Wi

0101100
-77 1 *
Wi

0101100
-70 1 *
Wi

0101100
-63 1 *
Wi

0101100
-56 1 *
Wi

0101100
-49 1 *
Wi

0101100
-42 1 *
Wi

0101100
-35 1 *
Wi

0101100
-28 1 *
Fa
0  0.000000100000000 4 0

0111000
+24 0 +23 0 +22 0 +21 0 +20 0 +19 0 +18 0 +17 0 +16 0 +15 0 
*
Wi

0101100
+108 1 +101 1 +94 1 +90 1 *
Wi

0101100
-83 1 *
Wi

0101100
-76 1 *
Wi

0101100
-69 1 *
Wi

0101100
-62 1 *
Wi

0101100
-55 1 *
Wi

0101100
-48 1 *
Wi

0101100
-41 1 *
Wi

0101100
-34 1 *
Wi

0101100
-27 1 *
Fa
0  0.000000100000000 5 0

0111000
+13 0 +12 0 +11 0 +10 0 +9 0 +8 0 +7 0 +6 0 +5 0 +4 0 
*
Sh

0101100
+106 0 +99 0 +92 0 +88 0 -81 0 -74 0 -67 0 -60 0 -53 0 -46 0 
-39 0 -32 0 -25 0 +14 9 -3 10 *
So

1100000
-2 0 *

+1 0 