
CASCADE Topology V1, (c) Matra-Datavision
Locations 10
1
0.000000000000000 0.000000000000000 1.000000000000000 262.000000000000000 
1.000000000000000 0.000000000000000 0.000000000000000 0.000000000000000 
0.000000000000000 1.000000000000000 0.000000000000000 0.000000000000000 
1
1.000000000000000 0.000000000000000 0.000000000000000 0.000000000000000 
0.000000000000000 1.000000000000000 0.000000000000000 0.000000000000000 
0.000000000000000 0.000000000000000 1.000000000000000 0.000000000000000 
2  1 1 2 -1 0
2  2 1 1 -1 0
2  1 -1 0
1
1.000000000000000 0.000000000000000 0.000000000000000 -1.600000000000000 
0.000000000000000 1.000000000000000 0.000000000000000 -0.000000000000000 
0.000000000000000 0.000000000000000 1.000000000000000 -0.000000000000000 
2  1 1 2 -1 6 1 0
2  6 -1 2 1 1 -1 0
2  2 -1 0
2  2 -1 6 1 0
Curve2ds 18
1 4.71239022009017106 0.00000000000000000 0.00000000000000000 -1.00000000000000000 
1 0.00000000000000000 0.00000000000000000 0.00000000000000000 -1.00000000000000000 
1 6.28318309925529217 0.00000000000000000 0.00000000000000000 -1.00000000000000000 
1 10.59997659599440034 0.00000000000000000 0.00000000000000000 -1.00000000000000000 
1 0.00000000000000000 0.00000000000000000 1.00000000000000000 0.00000000000000000 
2 -7.35701381298680790 7.35700813411222043 0.00000000000000000 -1.00000000000000000 -1.00000000000000000 -0.00000000000000000 10.60000000000007958
1 0.00000000000000000 -1.60000000000000009 1.00000000000000000 0.00000000000000000 
2 -7.35701381298680790 7.35700813411222043 0.00000000000000000 -1.00000000000000000 -1.00000000000000000 -0.00000000000000000 10.60000000000007958
1 0.00000000000000000 0.00000000000000000 0.00000000000000000 -1.00000000000000000 
1 10.59998685909610572 0.00000000000000000 0.00000000000000000 -1.00000000000000000 
1 0.00000000000000000 0.00000000000000000 1.00000000000000000 0.00000000000000000 
1 3.24298618700511287 -3.24299186586199539 -1.00000000000000000 0.00000000000000000 
1 0.00000000000000000 -1.60000000000002274 1.00000000000000000 0.00000000000000000 
1 3.24298618700511287 -3.24299186586199539 -1.00000000000000000 0.00000000000000000 
1 0.00000000000000000 0.00000000000000000 1.00000000000000000 0.00000000000000000 
1 3.24298618700511287 7.35699499323411032 0.00000000000000000 -1.00000000000000000 
1 0.00000000000000000 -1.60000000000002274 1.00000000000000000 0.00000000000000000 
1 3.24298618700511287 7.35699499323411032 0.00000000000000000 -1.00000000000000000 
Curves 9
1 262.00000000000000000 183.40001314087808737 2.00000000000814815 -1.00000000000000000 -0.00000000000000000 -0.00000000000000000 
1 262.00000000000000000 193.99999999997419309 12.59997659600254849 -1.00000000000000000 -0.00000000000000000 -0.00000000000000000 
2 183.39999999999997726 12.60000000000006892 0.00000000000000000 0.00000000000000000 0.00000000000000000 1.00000000000000000 1.00000000000000000 0.00000000000000000 -0.00000000000000000 -0.00000000000000000 1.00000000000000000 0.00000000000000000 10.60000000000006537
2 183.39999999999997726 12.60000000000006892 0.00000000000000000 0.00000000000000000 0.00000000000000000 1.00000000000000000 1.00000000000000000 0.00000000000000000 -0.00000000000000000 -0.00000000000000000 1.00000000000000000 0.00000000000000000 10.60000000000006537
1 262.00000000000000000 193.99999999997419309 2.00000000000814815 -1.00000000000000000 -0.00000000000000000 -0.00000000000000000 
1 193.99999999997419309 2.00000000000814815 0.00000000000000000 0.00000000000000000 1.00000000000000000 0.00000000000000000 
1 193.99999999997419309 2.00000000000814815 0.00000000000000000 0.00000000000000000 1.00000000000000000 0.00000000000000000 
1 183.40001314087808737 2.00000000000814815 0.00000000000000000 1.00000000000000000 0.00000000000000000 0.00000000000000000 
1 183.40001314087808737 2.00000000000814815 0.00000000000000000 1.00000000000000000 0.00000000000000000 0.00000000000000000 
Polygon3D 0
PolygonOnTriangulations 0
Surfaces 5
2 262.00000000000000000 183.39999999999997726 12.60000000000006892 1.00000000000000000 0.00000000000000000 0.00000000000000000 -0.00000000000000000 1.00000000000000000 0.00000000000000000 0.00000000000000000 -0.00000000000000000 1.00000000000000000 10.60000000000006537
1 262.00000000000000000 183.40001314087808737 2.00000000000814815 0.00000000000000000 0.00000000000000000 -1.00000000000000000 0.00000000000000000 1.00000000000000000 0.00000000000000000 1.00000000000000000 -0.00000000000000000 0.00000000000000000 
1 262.00000000000000000 193.99999999997419309 2.00000000000814815 0.00000000000000000 1.00000000000000000 0.00000000000000000 0.00000000000000000 -0.00000000000000000 1.00000000000000000 1.00000000000000000 0.00000000000000000 -0.00000000000000000 
1 262.00000000000000000 190.75700813411219769 5.24298618701326102 -1.00000000000000000 -0.00000000000000000 -0.00000000000000000 0.00000000000000000 0.00000000000000000 -1.00000000000000000 0.00000000000000000 -1.00000000000000000 0.00000000000000000 
1 262.00000000000000000 190.75700813411219769 5.24298618701326102 -1.00000000000000000 -0.00000000000000000 -0.00000000000000000 0.00000000000000000 0.00000000000000000 -1.00000000000000000 0.00000000000000000 -1.00000000000000000 0.00000000000000000 
Triangulations 0

TShapes 27
Ve
0.000000100005000
262.000000000000000 183.400013140878087 2.000000000008148
0 0

0101101
*
Ve
0.000000100005000
260.399999999999977 183.400013140878087 2.000000000008148
0 0

0101101
*
Ed
 0.000000100000000 1 1 0
1  1 0 0.000000000000000 1.600000000000000
2  1 1 0 0.000000000000000 1.600000000000000
2  2 2 0 0.000000000000000 1.600000000000000
0

0101000
+27 0 -26 0 *
Ve
0.000000100001003
262.000000000000000 193.999999999974193 12.599976596002548
0 0

0101101
*
Ve
0.000000100001003
260.399999999999977 193.999999999974193 12.599976596002548
0 0

0101101
*
Ed
 0.000000100000000 1 1 0
1  2 0 0.000000000000000 1.600000000000000
2  3 1 0 0.000000000000000 1.600000000000000
2  4 3 0 0.000000000000000 1.600000000000000
0

0101000
+24 0 -23 0 *
Ed
 0.000000100000000 1 1 0
1  3 0 4.712390220090171 6.283183099255292
2  5 1 4 4.712390220090171 6.283183099255292
2  6 4 5 4.712390220090171 6.283183099255292
0

0101000
+27 4 -24 4 *
Ed
 0.000000100000000 1 1 0
1  4 0 4.712390220090171 6.283183099255292
2  7 1 8 4.712390220090171 6.283183099255292
2  8 5 5 4.712390220090171 6.283183099255292
0

0101000
+26 8 -23 8 *
Wi

0101100
+25 0 -22 0 -21 3 +20 7 *
Fa
0  0.000000100000000 1 0

0111000
+19 0 *
Ve
0.000000100000000
262.000000000000000 193.999999999974193 2.000000000008148
0 0

0101101
*
Ve
0.000000100000000
260.399999999999977 193.999999999974193 2.000000000008148
0 0

0101101
*
Ed
 0.000000100000000 1 1 0
1  5 0 0.000000000000000 1.600000000000000
2  9 3 0 0.000000000000000 1.600000000000000
2  10 2 0 0.000000000000000 1.600000000000000
0

0101000
+17 0 -16 0 *
Ed
 0.000000100000000 1 1 0
1  6 0 0.000000000000000 10.599976595994400
2  11 3 4 0.000000000000000 10.599976595994400
2  12 4 5 0.000000000000000 10.599976595994400
0

0101000
+17 4 -24 4 *
Ed
 0.000000100000000 1 1 0
1  7 0 0.000000000000000 10.599976595994400
2  13 3 8 0.000000000000000 10.599976595994400
2  14 5 5 0.000000000000000 10.599976595994400
0

0101000
+16 8 -23 8 *
Wi

0101100
+15 0 -22 0 -14 3 +13 7 *
Fa
0  0.000000100000000 3 0

0111000
+12 0 *
Ed
 0.000000100000000 1 1 0
1  8 0 0.000000000000000 10.599986859096106
2  15 2 4 0.000000000000000 10.599986859096106
2  16 4 5 0.000000000000000 10.599986859096106
0

0101000
+27 4 -17 4 *
Ed
 0.000000100000000 1 1 0
1  9 0 0.000000000000000 10.599986859096106
2  17 2 8 0.000000000000000 10.599986859096106
2  18 5 5 0.000000000000000 10.599986859096106
0

0101000
+26 8 -16 8 *
Wi

0101100
+25 0 -15 0 -10 3 +9 7 *
Fa
0  0.000000100000000 2 0

0111000
+8 0 *
Wi

0101100
+21 0 -14 0 -10 0 *
Fa
0  0.000000100000000 4 0

0111000
+6 1 *
Wi

0101100
+20 0 -13 0 -9 0 *
Fa
0  0.000000100000000 5 0

0111000
+4 1 *
Sh

0101100
+18 0 -11 0 -7 0 +5 9 -3 10 *
So

1100000
-2 0 *

+1 0 