
CASCADE Topology V1, (c) Matra-Datavision
Locations 10
1
1.000000000000000 0.000000000000000 0.000000000000000 0.000000000000000 
0.000000000000000 1.000000000000000 0.000000000000000 0.000000000000000 
0.000000000000000 0.000000000000000 1.000000000000000 2.000000000000000 
1
1.000000000000000 0.000000000000000 0.000000000000000 0.000000000000000 
0.000000000000000 1.000000000000000 0.000000000000000 0.000000000000000 
0.000000000000000 0.000000000000000 1.000000000000000 0.000000000000000 
2  1 1 2 -1 0
2  2 1 1 -1 0
2  1 -1 0
1
1.000000000000000 0.000000000000000 0.000000000000000 0.000000000000000 
0.000000000000000 1.000000000000000 0.000000000000000 0.000000000000000 
0.000000000000000 0.000000000000000 1.000000000000000 7.500000000000000 
2  1 1 2 -1 6 1 0
2  6 -1 2 1 1 -1 0
2  2 -1 0
2  2 -1 6 1 0
Curve2ds 72
1 3.14159265358979312 0.00000000000000000 0.00000000000000000 -1.00000000000000000 
1 0.00000000000000000 0.00000000000000000 0.00000000000000000 -1.00000000000000000 
1 4.71238898038468967 0.00000000000000000 0.00000000000000000 -1.00000000000000000 
1 -0.00000000000000089 0.00000000000000000 0.00000000000000000 -1.00000000000000000 
1 0.00000000000000000 0.00000000000000000 1.00000000000000000 0.00000000000000000 
2 -137.00000000000005684 -44.49461227738147784 1.00000000000000000 0.00000000000000000 -0.00000000000000000 1.00000000000000000 7.99999999999999822
1 0.00000000000000000 -7.50000000000000000 1.00000000000000000 0.00000000000000000 
2 -137.00000000000005684 -44.49461227738147784 1.00000000000000000 0.00000000000000000 -0.00000000000000000 1.00000000000000000 7.99999999999999822
1 274.00000000000000000 0.00000000000000000 0.00000000000000000 -1.00000000000000000 
1 4.71238898038468967 0.00000000000000000 0.00000000000000000 -1.00000000000000000 
1 0.00000000000000000 0.00000000000000000 1.00000000000000000 0.00000000000000000 
1 -137.00000000000005684 -52.49461227738147784 1.00000000000000000 0.00000000000000000 
1 0.00000000000000000 -7.50000000000000000 1.00000000000000000 0.00000000000000000 
1 -137.00000000000005684 -52.49461227738147784 1.00000000000000000 0.00000000000000000 
1 6.28318530717958446 0.00000000000000000 0.00000000000000000 -1.00000000000000000 
1 175.00000000000000000 0.00000000000000000 0.00000000000000000 -1.00000000000000000 
1 0.00000000000000000 0.00000000000000000 1.00000000000000000 0.00000000000000000 
2 136.99999999999994316 -44.49461227738146363 1.00000000000000000 0.00000000000000000 -0.00000000000000000 1.00000000000000000 8.00000000000000000
1 0.00000000000000000 -7.50000000000000000 1.00000000000000000 0.00000000000000000 
2 136.99999999999994316 -44.49461227738146363 1.00000000000000000 0.00000000000000000 -0.00000000000000000 1.00000000000000000 8.00000000000000000
1 0.00000000000000000 0.00000000000000000 0.00000000000000000 -1.00000000000000000 
1 1.60000000000002274 0.00000000000000000 0.00000000000000000 -1.00000000000000000 
1 0.00000000000000000 0.00000000000000000 1.00000000000000000 0.00000000000000000 
1 144.99999999999994316 130.50538772261853637 0.00000000000000000 -1.00000000000000000 
1 0.00000000000000000 -7.50000000000000000 1.00000000000000000 0.00000000000000000 
1 144.99999999999994316 130.50538772261853637 0.00000000000000000 -1.00000000000000000 
1 0.00000000000000000 0.00000000000000000 0.00000000000000000 -1.00000000000000000 
1 175.00000000000000000 0.00000000000000000 0.00000000000000000 -1.00000000000000000 
1 0.00000000000000000 0.00000000000000000 1.00000000000000000 0.00000000000000000 
1 143.39999999999992042 130.50538772261853637 1.00000000000000000 0.00000000000000000 
1 0.00000000000000000 -7.50000000000000000 1.00000000000000000 0.00000000000000000 
1 143.39999999999992042 130.50538772261853637 1.00000000000000000 0.00000000000000000 
1 0.00000000000000000 0.00000000000000000 0.00000000000000000 -1.00000000000000000 
1 6.28318530717958357 0.00000000000000000 0.00000000000000000 -1.00000000000000000 
1 0.00000000000000000 0.00000000000000000 1.00000000000000000 0.00000000000000000 
1 143.39999999999992042 -44.49461227738148494 0.00000000000000000 1.00000000000000000 
1 0.00000000000000000 -7.50000000000000000 1.00000000000000000 0.00000000000000000 
1 143.39999999999992042 -44.49461227738148494 0.00000000000000000 1.00000000000000000 
1 4.71238898038468879 0.00000000000000000 0.00000000000000000 -1.00000000000000000 
1 0.00000000000000000 -0.00000000000000000 0.00000000000000000 -1.00000000000000000 
1 0.00000000000000000 0.00000000000000000 1.00000000000000000 0.00000000000000000 
2 136.99999999999994316 -44.49461227738146363 1.00000000000000000 0.00000000000000000 -0.00000000000000000 1.00000000000000000 6.39999999999997726
1 0.00000000000000000 -7.50000000000000000 1.00000000000000000 0.00000000000000000 
2 136.99999999999994316 -44.49461227738146363 1.00000000000000000 0.00000000000000000 -0.00000000000000000 1.00000000000000000 6.39999999999997726
1 274.00000000000000000 0.00000000000000000 0.00000000000000000 -1.00000000000000000 
1 4.71238898038468967 0.00000000000000000 0.00000000000000000 -1.00000000000000000 
1 0.00000000000000000 -0.00000000000000000 1.00000000000000000 0.00000000000000000 
1 136.99999999999994316 -50.89461227738146931 -1.00000000000000000 0.00000000000000000 
1 0.00000000000000000 -7.50000000000000000 1.00000000000000000 0.00000000000000000 
1 136.99999999999994316 -50.89461227738146931 -1.00000000000000000 0.00000000000000000 
1 3.14159265358979312 0.00000000000000000 0.00000000000000000 -1.00000000000000000 
1 175.00000000000000000 0.00000000000000000 0.00000000000000000 -1.00000000000000000 
1 0.00000000000000000 0.00000000000000000 1.00000000000000000 0.00000000000000000 
2 -137.00000000000005684 -44.49461227738147784 1.00000000000000000 0.00000000000000000 -0.00000000000000000 1.00000000000000000 6.39999999999998970
1 0.00000000000000000 -7.50000000000000000 1.00000000000000000 0.00000000000000000 
2 -137.00000000000005684 -44.49461227738147784 1.00000000000000000 0.00000000000000000 -0.00000000000000000 1.00000000000000000 6.39999999999998970
1 0.00000000000000000 0.00000000000000000 0.00000000000000000 -1.00000000000000000 
1 1.60000000000000875 0.00000000000000000 0.00000000000000000 -1.00000000000000000 
1 0.00000000000000000 0.00000000000000000 1.00000000000000000 0.00000000000000000 
1 -143.40000000000003411 130.50538772261853637 0.00000000000000000 -1.00000000000000000 
1 0.00000000000000000 -7.50000000000000000 1.00000000000000000 0.00000000000000000 
1 -143.40000000000003411 130.50538772261853637 0.00000000000000000 -1.00000000000000000 
1 0.00000000000000000 0.00000000000000000 0.00000000000000000 -1.00000000000000000 
1 175.00000000000000000 0.00000000000000000 0.00000000000000000 -1.00000000000000000 
1 0.00000000000000000 0.00000000000000000 1.00000000000000000 0.00000000000000000 
1 -145.00000000000005684 130.50538772261853637 1.00000000000000000 0.00000000000000000 
1 0.00000000000000000 -7.50000000000000000 1.00000000000000000 0.00000000000000000 
1 -145.00000000000005684 130.50538772261853637 1.00000000000000000 0.00000000000000000 
1 0.00000000000000000 0.00000000000000000 1.00000000000000000 0.00000000000000000 
1 -145.00000000000005684 -44.49461227738147784 0.00000000000000000 1.00000000000000000 
1 0.00000000000000000 -7.50000000000000000 1.00000000000000000 0.00000000000000000 
1 -145.00000000000005684 -44.49461227738147784 0.00000000000000000 1.00000000000000000 
Curves 36
1 0.00000000000000000 7.99999999999999911 2.00000000000000000 0.00000000000000000 0.00000000000000000 1.00000000000000000 
1 7.99999999999999734 0.00000000000000000 2.00000000000000000 0.00000000000000000 0.00000000000000000 1.00000000000000000 
2 7.99999999999999822 7.99999999999999822 0.00000000000000000 0.00000000000000000 0.00000000000000000 1.00000000000000000 1.00000000000000000 0.00000000000000000 -0.00000000000000000 -0.00000000000000000 1.00000000000000000 0.00000000000000000 7.99999999999999822
2 7.99999999999999822 7.99999999999999822 0.00000000000000000 0.00000000000000000 0.00000000000000000 1.00000000000000000 1.00000000000000000 0.00000000000000000 -0.00000000000000000 -0.00000000000000000 1.00000000000000000 0.00000000000000000 7.99999999999999822
1 282.00000000000000000 0.00000000000000000 2.00000000000000000 0.00000000000000000 0.00000000000000000 1.00000000000000000 
1 7.99999999999999822 0.00000000000000000 0.00000000000000000 1.00000000000000000 0.00000000000000000 0.00000000000000000 
1 7.99999999999999822 0.00000000000000000 0.00000000000000000 1.00000000000000000 0.00000000000000000 0.00000000000000000 
1 290.00000000000000000 7.99999999999999911 2.00000000000000000 0.00000000000000000 0.00000000000000000 1.00000000000000000 
2 282.00000000000000000 8.00000000000001421 0.00000000000000000 0.00000000000000000 0.00000000000000000 1.00000000000000000 1.00000000000000000 0.00000000000000000 -0.00000000000000000 -0.00000000000000000 1.00000000000000000 0.00000000000000000 8.00000000000001421
2 282.00000000000000000 8.00000000000001421 0.00000000000000000 0.00000000000000000 0.00000000000000000 1.00000000000000000 1.00000000000000000 0.00000000000000000 -0.00000000000000000 -0.00000000000000000 1.00000000000000000 0.00000000000000000 8.00000000000001421
1 290.00000000000000000 183.00000000000000000 2.00000000000000000 0.00000000000000000 0.00000000000000000 1.00000000000000000 
1 290.00000000000000000 183.00000000000000000 0.00000000000000000 0.00000000000000000 -1.00000000000000000 0.00000000000000000 
1 290.00000000000000000 183.00000000000000000 0.00000000000000000 0.00000000000000000 -1.00000000000000000 0.00000000000000000 
1 288.39999999999997726 183.00000000000000000 2.00000000000000000 0.00000000000000000 0.00000000000000000 1.00000000000000000 
1 288.39999999999997726 183.00000000000000000 0.00000000000000000 1.00000000000000000 0.00000000000000000 0.00000000000000000 
1 288.39999999999997726 183.00000000000000000 0.00000000000000000 1.00000000000000000 0.00000000000000000 0.00000000000000000 
1 288.39999999999997726 7.99999999999999556 2.00000000000000000 0.00000000000000000 0.00000000000000000 1.00000000000000000 
1 288.39999999999997726 7.99999999999999556 0.00000000000000000 0.00000000000000000 1.00000000000000000 0.00000000000000000 
1 288.39999999999997726 7.99999999999999556 0.00000000000000000 0.00000000000000000 1.00000000000000000 0.00000000000000000 
1 282.00000000000000000 1.60000000000000875 2.00000000000000000 0.00000000000000000 0.00000000000000000 1.00000000000000000 
2 282.00000000000000000 8.00000000000001421 0.00000000000000000 0.00000000000000000 0.00000000000000000 1.00000000000000000 1.00000000000000000 0.00000000000000000 -0.00000000000000000 -0.00000000000000000 1.00000000000000000 0.00000000000000000 6.40000000000000568
2 282.00000000000000000 8.00000000000001421 0.00000000000000000 0.00000000000000000 0.00000000000000000 1.00000000000000000 1.00000000000000000 0.00000000000000000 -0.00000000000000000 -0.00000000000000000 1.00000000000000000 0.00000000000000000 6.40000000000000568
1 7.99999999999999822 1.60000000000000875 2.00000000000000000 0.00000000000000000 0.00000000000000000 1.00000000000000000 
1 282.00000000000000000 1.60000000000000897 0.00000000000000000 -1.00000000000000000 0.00000000000000000 0.00000000000000000 
1 282.00000000000000000 1.60000000000000897 0.00000000000000000 -1.00000000000000000 0.00000000000000000 0.00000000000000000 
1 1.60000000000000853 8.00000000000000000 2.00000000000000000 0.00000000000000000 0.00000000000000000 1.00000000000000000 
2 7.99999999999999822 7.99999999999999822 0.00000000000000000 0.00000000000000000 0.00000000000000000 1.00000000000000000 1.00000000000000000 0.00000000000000000 -0.00000000000000000 -0.00000000000000000 1.00000000000000000 0.00000000000000000 6.39999999999998970
2 7.99999999999999822 7.99999999999999822 0.00000000000000000 0.00000000000000000 0.00000000000000000 1.00000000000000000 1.00000000000000000 0.00000000000000000 -0.00000000000000000 -0.00000000000000000 1.00000000000000000 0.00000000000000000 6.39999999999998970
1 1.60000000000000875 183.00000000000000000 2.00000000000000000 0.00000000000000000 0.00000000000000000 1.00000000000000000 
1 1.60000000000000875 183.00000000000000000 0.00000000000000000 0.00000000000000000 -1.00000000000000000 0.00000000000000000 
1 1.60000000000000875 183.00000000000000000 0.00000000000000000 0.00000000000000000 -1.00000000000000000 0.00000000000000000 
1 0.00000000000000000 183.00000000000000000 2.00000000000000000 0.00000000000000000 0.00000000000000000 1.00000000000000000 
1 0.00000000000000000 183.00000000000000000 0.00000000000000000 1.00000000000000000 0.00000000000000000 0.00000000000000000 
1 0.00000000000000000 183.00000000000000000 0.00000000000000000 1.00000000000000000 0.00000000000000000 0.00000000000000000 
1 0.00000000000000000 7.99999999999999911 0.00000000000000000 0.00000000000000000 1.00000000000000000 0.00000000000000000 
1 0.00000000000000000 7.99999999999999911 0.00000000000000000 0.00000000000000000 1.00000000000000000 0.00000000000000000 
Polygon3D 0
PolygonOnTriangulations 0
Surfaces 14
2 7.99999999999999822 7.99999999999999822 2.00000000000000000 -0.00000000000000000 -0.00000000000000000 -1.00000000000000000 1.00000000000000000 0.00000000000000000 0.00000000000000000 -0.00000000000000000 1.00000000000000000 -0.00000000000000000 7.99999999999999822
1 0.00000000000000000 7.99999999999999911 2.00000000000000000 -1.00000000000000000 0.00000000000000000 0.00000000000000000 0.00000000000000000 1.00000000000000000 0.00000000000000000 0.00000000000000000 0.00000000000000000 -1.00000000000000000 
1 7.99999999999999822 0.00000000000000000 2.00000000000000000 0.00000000000000000 1.00000000000000000 0.00000000000000000 1.00000000000000000 0.00000000000000000 0.00000000000000000 0.00000000000000000 0.00000000000000000 -1.00000000000000000 
1 145.00000000000005684 52.49461227738147784 2.00000000000000000 0.00000000000000000 0.00000000000000000 1.00000000000000000 1.00000000000000000 0.00000000000000000 -0.00000000000000000 -0.00000000000000000 1.00000000000000000 0.00000000000000000 
1 145.00000000000005684 52.49461227738147784 2.00000000000000000 0.00000000000000000 0.00000000000000000 1.00000000000000000 1.00000000000000000 0.00000000000000000 -0.00000000000000000 -0.00000000000000000 1.00000000000000000 0.00000000000000000 
2 282.00000000000000000 8.00000000000001421 2.00000000000000000 -0.00000000000000000 -0.00000000000000000 -1.00000000000000000 1.00000000000000000 0.00000000000000000 0.00000000000000000 -0.00000000000000000 1.00000000000000000 -0.00000000000000000 8.00000000000001421
1 290.00000000000000000 183.00000000000000000 2.00000000000000000 1.00000000000000000 0.00000000000000000 -0.00000000000000000 0.00000000000000000 -1.00000000000000000 0.00000000000000000 0.00000000000000000 -0.00000000000000000 -1.00000000000000000 
1 288.39999999999997726 183.00000000000000000 2.00000000000000000 0.00000000000000000 1.00000000000000000 0.00000000000000000 1.00000000000000000 0.00000000000000000 0.00000000000000000 0.00000000000000000 0.00000000000000000 -1.00000000000000000 
1 288.39999999999997726 7.99999999999999556 2.00000000000000000 -1.00000000000000000 0.00000000000000000 0.00000000000000000 0.00000000000000000 1.00000000000000000 0.00000000000000000 0.00000000000000000 0.00000000000000000 -1.00000000000000000 
2 282.00000000000000000 8.00000000000001421 2.00000000000000000 -0.00000000000000000 -0.00000000000000000 -1.00000000000000000 1.00000000000000000 0.00000000000000000 0.00000000000000000 -0.00000000000000000 1.00000000000000000 -0.00000000000000000 6.40000000000000568
1 282.00000000000000000 1.60000000000000897 2.00000000000000000 0.00000000000000000 -1.00000000000000000 0.00000000000000000 -1.00000000000000000 0.00000000000000000 0.00000000000000000 -0.00000000000000000 -0.00000000000000000 -1.00000000000000000 
2 7.99999999999999822 7.99999999999999822 2.00000000000000000 -0.00000000000000000 -0.00000000000000000 -1.00000000000000000 1.00000000000000000 0.00000000000000000 0.00000000000000000 -0.00000000000000000 1.00000000000000000 -0.00000000000000000 6.39999999999998970
1 1.60000000000000875 183.00000000000000000 2.00000000000000000 1.00000000000000000 0.00000000000000000 -0.00000000000000000 0.00000000000000000 -1.00000000000000000 0.00000000000000000 0.00000000000000000 -0.00000000000000000 -1.00000000000000000 
1 0.00000000000000000 183.00000000000000000 2.00000000000000000 0.00000000000000000 1.00000000000000000 0.00000000000000000 1.00000000000000000 0.00000000000000000 0.00000000000000000 0.00000000000000000 0.00000000000000000 -1.00000000000000000 
Triangulations 0

TShapes 90
Ve
0.000000100001000
0.000000000000000 7.999999999999999 2.000000000000000
0 0

0101101
*
Ve
0.000000100001000
0.000000000000000 7.999999999999999 9.500000000000000
0 0

0101101
*
Ed
 0.000000100000000 1 1 0
1  1 0 0.000000000000000 7.500000000000000
2  1 1 0 0.000000000000000 7.500000000000000
2  2 2 0 0.000000000000000 7.500000000000000
4 G1 1 0 2 0
0

0101000
+90 0 -89 0 *
Ve
0.000000100000001
7.999999999999997 0.000000000000000 2.000000000000000
0 0

0101101
*
Ve
0.000000100000001
7.999999999999997 0.000000000000000 9.500000000000000
0 0

0101101
*
Ed
 0.000000100000001 1 1 0
1  2 0 0.000000000000000 7.500000000000000
2  3 1 0 0.000000000000000 7.500000000000000
2  4 3 0 0.000000000000000 7.500000000000000
4 G1 1 0 3 0
0

0101000
+87 0 -86 0 *
Ed
 0.000000100000000 1 1 0
1  3 0 3.141592653589793 4.712388980384690
2  5 1 4 3.141592653589793 4.712388980384690
2  6 4 5 3.141592653589793 4.712388980384690
0

0101000
+90 4 -87 4 *
Ed
 0.000000100000000 1 1 0
1  4 0 3.141592653589793 4.712388980384690
2  7 1 8 3.141592653589793 4.712388980384690
2  8 5 5 3.141592653589793 4.712388980384690
0

0101000
+89 8 -86 8 *
Wi

0101100
+88 0 -85 0 -84 3 +83 7 *
Fa
0  0.000000100000000 1 0

0111000
+82 0 *
Ve
0.000000100000000
282.000000000000000 0.000000000000000 2.000000000000000
0 0

0101101
*
Ve
0.000000100000000
282.000000000000000 0.000000000000000 9.500000000000000
0 0

0101101
*
Ed
 0.000000100000000 1 1 0
1  5 0 0.000000000000000 7.500000000000000
2  9 3 0 0.000000000000000 7.500000000000000
2  10 6 0 0.000000000000000 7.500000000000000
4 G1 3 0 6 0
0

0101000
+80 0 -79 0 *
Ed
 0.000000100000000 1 1 0
1  6 0 0.000000000000000 274.000000000000000
2  11 3 4 0.000000000000000 274.000000000000000
2  12 4 5 0.000000000000000 274.000000000000000
0

0101000
+87 4 -80 4 *
Ed
 0.000000100000000 1 1 0
1  7 0 0.000000000000000 274.000000000000000
2  13 3 8 0.000000000000000 274.000000000000000
2  14 5 5 0.000000000000000 274.000000000000000
0

0101000
+86 8 -79 8 *
Wi

0101100
+85 0 -78 0 -77 3 +76 7 *
Fa
0  0.000000100000000 3 0

0111000
+75 0 *
Ve
0.000000100000001
290.000000000000000 7.999999999999999 2.000000000000000
0 0

0101101
*
Ve
0.000000100000001
290.000000000000000 7.999999999999999 9.500000000000000
0 0

0101101
*
Ed
 0.000000100000001 1 1 0
1  8 0 0.000000000000000 7.500000000000000
2  15 6 0 0.000000000000000 7.500000000000000
2  16 7 0 0.000000000000000 7.500000000000000
4 G1 6 0 7 0
0

0101000
+73 0 -72 0 *
Ed
 0.000000100000000 1 1 0
1  9 0 4.712388980384690 6.283185307179584
2  17 6 4 4.712388980384690 6.283185307179584
2  18 4 5 4.712388980384690 6.283185307179584
0

0101000
+80 4 -73 4 *
Ed
 0.000000100000000 1 1 0
1  10 0 4.712388980384690 6.283185307179584
2  19 6 8 4.712388980384690 6.283185307179584
2  20 5 5 4.712388980384690 6.283185307179584
0

0101000
+79 8 -72 8 *
Wi

0101100
+78 0 -71 0 -70 3 +69 7 *
Fa
0  0.000000100000000 6 0

0111000
+68 0 *
Ve
0.000000100000000
290.000000000000000 183.000000000000000 2.000000000000000
0 0

0101101
*
Ve
0.000000100000000
290.000000000000000 183.000000000000000 9.500000000000000
0 0

0101101
*
Ed
 0.000000100000000 1 1 0
1  11 0 0.000000000000000 7.500000000000000
2  21 7 0 0.000000000000000 7.500000000000000
2  22 8 0 0.000000000000000 7.500000000000000
0

0101000
+66 0 -65 0 *
Ed
 0.000000100000000 1 1 0
1  12 0 0.000000000000000 175.000000000000000
2  23 7 4 0.000000000000000 175.000000000000000
2  24 4 5 0.000000000000000 175.000000000000000
0

0101000
+66 4 -73 4 *
Ed
 0.000000100000000 1 1 0
1  13 0 0.000000000000000 175.000000000000000
2  25 7 8 0.000000000000000 175.000000000000000
2  26 5 5 0.000000000000000 175.000000000000000
0

0101000
+65 8 -72 8 *
Wi

0101100
+64 0 -71 0 -63 3 +62 7 *
Fa
0  0.000000100000000 7 0

0111000
+61 0 *
Ve
0.000000100005000
288.399999999999977 183.000000000000000 2.000000000000000
0 0

0101101
*
Ve
0.000000100005000
288.399999999999977 183.000000000000000 9.500000000000000
0 0

0101101
*
Ed
 0.000000100000000 1 1 0
1  14 0 0.000000000000000 7.500000000000000
2  27 8 0 0.000000000000000 7.500000000000000
2  28 9 0 0.000000000000000 7.500000000000000
0

0101000
+59 0 -58 0 *
Ed
 0.000000100000000 1 1 0
1  15 0 0.000000000000000 1.600000000000023
2  29 8 4 0.000000000000000 1.600000000000023
2  30 4 5 0.000000000000000 1.600000000000023
0

0101000
+59 4 -66 4 *
Ed
 0.000000100000000 1 1 0
1  16 0 0.000000000000000 1.600000000000023
2  31 8 8 0.000000000000000 1.600000000000023
2  32 5 5 0.000000000000000 1.600000000000023
0

0101000
+58 8 -65 8 *
Wi

0101100
+57 0 -64 0 -56 3 +55 7 *
Fa
0  0.000000100000000 8 0

0111000
+54 0 *
Ve
0.000000100000000
288.399999999999977 7.999999999999996 2.000000000000000
0 0

0101101
*
Ve
0.000000100000000
288.399999999999977 7.999999999999996 9.500000000000000
0 0

0101101
*
Ed
 0.000000100000000 1 1 0
1  17 0 0.000000000000000 7.500000000000000
2  33 9 0 0.000000000000000 7.500000000000000
2  34 10 0 0.000000000000000 7.500000000000000
4 G1 9 0 10 0
0

0101000
+52 0 -51 0 *
Ed
 0.000000100000000 1 1 0
1  18 0 0.000000000000000 175.000000000000000
2  35 9 4 0.000000000000000 175.000000000000000
2  36 4 5 0.000000000000000 175.000000000000000
0

0101000
+52 4 -59 4 *
Ed
 0.000000100000000 1 1 0
1  19 0 0.000000000000000 175.000000000000000
2  37 9 8 0.000000000000000 175.000000000000000
2  38 5 5 0.000000000000000 175.000000000000000
0

0101000
+51 8 -58 8 *
Wi

0101100
+50 0 -57 0 -49 3 +48 7 *
Fa
0  0.000000100000000 9 0

0111000
+47 0 *
Ve
0.000000100000000
282.000000000000000 1.600000000000009 2.000000000000000
0 0

0101101
*
Ve
0.000000100000000
282.000000000000000 1.600000000000009 9.500000000000000
0 0

0101101
*
Ed
 0.000000100000000 1 1 0
1  20 0 0.000000000000000 7.500000000000000
2  39 10 0 0.000000000000000 7.500000000000000
2  40 11 0 0.000000000000000 7.500000000000000
4 G1 10 0 11 0
0

0101000
+45 0 -44 0 *
Ed
 0.000000100000000 1 1 0
1  21 0 4.712388980384689 6.283185307179584
2  41 10 4 4.712388980384689 6.283185307179584
2  42 4 5 4.712388980384689 6.283185307179584
0

0101000
+45 4 -52 4 *
Ed
 0.000000100000000 1 1 0
1  22 0 4.712388980384689 6.283185307179584
2  43 10 8 4.712388980384689 6.283185307179584
2  44 5 5 4.712388980384689 6.283185307179584
0

0101000
+44 8 -51 8 *
Wi

0101100
+43 0 -50 0 -42 3 +41 7 *
Fa
0  0.000000100000000 10 0

0111000
+40 0 *
Ve
0.000000100000001
7.999999999999998 1.600000000000009 2.000000000000000
0 0

0101101
*
Ve
0.000000100000001
7.999999999999998 1.600000000000009 9.500000000000000
0 0

0101101
*
Ed
 0.000000100000001 1 1 0
1  23 0 0.000000000000000 7.500000000000000
2  45 11 0 0.000000000000000 7.500000000000000
2  46 12 0 0.000000000000000 7.500000000000000
4 G1 11 0 12 0
0

0101000
+38 0 -37 0 *
Ed
 0.000000100000000 1 1 0
1  24 0 0.000000000000000 274.000000000000000
2  47 11 4 0.000000000000000 274.000000000000000
2  48 4 5 0.000000000000000 274.000000000000000
0

0101000
+45 4 -38 4 *
Ed
 0.000000100000000 1 1 0
1  25 0 0.000000000000000 274.000000000000000
2  49 11 8 0.000000000000000 274.000000000000000
2  50 5 5 0.000000000000000 274.000000000000000
0

0101000
+44 8 -37 8 *
Wi

0101100
+43 0 -36 0 -35 3 +34 7 *
Fa
0  0.000000100000000 11 0

0111000
+33 0 *
Ve
0.000000100000000
1.600000000000009 8.000000000000000 2.000000000000000
0 0

0101101
*
Ve
0.000000100000000
1.600000000000009 8.000000000000000 9.500000000000000
0 0

0101101
*
Ed
 0.000000100000000 1 1 0
1  26 0 0.000000000000000 7.500000000000000
2  51 12 0 0.000000000000000 7.500000000000000
2  52 13 0 0.000000000000000 7.500000000000000
4 G1 12 0 13 0
0

0101000
+31 0 -30 0 *
Ed
 0.000000100000000 1 1 0
1  27 0 3.141592653589793 4.712388980384690
2  53 12 4 3.141592653589793 4.712388980384690
2  54 4 5 3.141592653589793 4.712388980384690
0

0101000
+31 4 -38 4 *
Ed
 0.000000100000000 1 1 0
1  28 0 3.141592653589793 4.712388980384690
2  55 12 8 3.141592653589793 4.712388980384690
2  56 5 5 3.141592653589793 4.712388980384690
0

0101000
+30 8 -37 8 *
Wi

0101100
+29 0 -36 0 -28 3 +27 7 *
Fa
0  0.000000100000000 12 0

0111000
+26 0 *
Ve
0.000000100005000
1.600000000000009 183.000000000000000 2.000000000000000
0 0

0101101
*
Ve
0.000000100005000
1.600000000000009 183.000000000000000 9.500000000000000
0 0

0101101
*
Ed
 0.000000100000000 1 1 0
1  29 0 0.000000000000000 7.500000000000000
2  57 13 0 0.000000000000000 7.500000000000000
2  58 14 0 0.000000000000000 7.500000000000000
0

0101000
+24 0 -23 0 *
Ed
 0.000000100000000 1 1 0
1  30 0 0.000000000000000 175.000000000000000
2  59 13 4 0.000000000000000 175.000000000000000
2  60 4 5 0.000000000000000 175.000000000000000
0

0101000
+24 4 -31 4 *
Ed
 0.000000100000000 1 1 0
1  31 0 0.000000000000000 175.000000000000000
2  61 13 8 0.000000000000000 175.000000000000000
2  62 5 5 0.000000000000000 175.000000000000000
0

0101000
+23 8 -30 8 *
Wi

0101100
+22 0 -29 0 -21 3 +20 7 *
Fa
0  0.000000100000000 13 0

0111000
+19 0 *
Ve
0.000000100000000
0.000000000000000 183.000000000000000 2.000000000000000
0 0

0101101
*
Ve
0.000000100000000
0.000000000000000 183.000000000000000 9.500000000000000
0 0

0101101
*
Ed
 0.000000100000000 1 1 0
1  32 0 0.000000000000000 7.500000000000000
2  63 14 0 0.000000000000000 7.500000000000000
2  64 2 0 0.000000000000000 7.500000000000000
0

0101000
+17 0 -16 0 *
Ed
 0.000000100000000 1 1 0
1  33 0 0.000000000000000 1.600000000000009
2  65 14 4 0.000000000000000 1.600000000000009
2  66 4 5 0.000000000000000 1.600000000000009
0

0101000
+17 4 -24 4 *
Ed
 0.000000100000000 1 1 0
1  34 0 0.000000000000000 1.600000000000009
2  67 14 8 0.000000000000000 1.600000000000009
2  68 5 5 0.000000000000000 1.600000000000009
0

0101000
+16 8 -23 8 *
Wi

0101100
+15 0 -22 0 -14 3 +13 7 *
Fa
0  0.000000100000000 14 0

0111000
+12 0 *
Ed
 0.000000100000000 1 1 0
1  35 0 0.000000000000000 175.000000000000000
2  69 2 4 0.000000000000000 175.000000000000000
2  70 4 5 0.000000000000000 175.000000000000000
0

0101000
+90 4 -17 4 *
Ed
 0.000000100000000 1 1 0
1  36 0 0.000000000000000 175.000000000000000
2  71 2 8 0.000000000000000 175.000000000000000
2  72 5 5 0.000000000000000 175.000000000000000
0

0101000
+89 8 -16 8 *
Wi

0101100
+88 0 -15 0 -10 3 +9 7 *
Fa
0  0.000000100000000 2 0

0111000
+8 0 *
Wi

0101100
+84 0 +77 0 +70 0 -63 0 -56 0 -49 0 -42 0 +35 0 -28 0 -21 0 
-14 0 -10 0 *
Fa
0  0.000000100000000 4 0

0111000
+6 1 *
Wi

0101100
+83 0 +76 0 +69 0 -62 0 -55 0 -48 0 -41 0 +34 0 -27 0 -20 0 
-13 0 -9 0 *
Fa
0  0.000000100000000 5 0

0111000
+4 1 *
Sh

0101100
+81 0 +74 0 +67 0 -60 0 -53 0 -46 0 -39 0 +32 0 -25 0 -18 0 
-11 0 -7 0 +5 9 -3 10 *
So

1100000
-2 0 *

+1 0 