
CASCADE Topology V1, (c) Matra-Datavision
Locations 11
1
1.000000000000000 0.000000000000000 0.000000000000000 0.000000000000000 
0.000000000000000 1.000000000000000 0.000000000000000 0.000000000000000 
0.000000000000000 0.000000000000000 1.000000000000000 8.000000000000000 
1
1.000000000000000 0.000000000000000 0.000000000000000 0.000000000000000 
0.000000000000000 1.000000000000000 0.000000000000000 0.000000000000000 
0.000000000000000 0.000000000000000 1.000000000000000 0.000000000000000 
1
1.000000000000000 0.000000000000000 0.000000000000000 -0.000000000000000 
0.000000000000000 1.000000000000000 0.000000000000000 -0.000000000000000 
0.000000000000000 0.000000000000000 1.000000000000000 -1.000000000000000 
2  1 1 2 -1 3 1 0
2  3 -1 2 1 1 -1 0
2  1 -1 0
1
1.000000000000000 0.000000000000000 0.000000000000000 0.000000000000000 
0.000000000000000 1.000000000000000 0.000000000000000 0.000000000000000 
0.000000000000000 0.000000000000000 1.000000000000000 3.000000000000000 
2  1 1 2 -1 3 1 7 1 0
2  7 -1 3 -1 2 1 1 -1 0
2  2 -1 3 1 0
2  2 -1 3 1 7 1 0
Curve2ds 24
1 0.00000000000000000 0.00000000000000000 0.00000000000000000 -1.00000000000000000 
1 6.28318530717958623 0.00000000000000000 0.00000000000000000 -1.00000000000000000 
1 0.00000000000000000 0.00000000000000000 1.00000000000000000 0.00000000000000000 
2 0.00000000000000000 0.00000000000000000 1.00000000000000000 0.00000000000000000 -0.00000000000000000 1.00000000000000000 3.50000000000000000
1 0.00000000000000000 -3.00000000000000000 1.00000000000000000 0.00000000000000000 
2 0.00000000000000000 0.00000000000000000 1.00000000000000000 0.00000000000000000 -0.00000000000000000 1.00000000000000000 3.50000000000000000
1 0.00000000000000000 0.00000000000000000 0.00000000000000000 -1.00000000000000000 
1 3.89711431702998112 0.00000000000000000 0.00000000000000000 -1.00000000000000000 
1 3.89711431703000244 0.00000000000000000 0.00000000000000000 -1.00000000000000000 
1 0.00000000000000000 0.00000000000000000 0.00000000000000000 -1.00000000000000000 
1 0.00000000000000000 0.00000000000000000 1.00000000000000000 0.00000000000000000 
1 -1.94855715851500122 -1.12500000000000000 1.00000000000000000 0.00000000000000000 
1 0.00000000000000000 -3.00000000000000000 1.00000000000000000 0.00000000000000000 
1 -1.94855715851500122 -1.12500000000000000 1.00000000000000000 0.00000000000000000 
1 0.00000000000000000 0.00000000000000000 0.00000000000000000 -1.00000000000000000 
1 3.89711431702998112 0.00000000000000000 0.00000000000000000 -1.00000000000000000 
1 0.00000000000000000 0.00000000000000000 1.00000000000000000 0.00000000000000000 
1 0.00000000000000000 2.25000000000000000 -0.50000000000000278 -0.86602540378443704 
1 0.00000000000000000 -3.00000000000000000 1.00000000000000000 0.00000000000000000 
1 0.00000000000000000 2.25000000000000000 -0.50000000000000278 -0.86602540378443704 
1 0.00000000000000000 0.00000000000000000 1.00000000000000000 0.00000000000000000 
1 1.94855715851500122 -1.12500000000000000 -0.50000000000000278 0.86602540378443704 
1 0.00000000000000000 -3.00000000000000000 1.00000000000000000 0.00000000000000000 
1 1.94855715851500122 -1.12500000000000000 -0.50000000000000278 0.86602540378443704 
Curves 12
1 188.50000000000000000 188.00000000000000000 7.00000000000000000 0.00000000000000000 0.00000000000000000 1.00000000000000000 
2 185.00000000000000000 188.00000000000000000 0.00000000000000000 0.00000000000000000 0.00000000000000000 1.00000000000000000 1.00000000000000000 0.00000000000000000 -0.00000000000000000 -0.00000000000000000 1.00000000000000000 0.00000000000000000 3.50000000000000000
2 185.00000000000000000 188.00000000000000000 0.00000000000000000 0.00000000000000000 0.00000000000000000 1.00000000000000000 1.00000000000000000 0.00000000000000000 -0.00000000000000000 -0.00000000000000000 1.00000000000000000 0.00000000000000000 3.50000000000000000
1 183.05144284148499878 186.87500000000000000 7.00000000000000000 0.00000000000000000 0.00000000000000000 1.00000000000000000 
1 186.94855715851500122 186.87500000000000000 7.00000000000000000 0.00000000000000000 0.00000000000000000 1.00000000000000000 
1 183.05144284148499878 186.87500000000000000 0.00000000000000000 1.00000000000000000 0.00000000000000000 0.00000000000000000 
1 183.05144284148499878 186.87500000000000000 0.00000000000000000 1.00000000000000000 0.00000000000000000 0.00000000000000000 
1 185.00000000000000000 190.25000000000000000 7.00000000000000000 0.00000000000000000 0.00000000000000000 1.00000000000000000 
1 185.00000000000000000 190.25000000000000000 0.00000000000000000 -0.50000000000000278 -0.86602540378443704 0.00000000000000000 
1 185.00000000000000000 190.25000000000000000 0.00000000000000000 -0.50000000000000278 -0.86602540378443704 0.00000000000000000 
1 186.94855715851500122 186.87500000000000000 0.00000000000000000 -0.50000000000000278 0.86602540378443704 0.00000000000000000 
1 186.94855715851500122 186.87500000000000000 0.00000000000000000 -0.50000000000000278 0.86602540378443704 0.00000000000000000 
Polygon3D 0
PolygonOnTriangulations 0
Surfaces 6
2 185.00000000000000000 188.00000000000000000 7.00000000000000000 -0.00000000000000000 -0.00000000000000000 -1.00000000000000000 1.00000000000000000 0.00000000000000000 0.00000000000000000 -0.00000000000000000 1.00000000000000000 -0.00000000000000000 3.50000000000000000
1 185.00000000000000000 188.00000000000000000 8.00000000000000000 0.00000000000000000 0.00000000000000000 1.00000000000000000 1.00000000000000000 0.00000000000000000 -0.00000000000000000 -0.00000000000000000 1.00000000000000000 0.00000000000000000 
1 185.00000000000000000 188.00000000000000000 8.00000000000000000 0.00000000000000000 0.00000000000000000 1.00000000000000000 1.00000000000000000 0.00000000000000000 -0.00000000000000000 -0.00000000000000000 1.00000000000000000 0.00000000000000000 
1 183.05144284148499878 186.87500000000000000 7.00000000000000000 0.00000000000000000 1.00000000000000000 0.00000000000000000 1.00000000000000000 0.00000000000000000 0.00000000000000000 0.00000000000000000 0.00000000000000000 -1.00000000000000000 
1 185.00000000000000000 190.25000000000000000 7.00000000000000000 0.86602540378443704 -0.50000000000000278 0.00000000000000000 -0.50000000000000278 -0.86602540378443704 0.00000000000000000 0.00000000000000000 -0.00000000000000000 -1.00000000000000000 
1 186.94855715851500122 186.87500000000000000 7.00000000000000000 -0.86602540378443704 -0.50000000000000278 0.00000000000000000 -0.50000000000000278 0.86602540378443704 0.00000000000000000 -0.00000000000000000 0.00000000000000000 -1.00000000000000000 
Triangulations 0

TShapes 36
Ve
0.000000100005000
188.500000000000000 188.000000000000000 7.000000000000000
0 0

0101101
*
Ve
0.000000100005000
188.500000000000000 188.000000000000000 10.000000000000000
0 0

0101101
*
Ed
 0.000000100005000 1 1 0
1  1 0 0.000000000000000 3.000000000000000
3  1 2CN 1 0 0.000000000000000 3.000000000000000
0

0101000
+36 0 -35 0 *
Ed
 0.000000100005000 1 1 0
1  2 0 0.000000000000000 6.283185307179586
2  3 1 5 0.000000000000000 6.283185307179586
2  4 2 6 0.000000000000000 6.283185307179586
0

0101000
+36 5 -36 5 *
Ed
 0.000000100005000 1 1 0
1  3 0 0.000000000000000 6.283185307179586
2  5 1 9 0.000000000000000 6.283185307179586
2  6 3 6 0.000000000000000 6.283185307179586
0

0101000
+35 9 -35 9 *
Wi

0101100
+34 0 -34 0 -33 4 +32 8 *
Fa
0  0.000000100005000 1 0

0111000
+31 0 *
Ve
0.000000100006008
183.051442841484999 186.875000000000000 7.000000000000000
0 0

0101101
*
Ve
0.000000100006008
183.051442841484999 186.875000000000000 10.000000000000000
0 0

0101101
*
Ed
 0.000000100005000 1 1 0
1  4 0 0.000000000000000 3.000000000000000
2  7 4 0 0.000000000000000 3.000000000000000
2  8 5 0 0.000000000000000 3.000000000000000
0

0101000
+29 0 -28 0 *
Ve
0.000000100006008
186.948557158515001 186.875000000000000 7.000000000000000
0 0

0101101
*
Ve
0.000000100006008
186.948557158515001 186.875000000000000 10.000000000000000
0 0

0101101
*
Ed
 0.000000100005000 1 1 0
1  5 0 0.000000000000000 3.000000000000000
2  9 4 0 0.000000000000000 3.000000000000000
2  10 6 0 0.000000000000000 3.000000000000000
0

0101000
+26 0 -25 0 *
Ed
 0.000000100005000 1 1 0
1  6 0 0.000000000000000 3.897114317030002
2  11 4 5 0.000000000000000 3.897114317030002
2  12 2 6 0.000000000000000 3.897114317030002
0

0101000
+29 5 -26 5 *
Ed
 0.000000100005000 1 1 0
1  7 0 0.000000000000000 3.897114317030002
2  13 4 9 0.000000000000000 3.897114317030002
2  14 3 6 0.000000000000000 3.897114317030002
0

0101000
+28 9 -25 9 *
Wi

0101100
+27 0 -24 0 -23 4 +22 8 *
Fa
0  0.000000100005000 4 0

0111000
+21 0 *
Ve
0.000000100005000
185.000000000000000 190.250000000000000 7.000000000000000
0 0

0101101
*
Ve
0.000000100005000
185.000000000000000 190.250000000000000 10.000000000000000
0 0

0101101
*
Ed
 0.000000100005000 1 1 0
1  8 0 0.000000000000000 3.000000000000000
2  15 5 0 0.000000000000000 3.000000000000000
2  16 6 0 0.000000000000000 3.000000000000000
0

0101000
+19 0 -18 0 *
Ed
 0.000000100005000 1 1 0
1  9 0 0.000000000000000 3.897114317029981
2  17 5 5 0.000000000000000 3.897114317029981
2  18 2 6 0.000000000000000 3.897114317029981
0

0101000
+19 5 -29 5 *
Ed
 0.000000100005000 1 1 0
1  10 0 0.000000000000000 3.897114317029981
2  19 5 9 0.000000000000000 3.897114317029981
2  20 3 6 0.000000000000000 3.897114317029981
0

0101000
+18 9 -28 9 *
Wi

0101100
+17 0 -27 0 -16 4 +15 8 *
Fa
0  0.000000100005000 5 0

0111000
+14 0 *
Ed
 0.000000100005000 1 1 0
1  11 0 0.000000000000000 3.897114317029981
2  21 6 5 0.000000000000000 3.897114317029981
2  22 2 6 0.000000000000000 3.897114317029981
0

0101000
+26 5 -19 5 *
Ed
 0.000000100005000 1 1 0
1  12 0 0.000000000000000 3.897114317029981
2  23 6 9 0.000000000000000 3.897114317029981
2  24 3 6 0.000000000000000 3.897114317029981
0

0101000
+25 9 -18 9 *
Wi

0101100
+24 0 -17 0 -12 4 +11 8 *
Fa
0  0.000000100005000 6 0

0111000
+10 0 *
Wi

0101100
+33 1 *
Wi

0101100
-23 1 -16 1 -12 1 *
Fa
0  0.000000100000000 2 0

0111000
+8 0 +7 0 *
Wi

0101100
+32 1 *
Wi

0101100
-22 1 -15 1 -11 1 *
Fa
0  0.000000100000000 3 0

0111000
+5 0 +4 0 *
Sh

0101100
+30 0 -20 0 -13 0 -9 0 +6 10 -3 11 *
So

1100000
-2 0 *

+1 0 