
CASCADE Topology V1, (c) Matra-Datavision
Locations 10
1
1.000000000000000 0.000000000000000 0.000000000000000 0.000000000000000 
0.000000000000000 1.000000000000000 0.000000000000000 0.000000000000000 
0.000000000000000 0.000000000000000 1.000000000000000 8.000000000000000 
1
1.000000000000000 0.000000000000000 0.000000000000000 0.000000000000000 
0.000000000000000 1.000000000000000 0.000000000000000 0.000000000000000 
0.000000000000000 0.000000000000000 1.000000000000000 0.000000000000000 
2  1 1 2 -1 0
2  2 1 1 -1 0
2  1 -1 0
1
1.000000000000000 0.000000000000000 0.000000000000000 0.000000000000000 
0.000000000000000 1.000000000000000 0.000000000000000 0.000000000000000 
0.000000000000000 0.000000000000000 1.000000000000000 0.500000000000000 
2  1 1 2 -1 6 1 0
2  6 -1 2 1 1 -1 0
2  2 -1 0
2  2 -1 6 1 0
Curve2ds 24
1 0.00000000000000000 0.00000000000000000 0.00000000000000000 -1.00000000000000000 
1 6.28318530717958623 0.00000000000000000 0.00000000000000000 -1.00000000000000000 
1 0.00000000000000000 0.00000000000000000 1.00000000000000000 0.00000000000000000 
2 0.00000000000000000 0.00000000000000000 1.00000000000000000 0.00000000000000000 -0.00000000000000000 1.00000000000000000 3.50000000000000000
1 0.00000000000000000 -0.50000000000000000 1.00000000000000000 0.00000000000000000 
2 0.00000000000000000 0.00000000000000000 1.00000000000000000 0.00000000000000000 -0.00000000000000000 1.00000000000000000 3.50000000000000000
1 0.00000000000000000 0.00000000000000000 0.00000000000000000 -1.00000000000000000 
1 3.89711431709671441 0.00000000000000000 0.00000000000000000 -1.00000000000000000 
1 3.89711431708491318 0.00000000000000000 0.00000000000000000 -1.00000000000000000 
1 0.00000000000000000 0.00000000000000000 0.00000000000000000 -1.00000000000000000 
1 0.00000000000000000 0.00000000000000000 1.00000000000000000 0.00000000000000000 
1 -1.94855715856992617 -1.12499999998621547 1.00000000000000000 -0.00000000000353711 
1 0.00000000000000000 -0.50000000000000000 1.00000000000000000 0.00000000000000000 
1 -1.94855715856992617 -1.12499999998621547 1.00000000000000000 -0.00000000000353711 
1 0.00000000000000000 0.00000000000000000 0.00000000000000000 -1.00000000000000000 
1 3.89711431703444244 0.00000000000000000 0.00000000000000000 -1.00000000000000000 
1 0.00000000000000000 0.00000000000000000 1.00000000000000000 0.00000000000000000 
1 0.00000000004673950 2.25000000003214495 -0.50000000001752809 -0.86602540377431891 
1 0.00000000000000000 -0.50000000000000000 1.00000000000000000 0.00000000000000000 
1 0.00000000004673950 2.25000000003214495 -0.50000000001752809 -0.86602540377431891 
1 0.00000000000000000 0.00000000000000000 1.00000000000000000 0.00000000000000000 
1 1.94855715851498701 -1.12500000000000000 -0.49999999998743333 0.86602540379169402 
1 0.00000000000000000 -0.50000000000000000 1.00000000000000000 0.00000000000000000 
1 1.94855715851498701 -1.12500000000000000 -0.49999999998743333 0.86602540379169402 
Curves 12
1 108.50000000000000000 188.00000000000000000 8.00000000000000000 0.00000000000000000 0.00000000000000000 1.00000000000000000 
2 105.00000000000000000 188.00000000000000000 0.00000000000000000 0.00000000000000000 0.00000000000000000 1.00000000000000000 1.00000000000000000 0.00000000000000000 -0.00000000000000000 -0.00000000000000000 1.00000000000000000 0.00000000000000000 3.50000000000000000
2 105.00000000000000000 188.00000000000000000 0.00000000000000000 0.00000000000000000 0.00000000000000000 1.00000000000000000 1.00000000000000000 0.00000000000000000 -0.00000000000000000 -0.00000000000000000 1.00000000000000000 0.00000000000000000 3.50000000000000000
1 103.05144284143007383 186.87500000001378453 8.00000000000000000 0.00000000000000000 0.00000000000000000 1.00000000000000000 
1 106.94855715851498701 186.87500000000000000 8.00000000000000000 0.00000000000000000 0.00000000000000000 1.00000000000000000 
1 103.05144284143007383 186.87500000001378453 0.00000000000000000 1.00000000000000000 -0.00000000000353711 0.00000000000000000 
1 103.05144284143007383 186.87500000001378453 0.00000000000000000 1.00000000000000000 -0.00000000000353711 0.00000000000000000 
1 105.00000000004673950 190.25000000003214495 8.00000000000000000 0.00000000000000000 0.00000000000000000 1.00000000000000000 
1 105.00000000004673950 190.25000000003214495 0.00000000000000000 -0.50000000001752809 -0.86602540377431891 0.00000000000000000 
1 105.00000000004673950 190.25000000003214495 0.00000000000000000 -0.50000000001752809 -0.86602540377431891 0.00000000000000000 
1 106.94855715851498701 186.87500000000000000 0.00000000000000000 -0.49999999998743333 0.86602540379169402 0.00000000000000000 
1 106.94855715851498701 186.87500000000000000 0.00000000000000000 -0.49999999998743333 0.86602540379169402 0.00000000000000000 
Polygon3D 0
PolygonOnTriangulations 0
Surfaces 6
2 105.00000000000000000 188.00000000000000000 8.00000000000000000 -0.00000000000000000 -0.00000000000000000 -1.00000000000000000 1.00000000000000000 0.00000000000000000 0.00000000000000000 -0.00000000000000000 1.00000000000000000 -0.00000000000000000 3.50000000000000000
1 105.00000000000000000 188.00000000000000000 8.00000000000000000 0.00000000000000000 0.00000000000000000 1.00000000000000000 1.00000000000000000 0.00000000000000000 -0.00000000000000000 -0.00000000000000000 1.00000000000000000 0.00000000000000000 
1 105.00000000000000000 188.00000000000000000 8.00000000000000000 0.00000000000000000 0.00000000000000000 1.00000000000000000 1.00000000000000000 0.00000000000000000 -0.00000000000000000 -0.00000000000000000 1.00000000000000000 0.00000000000000000 
1 103.05144284143007383 186.87500000001378453 8.00000000000000000 0.00000000000353711 1.00000000000000000 -0.00000000000000000 1.00000000000000000 -0.00000000000353711 0.00000000000000000 0.00000000000000000 -0.00000000000000000 -1.00000000000000000 
1 105.00000000004673950 190.25000000003214495 8.00000000000000000 0.86602540377431891 -0.50000000001752809 0.00000000000000000 -0.50000000001752809 -0.86602540377431891 0.00000000000000000 0.00000000000000000 -0.00000000000000000 -1.00000000000000000 
1 106.94855715851498701 186.87500000000000000 8.00000000000000000 -0.86602540379169402 -0.49999999998743333 0.00000000000000000 -0.49999999998743333 0.86602540379169402 0.00000000000000000 -0.00000000000000000 0.00000000000000000 -1.00000000000000000 
Triangulations 0

TShapes 36
Ve
0.000000100005000
108.500000000000000 188.000000000000000 8.000000000000000
0 0

0101101
*
Ve
0.000000100005000
108.500000000000000 188.000000000000000 8.500000000000000
0 0

0101101
*
Ed
 0.000000100005000 1 1 0
1  1 0 0.000000000000000 0.500000000000000
3  1 2CN 1 0 0.000000000000000 0.500000000000000
0

0101000
+36 0 -35 0 *
Ed
 0.000000100005000 1 1 0
1  2 0 0.000000000000000 6.283185307179586
2  3 1 4 0.000000000000000 6.283185307179586
2  4 2 5 0.000000000000000 6.283185307179586
0

0101000
+36 4 -36 4 *
Ed
 0.000000100005000 1 1 0
1  3 0 0.000000000000000 6.283185307179586
2  5 1 8 0.000000000000000 6.283185307179586
2  6 3 5 0.000000000000000 6.283185307179586
0

0101000
+35 8 -35 8 *
Wi

0101100
+34 0 -34 0 -33 3 +32 7 *
Fa
0  0.000000100005000 1 0

0111000
+31 0 *
Ve
0.000000100005000
103.051442841430074 186.875000000013785 8.000000000000000
0 0

0101101
*
Ve
0.000000100005000
103.051442841430074 186.875000000013785 8.500000000000000
0 0

0101101
*
Ed
 0.000000100005000 1 1 0
1  4 0 0.000000000000000 0.500000000000000
2  7 4 0 0.000000000000000 0.500000000000000
2  8 5 0 0.000000000000000 0.500000000000000
0

0101000
+29 0 -28 0 *
Ve
0.000000100005000
106.948557158514987 186.875000000000000 8.000000000000000
0 0

0101101
*
Ve
0.000000100005000
106.948557158514987 186.875000000000000 8.500000000000000
0 0

0101101
*
Ed
 0.000000100005000 1 1 0
1  5 0 0.000000000000000 0.500000000000000
2  9 4 0 0.000000000000000 0.500000000000000
2  10 6 0 0.000000000000000 0.500000000000000
0

0101000
+26 0 -25 0 *
Ed
 0.000000100005000 1 1 0
1  6 0 0.000000000000000 3.897114317084913
2  11 4 4 0.000000000000000 3.897114317084913
2  12 2 5 0.000000000000000 3.897114317084913
0

0101000
+29 4 -26 4 *
Ed
 0.000000100005000 1 1 0
1  7 0 0.000000000000000 3.897114317084913
2  13 4 8 0.000000000000000 3.897114317084913
2  14 3 5 0.000000000000000 3.897114317084913
0

0101000
+28 8 -25 8 *
Wi

0101100
+27 0 -24 0 -23 3 +22 7 *
Fa
0  0.000000100005000 4 0

0111000
+21 0 *
Ve
0.000000100005000
105.000000000046740 190.250000000032145 8.000000000000000
0 0

0101101
*
Ve
0.000000100005000
105.000000000046740 190.250000000032145 8.500000000000000
0 0

0101101
*
Ed
 0.000000100005000 1 1 0
1  8 0 0.000000000000000 0.500000000000000
2  15 5 0 0.000000000000000 0.500000000000000
2  16 6 0 0.000000000000000 0.500000000000000
0

0101000
+19 0 -18 0 *
Ed
 0.000000100005000 1 1 0
1  9 0 0.000000000000000 3.897114317096714
2  17 5 4 0.000000000000000 3.897114317096714
2  18 2 5 0.000000000000000 3.897114317096714
0

0101000
+19 4 -29 4 *
Ed
 0.000000100005000 1 1 0
1  10 0 0.000000000000000 3.897114317096714
2  19 5 8 0.000000000000000 3.897114317096714
2  20 3 5 0.000000000000000 3.897114317096714
0

0101000
+18 8 -28 8 *
Wi

0101100
+17 0 -27 0 -16 3 +15 7 *
Fa
0  0.000000100005000 5 0

0111000
+14 0 *
Ed
 0.000000100005000 1 1 0
1  11 0 0.000000000000000 3.897114317034442
2  21 6 4 0.000000000000000 3.897114317034442
2  22 2 5 0.000000000000000 3.897114317034442
0

0101000
+26 4 -19 4 *
Ed
 0.000000100005000 1 1 0
1  12 0 0.000000000000000 3.897114317034442
2  23 6 8 0.000000000000000 3.897114317034442
2  24 3 5 0.000000000000000 3.897114317034442
0

0101000
+25 8 -18 8 *
Wi

0101100
+24 0 -17 0 -12 3 +11 7 *
Fa
0  0.000000100005000 6 0

0111000
+10 0 *
Wi

0101100
+33 1 *
Wi

0101100
-23 1 -16 1 -12 1 *
Fa
0  0.000000100000000 2 0

0111000
+8 0 +7 0 *
Wi

0101100
+32 1 *
Wi

0101100
-22 1 -15 1 -11 1 *
Fa
0  0.000000100000000 3 0

0111000
+5 0 +4 0 *
Sh

0101100
+30 0 -20 0 -13 0 -9 0 +6 9 -3 10 *
So

1100000
-2 0 *

+1 0 