
CASCADE Topology V1, (c) Matra-Datavision
Locations 10
1
1.000000000000000 0.000000000000000 0.000000000000000 0.000000000000000 
0.000000000000000 1.000000000000000 0.000000000000000 0.000000000000000 
0.000000000000000 0.000000000000000 1.000000000000000 8.000000000000000 
1
1.000000000000000 0.000000000000000 0.000000000000000 0.000000000000000 
0.000000000000000 1.000000000000000 0.000000000000000 0.000000000000000 
0.000000000000000 0.000000000000000 1.000000000000000 0.000000000000000 
2  1 1 2 -1 0
2  2 1 1 -1 0
2  1 -1 0
1
1.000000000000000 0.000000000000000 0.000000000000000 -0.000000000000000 
0.000000000000000 1.000000000000000 0.000000000000000 -0.000000000000000 
0.000000000000000 0.000000000000000 1.000000000000000 -3.000000000000000 
2  1 1 2 -1 6 1 0
2  6 -1 2 1 1 -1 0
2  2 -1 0
2  2 -1 6 1 0
Curve2ds 48
1 0.00000000000000000 0.00000000000000000 0.00000000000000000 -1.00000000000000000 
1 6.28318530717958623 0.00000000000000000 0.00000000000000000 -1.00000000000000000 
1 0.00000000000000000 0.00000000000000000 1.00000000000000000 0.00000000000000000 
2 0.00000000000000000 0.00000000000000000 1.00000000000000000 0.00000000000000000 -0.00000000000000000 1.00000000000000000 3.50000000000000000
1 0.00000000000000000 -3.00000000000000000 1.00000000000000000 0.00000000000000000 
2 0.00000000000000000 0.00000000000000000 1.00000000000000000 0.00000000000000000 -0.00000000000000000 1.00000000000000000 3.50000000000000000
1 0.00000000000000000 0.00000000000000000 0.00000000000000000 -1.00000000000000000 
1 3.89711431702996691 0.00000000000000000 0.00000000000000000 -1.00000000000000000 
1 3.89711431702997402 0.00000000000000000 0.00000000000000000 -1.00000000000000000 
1 0.00000000000000000 0.00000000000000000 0.00000000000000000 -1.00000000000000000 
1 0.00000000000000000 0.00000000000000000 1.00000000000000000 0.00000000000000000 
1 -1.94855715851497280 -1.12500000000000000 1.00000000000000000 0.00000000000000000 
1 0.00000000000000000 -3.00000000000000000 1.00000000000000000 0.00000000000000000 
1 -1.94855715851497280 -1.12500000000000000 1.00000000000000000 0.00000000000000000 
1 0.00000000000000000 0.00000000000000000 0.00000000000000000 -1.00000000000000000 
1 3.89711431702998112 0.00000000000000000 0.00000000000000000 -1.00000000000000000 
1 0.00000000000000000 0.00000000000000000 1.00000000000000000 0.00000000000000000 
1 0.00000000000000000 2.25000000000000000 -0.49999999999999734 -0.86602540378444026 
1 -0.00000000000000000 -3.00000000000000000 1.00000000000000000 0.00000000000000000 
1 0.00000000000000000 2.25000000000000000 -0.49999999999999734 -0.86602540378444026 
1 0.00000000000000000 0.00000000000000000 1.00000000000000000 0.00000000000000000 
1 1.94855715851500122 -1.12500000000000000 -0.50000000000000278 0.86602540378443704 
1 0.00000000000000000 -3.00000000000000000 1.00000000000000000 0.00000000000000000 
1 1.94855715851500122 -1.12500000000000000 -0.50000000000000278 0.86602540378443704 
1 0.00000000000000000 0.00000000000000000 0.00000000000000000 -1.00000000000000000 
1 6.28318530717958623 0.00000000000000000 0.00000000000000000 -1.00000000000000000 
1 0.00000000000000000 0.00000000000000000 1.00000000000000000 0.00000000000000000 
2 0.00000000000000000 0.00000000000000000 1.00000000000000000 0.00000000000000000 -0.00000000000000000 1.00000000000000000 3.50000000000000000
1 0.00000000000000000 -3.00000000000000000 1.00000000000000000 0.00000000000000000 
2 0.00000000000000000 0.00000000000000000 1.00000000000000000 0.00000000000000000 -0.00000000000000000 1.00000000000000000 3.50000000000000000
1 0.00000000000000000 0.00000000000000000 0.00000000000000000 -1.00000000000000000 
1 3.89711431702999134 0.00000000000000000 0.00000000000000000 -1.00000000000000000 
1 3.89711431702997402 0.00000000000000000 0.00000000000000000 -1.00000000000000000 
1 0.00000000000000000 0.00000000000000000 0.00000000000000000 -1.00000000000000000 
1 0.00000000000000000 0.00000000000000000 1.00000000000000000 0.00000000000000000 
1 -1.94855715851498701 -1.12500000000000000 1.00000000000000000 0.00000000000000000 
1 0.00000000000000000 -3.00000000000000000 1.00000000000000000 0.00000000000000000 
1 -1.94855715851498701 -1.12500000000000000 1.00000000000000000 0.00000000000000000 
1 0.00000000000000000 0.00000000000000000 0.00000000000000000 -1.00000000000000000 
1 3.89711431703000555 0.00000000000000000 0.00000000000000000 -1.00000000000000000 
1 0.00000000000000000 0.00000000000000000 1.00000000000000000 0.00000000000000000 
1 -0.00000000000001421 2.25000000000002842 -0.49999999999999412 -0.86602540378444204 
1 -0.00000000000000000 -3.00000000000000000 1.00000000000000000 0.00000000000000000 
1 -0.00000000000001421 2.25000000000002842 -0.49999999999999412 -0.86602540378444204 
1 0.00000000000000000 0.00000000000000000 1.00000000000000000 0.00000000000000000 
1 1.94855715851498701 -1.12500000000000000 -0.49999999999999961 0.86602540378443893 
1 0.00000000000000000 -3.00000000000000000 1.00000000000000000 0.00000000000000000 
1 1.94855715851498701 -1.12500000000000000 -0.49999999999999961 0.86602540378443893 
Curves 24
1 188.50000000000000000 188.00000000000000000 8.00000000000000000 -0.00000000000000000 -0.00000000000000000 -1.00000000000000000 
2 185.00000000000000000 188.00000000000000000 0.00000000000000000 0.00000000000000000 0.00000000000000000 1.00000000000000000 1.00000000000000000 0.00000000000000000 -0.00000000000000000 -0.00000000000000000 1.00000000000000000 0.00000000000000000 3.50000000000000000
2 185.00000000000000000 188.00000000000000000 0.00000000000000000 0.00000000000000000 0.00000000000000000 1.00000000000000000 1.00000000000000000 0.00000000000000000 -0.00000000000000000 -0.00000000000000000 1.00000000000000000 0.00000000000000000 3.50000000000000000
1 183.05144284148502720 186.87500000000000000 8.00000000000000000 -0.00000000000000000 -0.00000000000000000 -1.00000000000000000 
1 186.94855715851500122 186.87500000000000000 8.00000000000000000 -0.00000000000000000 -0.00000000000000000 -1.00000000000000000 
1 183.05144284148502720 186.87500000000000000 0.00000000000000000 1.00000000000000000 0.00000000000000000 0.00000000000000000 
1 183.05144284148502720 186.87500000000000000 0.00000000000000000 1.00000000000000000 0.00000000000000000 0.00000000000000000 
1 185.00000000000000000 190.25000000000000000 8.00000000000000000 -0.00000000000000000 -0.00000000000000000 -1.00000000000000000 
1 185.00000000000000000 190.25000000000000000 0.00000000000000000 -0.49999999999999734 -0.86602540378444026 0.00000000000000000 
1 185.00000000000000000 190.25000000000000000 0.00000000000000000 -0.49999999999999734 -0.86602540378444026 0.00000000000000000 
1 186.94855715851500122 186.87500000000000000 0.00000000000000000 -0.50000000000000278 0.86602540378443704 0.00000000000000000 
1 186.94855715851500122 186.87500000000000000 0.00000000000000000 -0.50000000000000278 0.86602540378443704 0.00000000000000000 
1 108.50000000000000000 188.00000000000000000 8.00000000000000000 -0.00000000000000000 -0.00000000000000000 -1.00000000000000000 
2 105.00000000000000000 188.00000000000000000 0.00000000000000000 0.00000000000000000 0.00000000000000000 1.00000000000000000 1.00000000000000000 0.00000000000000000 -0.00000000000000000 -0.00000000000000000 1.00000000000000000 0.00000000000000000 3.50000000000000000
2 105.00000000000000000 188.00000000000000000 0.00000000000000000 0.00000000000000000 0.00000000000000000 1.00000000000000000 1.00000000000000000 0.00000000000000000 -0.00000000000000000 -0.00000000000000000 1.00000000000000000 0.00000000000000000 3.50000000000000000
1 103.05144284148501299 186.87500000000000000 8.00000000000000000 -0.00000000000000000 -0.00000000000000000 -1.00000000000000000 
1 106.94855715851498701 186.87500000000000000 8.00000000000000000 -0.00000000000000000 -0.00000000000000000 -1.00000000000000000 
1 103.05144284148501299 186.87500000000000000 0.00000000000000000 1.00000000000000000 0.00000000000000000 0.00000000000000000 
1 103.05144284148501299 186.87500000000000000 0.00000000000000000 1.00000000000000000 0.00000000000000000 0.00000000000000000 
1 104.99999999999998579 190.25000000000002842 8.00000000000000000 -0.00000000000000000 -0.00000000000000000 -1.00000000000000000 
1 104.99999999999998579 190.25000000000002842 0.00000000000000000 -0.49999999999999412 -0.86602540378444204 0.00000000000000000 
1 104.99999999999998579 190.25000000000002842 0.00000000000000000 -0.49999999999999412 -0.86602540378444204 0.00000000000000000 
1 106.94855715851498701 186.87500000000000000 0.00000000000000000 -0.49999999999999961 0.86602540378443893 0.00000000000000000 
1 106.94855715851498701 186.87500000000000000 0.00000000000000000 -0.49999999999999961 0.86602540378443893 0.00000000000000000 
Polygon3D 0
PolygonOnTriangulations 0
Surfaces 12
2 185.00000000000000000 188.00000000000000000 8.00000000000000000 0.00000000000000000 0.00000000000000000 1.00000000000000000 1.00000000000000000 0.00000000000000000 -0.00000000000000000 -0.00000000000000000 1.00000000000000000 0.00000000000000000 3.50000000000000000
1 185.00000000000000000 188.00000000000000000 8.00000000000000000 0.00000000000000000 0.00000000000000000 1.00000000000000000 1.00000000000000000 0.00000000000000000 -0.00000000000000000 -0.00000000000000000 1.00000000000000000 0.00000000000000000 
1 185.00000000000000000 188.00000000000000000 8.00000000000000000 0.00000000000000000 0.00000000000000000 1.00000000000000000 1.00000000000000000 0.00000000000000000 -0.00000000000000000 -0.00000000000000000 1.00000000000000000 0.00000000000000000 
1 183.05144284148502720 186.87500000000000000 8.00000000000000000 0.00000000000000000 -1.00000000000000000 0.00000000000000000 1.00000000000000000 0.00000000000000000 0.00000000000000000 -0.00000000000000000 0.00000000000000000 1.00000000000000000 
1 185.00000000000000000 190.25000000000000000 8.00000000000000000 -0.86602540378444026 0.49999999999999734 0.00000000000000000 -0.49999999999999734 -0.86602540378444026 0.00000000000000000 0.00000000000000000 0.00000000000000000 1.00000000000000000 
1 186.94855715851500122 186.87500000000000000 8.00000000000000000 0.86602540378443704 0.50000000000000278 -0.00000000000000000 -0.50000000000000278 0.86602540378443704 0.00000000000000000 0.00000000000000000 0.00000000000000000 1.00000000000000000 
2 105.00000000000000000 188.00000000000000000 8.00000000000000000 0.00000000000000000 0.00000000000000000 1.00000000000000000 1.00000000000000000 0.00000000000000000 -0.00000000000000000 -0.00000000000000000 1.00000000000000000 0.00000000000000000 3.50000000000000000
1 105.00000000000000000 188.00000000000000000 8.00000000000000000 0.00000000000000000 0.00000000000000000 1.00000000000000000 1.00000000000000000 0.00000000000000000 -0.00000000000000000 -0.00000000000000000 1.00000000000000000 0.00000000000000000 
1 105.00000000000000000 188.00000000000000000 8.00000000000000000 0.00000000000000000 0.00000000000000000 1.00000000000000000 1.00000000000000000 0.00000000000000000 -0.00000000000000000 -0.00000000000000000 1.00000000000000000 0.00000000000000000 
1 103.05144284148501299 186.87500000000000000 8.00000000000000000 0.00000000000000000 -1.00000000000000000 0.00000000000000000 1.00000000000000000 0.00000000000000000 0.00000000000000000 -0.00000000000000000 0.00000000000000000 1.00000000000000000 
1 104.99999999999998579 190.25000000000002842 8.00000000000000000 -0.86602540378444204 0.49999999999999412 0.00000000000000000 -0.49999999999999412 -0.86602540378444204 0.00000000000000000 0.00000000000000000 0.00000000000000000 1.00000000000000000 
1 106.94855715851498701 186.87500000000000000 8.00000000000000000 0.86602540378443893 0.49999999999999961 -0.00000000000000000 -0.49999999999999961 0.86602540378443893 0.00000000000000000 0.00000000000000000 0.00000000000000000 1.00000000000000000 
Triangulations 0

TShapes 73
Ve
0.000000100005000
188.500000000000000 188.000000000000000 8.000000000000000
0 0

0101101
*
Ve
0.000000100005000
188.500000000000000 188.000000000000000 5.000000000000000
0 0

0101101
*
Ed
 0.000000100005000 1 1 0
1  1 0 0.000000000000000 3.000000000000000
3  1 2CN 1 0 0.000000000000000 3.000000000000000
0

0101000
+73 0 -72 0 *
Ed
 0.000000100005000 1 1 0
1  2 0 0.000000000000000 6.283185307179586
2  3 1 4 0.000000000000000 6.283185307179586
2  4 2 5 0.000000000000000 6.283185307179586
0

0101000
+73 4 -73 4 *
Ed
 0.000000100005000 1 1 0
1  3 0 0.000000000000000 6.283185307179586
2  5 1 8 0.000000000000000 6.283185307179586
2  6 3 5 0.000000000000000 6.283185307179586
0

0101000
+72 8 -72 8 *
Wi

0101100
+71 0 -71 0 -70 3 +69 7 *
Fa
0  0.000000100005000 1 0

0111000
+68 0 *
Ve
0.000000100006008
183.051442841485027 186.875000000000000 8.000000000000000
0 0

0101101
*
Ve
0.000000100006008
183.051442841485027 186.875000000000000 5.000000000000000
0 0

0101101
*
Ed
 0.000000100005000 1 1 0
1  4 0 0.000000000000000 3.000000000000000
2  7 4 0 0.000000000000000 3.000000000000000
2  8 5 0 0.000000000000000 3.000000000000000
0

0101000
+66 0 -65 0 *
Ve
0.000000100006008
186.948557158515001 186.875000000000000 8.000000000000000
0 0

0101101
*
Ve
0.000000100006008
186.948557158515001 186.875000000000000 5.000000000000000
0 0

0101101
*
Ed
 0.000000100005000 1 1 0
1  5 0 0.000000000000000 3.000000000000000
2  9 4 0 0.000000000000000 3.000000000000000
2  10 6 0 0.000000000000000 3.000000000000000
0

0101000
+63 0 -62 0 *
Ed
 0.000000100005000 1 1 0
1  6 0 0.000000000000000 3.897114317029974
2  11 4 4 0.000000000000000 3.897114317029974
2  12 2 5 0.000000000000000 3.897114317029974
0

0101000
+66 4 -63 4 *
Ed
 0.000000100005000 1 1 0
1  7 0 0.000000000000000 3.897114317029974
2  13 4 8 0.000000000000000 3.897114317029974
2  14 3 5 0.000000000000000 3.897114317029974
0

0101000
+65 8 -62 8 *
Wi

0101100
+64 0 -61 0 -60 3 +59 7 *
Fa
0  0.000000100005000 4 0

0111000
+58 0 *
Ve
0.000000100005000
185.000000000000000 190.250000000000000 8.000000000000000
0 0

0101101
*
Ve
0.000000100005000
185.000000000000000 190.250000000000000 5.000000000000000
0 0

0101101
*
Ed
 0.000000100005000 1 1 0
1  8 0 0.000000000000000 3.000000000000000
2  15 5 0 0.000000000000000 3.000000000000000
2  16 6 0 0.000000000000000 3.000000000000000
0

0101000
+56 0 -55 0 *
Ed
 0.000000100005000 1 1 0
1  9 0 0.000000000000000 3.897114317029967
2  17 5 4 0.000000000000000 3.897114317029967
2  18 2 5 0.000000000000000 3.897114317029967
0

0101000
+56 4 -66 4 *
Ed
 0.000000100005000 1 1 0
1  10 0 0.000000000000000 3.897114317029967
2  19 5 8 0.000000000000000 3.897114317029967
2  20 3 5 0.000000000000000 3.897114317029967
0

0101000
+55 8 -65 8 *
Wi

0101100
+54 0 -64 0 -53 3 +52 7 *
Fa
0  0.000000100005000 5 0

0111000
+51 0 *
Ed
 0.000000100005000 1 1 0
1  11 0 0.000000000000000 3.897114317029981
2  21 6 4 0.000000000000000 3.897114317029981
2  22 2 5 0.000000000000000 3.897114317029981
0

0101000
+63 4 -56 4 *
Ed
 0.000000100005000 1 1 0
1  12 0 0.000000000000000 3.897114317029981
2  23 6 8 0.000000000000000 3.897114317029981
2  24 3 5 0.000000000000000 3.897114317029981
0

0101000
+62 8 -55 8 *
Wi

0101100
+61 0 -54 0 -49 3 +48 7 *
Fa
0  0.000000100005000 6 0

0111000
+47 0 *
Wi

0101100
+70 1 *
Wi

0101100
-60 1 -53 1 -49 1 *
Fa
0  0.000000100000000 2 0

0111000
+45 0 +44 0 *
Wi

0101100
+69 1 *
Wi

0101100
-59 1 -52 1 -48 1 *
Fa
0  0.000000100000000 3 0

0111000
+42 0 +41 0 *
Sh

0101100
+67 0 -57 0 -50 0 -46 0 +43 9 -40 10 *
So

0100000
+39 0 *
Ve
0.000000100005000
108.500000000000000 188.000000000000000 8.000000000000000
0 0

0101101
*
Ve
0.000000100005000
108.500000000000000 188.000000000000000 5.000000000000000
0 0

0101101
*
Ed
 0.000000100005000 1 1 0
1  13 0 0.000000000000000 3.000000000000000
3  25 26CN 7 0 0.000000000000000 3.000000000000000
0

0101000
+37 0 -36 0 *
Ed
 0.000000100005000 1 1 0
1  14 0 0.000000000000000 6.283185307179586
2  27 7 4 0.000000000000000 6.283185307179586
2  28 8 5 0.000000000000000 6.283185307179586
0

0101000
+37 4 -37 4 *
Ed
 0.000000100005000 1 1 0
1  15 0 0.000000000000000 6.283185307179586
2  29 7 8 0.000000000000000 6.283185307179586
2  30 9 5 0.000000000000000 6.283185307179586
0

0101000
+36 8 -36 8 *
Wi

0101100
+35 0 -35 0 -34 3 +33 7 *
Fa
0  0.000000100005000 7 0

0111000
+32 0 *
Ve
0.000000100005000
103.051442841485013 186.875000000000000 8.000000000000000
0 0

0101101
*
Ve
0.000000100005000
103.051442841485013 186.875000000000000 5.000000000000000
0 0

0101101
*
Ed
 0.000000100005000 1 1 0
1  16 0 0.000000000000000 3.000000000000000
2  31 10 0 0.000000000000000 3.000000000000000
2  32 11 0 0.000000000000000 3.000000000000000
0

0101000
+30 0 -29 0 *
Ve
0.000000100005000
106.948557158514987 186.875000000000000 8.000000000000000
0 0

0101101
*
Ve
0.000000100005000
106.948557158514987 186.875000000000000 5.000000000000000
0 0

0101101
*
Ed
 0.000000100005000 1 1 0
1  17 0 0.000000000000000 3.000000000000000
2  33 10 0 0.000000000000000 3.000000000000000
2  34 12 0 0.000000000000000 3.000000000000000
0

0101000
+27 0 -26 0 *
Ed
 0.000000100005000 1 1 0
1  18 0 0.000000000000000 3.897114317029974
2  35 10 4 0.000000000000000 3.897114317029974
2  36 8 5 0.000000000000000 3.897114317029974
0

0101000
+30 4 -27 4 *
Ed
 0.000000100005000 1 1 0
1  19 0 0.000000000000000 3.897114317029974
2  37 10 8 0.000000000000000 3.897114317029974
2  38 9 5 0.000000000000000 3.897114317029974
0

0101000
+29 8 -26 8 *
Wi

0101100
+28 0 -25 0 -24 3 +23 7 *
Fa
0  0.000000100005000 10 0

0111000
+22 0 *
Ve
0.000000100005000
104.999999999999986 190.250000000000028 8.000000000000000
0 0

0101101
*
Ve
0.000000100005000
104.999999999999986 190.250000000000028 5.000000000000000
0 0

0101101
*
Ed
 0.000000100005000 1 1 0
1  20 0 0.000000000000000 3.000000000000000
2  39 11 0 0.000000000000000 3.000000000000000
2  40 12 0 0.000000000000000 3.000000000000000
0

0101000
+20 0 -19 0 *
Ed
 0.000000100005000 1 1 0
1  21 0 0.000000000000000 3.897114317029991
2  41 11 4 0.000000000000000 3.897114317029991
2  42 8 5 0.000000000000000 3.897114317029991
0

0101000
+20 4 -30 4 *
Ed
 0.000000100005000 1 1 0
1  22 0 0.000000000000000 3.897114317029991
2  43 11 8 0.000000000000000 3.897114317029991
2  44 9 5 0.000000000000000 3.897114317029991
0

0101000
+19 8 -29 8 *
Wi

0101100
+18 0 -28 0 -17 3 +16 7 *
Fa
0  0.000000100005000 11 0

0111000
+15 0 *
Ed
 0.000000100005000 1 1 0
1  23 0 0.000000000000000 3.897114317030006
2  45 12 4 0.000000000000000 3.897114317030006
2  46 8 5 0.000000000000000 3.897114317030006
0

0101000
+27 4 -20 4 *
Ed
 0.000000100005000 1 1 0
1  24 0 0.000000000000000 3.897114317030006
2  47 12 8 0.000000000000000 3.897114317030006
2  48 9 5 0.000000000000000 3.897114317030006
0

0101000
+26 8 -19 8 *
Wi

0101100
+25 0 -18 0 -13 3 +12 7 *
Fa
0  0.000000100005000 12 0

0111000
+11 0 *
Wi

0101100
+34 1 *
Wi

0101100
-24 1 -17 1 -13 1 *
Fa
0  0.000000100000000 8 0

0111000
+9 0 +8 0 *
Wi

0101100
+33 1 *
Wi

0101100
-23 1 -16 1 -12 1 *
Fa
0  0.000000100000000 9 0

0111000
+6 0 +5 0 *
Sh

0101100
+31 0 -21 0 -14 0 -10 0 +7 9 -4 10 *
So

0100000
+3 0 *
Co

1100000
+38 0 +2 0 *

+1 0 