
CASCADE Topology V1, (c) Matra-Datavision
Locations 10
1
1.000000000000000 0.000000000000000 0.000000000000000 0.000000000000000 
0.000000000000000 1.000000000000000 0.000000000000000 0.000000000000000 
0.000000000000000 0.000000000000000 1.000000000000000 2.000000000000000 
1
1.000000000000000 0.000000000000000 0.000000000000000 0.000000000000000 
0.000000000000000 1.000000000000000 0.000000000000000 0.000000000000000 
0.000000000000000 0.000000000000000 1.000000000000000 0.000000000000000 
2  1 1 2 -1 0
2  2 1 1 -1 0
2  1 -1 0
1
1.000000000000000 0.000000000000000 0.000000000000000 0.000000000000000 
0.000000000000000 1.000000000000000 0.000000000000000 0.000000000000000 
0.000000000000000 0.000000000000000 1.000000000000000 6.000000000000000 
2  1 1 2 -1 6 1 0
2  6 -1 2 1 1 -1 0
2  2 -1 0
2  2 -1 6 1 0
Curve2ds 24
1 0.00000000000000000 0.00000000000000000 0.00000000000000000 -1.00000000000000000 
1 6.28318530717958623 0.00000000000000000 0.00000000000000000 -1.00000000000000000 
1 0.00000000000000000 0.00000000000000000 1.00000000000000000 0.00000000000000000 
2 0.00000000000000000 0.00000000000000000 1.00000000000000000 0.00000000000000000 -0.00000000000000000 1.00000000000000000 3.50000000000000000
1 0.00000000000000000 -6.00000000000000000 1.00000000000000000 0.00000000000000000 
2 0.00000000000000000 0.00000000000000000 1.00000000000000000 0.00000000000000000 -0.00000000000000000 1.00000000000000000 3.50000000000000000
1 0.00000000000000000 0.00000000000000000 0.00000000000000000 -1.00000000000000000 
1 6.28318530717958623 0.00000000000000000 0.00000000000000000 -1.00000000000000000 
1 0.00000000000000000 0.00000000000000000 1.00000000000000000 0.00000000000000000 
2 0.00000000000000000 0.00000000000000000 1.00000000000000000 0.00000000000000000 -0.00000000000000000 1.00000000000000000 2.25000000000000000
1 0.00000000000000000 -6.00000000000000000 1.00000000000000000 0.00000000000000000 
2 0.00000000000000000 0.00000000000000000 1.00000000000000000 0.00000000000000000 -0.00000000000000000 1.00000000000000000 2.25000000000000000
1 0.00000000000000000 0.00000000000000000 0.00000000000000000 -1.00000000000000000 
1 6.28318530717958623 0.00000000000000000 0.00000000000000000 -1.00000000000000000 
1 0.00000000000000000 0.00000000000000000 1.00000000000000000 0.00000000000000000 
2 0.00000000000000000 0.00000000000000000 1.00000000000000000 0.00000000000000000 -0.00000000000000000 1.00000000000000000 3.50000000000000000
1 0.00000000000000000 -6.00000000000000000 1.00000000000000000 0.00000000000000000 
2 0.00000000000000000 0.00000000000000000 1.00000000000000000 0.00000000000000000 -0.00000000000000000 1.00000000000000000 3.50000000000000000
1 0.00000000000000000 0.00000000000000000 0.00000000000000000 -1.00000000000000000 
1 6.28318530717958623 0.00000000000000000 0.00000000000000000 -1.00000000000000000 
1 0.00000000000000000 0.00000000000000000 1.00000000000000000 0.00000000000000000 
2 0.00000000000000000 0.00000000000000000 1.00000000000000000 0.00000000000000000 -0.00000000000000000 1.00000000000000000 2.25000000000000000
1 0.00000000000000000 -6.00000000000000000 1.00000000000000000 0.00000000000000000 
2 0.00000000000000000 0.00000000000000000 1.00000000000000000 0.00000000000000000 -0.00000000000000000 1.00000000000000000 2.25000000000000000
Curves 12
1 108.50000000000000000 188.00000000000000000 2.00000000000000000 0.00000000000000000 0.00000000000000000 1.00000000000000000 
2 105.00000000000000000 188.00000000000000000 0.00000000000000000 0.00000000000000000 0.00000000000000000 1.00000000000000000 1.00000000000000000 0.00000000000000000 -0.00000000000000000 -0.00000000000000000 1.00000000000000000 0.00000000000000000 3.50000000000000000
2 105.00000000000000000 188.00000000000000000 0.00000000000000000 0.00000000000000000 0.00000000000000000 1.00000000000000000 1.00000000000000000 0.00000000000000000 -0.00000000000000000 -0.00000000000000000 1.00000000000000000 0.00000000000000000 3.50000000000000000
1 107.25000000000000000 188.00000000000000000 2.00000000000000000 0.00000000000000000 0.00000000000000000 1.00000000000000000 
2 105.00000000000000000 188.00000000000000000 0.00000000000000000 0.00000000000000000 0.00000000000000000 1.00000000000000000 1.00000000000000000 0.00000000000000000 -0.00000000000000000 -0.00000000000000000 1.00000000000000000 0.00000000000000000 2.25000000000000000
2 105.00000000000000000 188.00000000000000000 0.00000000000000000 0.00000000000000000 0.00000000000000000 1.00000000000000000 1.00000000000000000 0.00000000000000000 -0.00000000000000000 -0.00000000000000000 1.00000000000000000 0.00000000000000000 2.25000000000000000
1 188.50000000000000000 188.00000000000000000 2.00000000000000000 0.00000000000000000 0.00000000000000000 1.00000000000000000 
2 185.00000000000000000 188.00000000000000000 0.00000000000000000 0.00000000000000000 0.00000000000000000 1.00000000000000000 1.00000000000000000 0.00000000000000000 -0.00000000000000000 -0.00000000000000000 1.00000000000000000 0.00000000000000000 3.50000000000000000
2 185.00000000000000000 188.00000000000000000 0.00000000000000000 0.00000000000000000 0.00000000000000000 1.00000000000000000 1.00000000000000000 0.00000000000000000 -0.00000000000000000 -0.00000000000000000 1.00000000000000000 0.00000000000000000 3.50000000000000000
1 187.25000000000000000 188.00000000000000000 2.00000000000000000 0.00000000000000000 0.00000000000000000 1.00000000000000000 
2 185.00000000000000000 188.00000000000000000 0.00000000000000000 0.00000000000000000 0.00000000000000000 1.00000000000000000 1.00000000000000000 0.00000000000000000 -0.00000000000000000 -0.00000000000000000 1.00000000000000000 0.00000000000000000 2.25000000000000000
2 185.00000000000000000 188.00000000000000000 0.00000000000000000 0.00000000000000000 0.00000000000000000 1.00000000000000000 1.00000000000000000 0.00000000000000000 -0.00000000000000000 -0.00000000000000000 1.00000000000000000 0.00000000000000000 2.25000000000000000
Polygon3D 0
PolygonOnTriangulations 0
Surfaces 8
2 105.00000000000000000 188.00000000000000000 2.00000000000000000 -0.00000000000000000 -0.00000000000000000 -1.00000000000000000 1.00000000000000000 0.00000000000000000 0.00000000000000000 -0.00000000000000000 1.00000000000000000 -0.00000000000000000 3.50000000000000000
1 105.00000000000000000 188.00000000000000000 2.00000000000000000 0.00000000000000000 0.00000000000000000 1.00000000000000000 1.00000000000000000 0.00000000000000000 -0.00000000000000000 -0.00000000000000000 1.00000000000000000 0.00000000000000000 
1 105.00000000000000000 188.00000000000000000 2.00000000000000000 0.00000000000000000 0.00000000000000000 1.00000000000000000 1.00000000000000000 0.00000000000000000 -0.00000000000000000 -0.00000000000000000 1.00000000000000000 0.00000000000000000 
2 105.00000000000000000 188.00000000000000000 2.00000000000000000 -0.00000000000000000 -0.00000000000000000 -1.00000000000000000 1.00000000000000000 0.00000000000000000 0.00000000000000000 -0.00000000000000000 1.00000000000000000 -0.00000000000000000 2.25000000000000000
2 185.00000000000000000 188.00000000000000000 2.00000000000000000 -0.00000000000000000 -0.00000000000000000 -1.00000000000000000 1.00000000000000000 0.00000000000000000 0.00000000000000000 -0.00000000000000000 1.00000000000000000 -0.00000000000000000 3.50000000000000000
1 185.00000000000000000 188.00000000000000000 2.00000000000000000 0.00000000000000000 0.00000000000000000 1.00000000000000000 1.00000000000000000 0.00000000000000000 -0.00000000000000000 -0.00000000000000000 1.00000000000000000 0.00000000000000000 
1 185.00000000000000000 188.00000000000000000 2.00000000000000000 0.00000000000000000 0.00000000000000000 1.00000000000000000 1.00000000000000000 0.00000000000000000 -0.00000000000000000 -0.00000000000000000 1.00000000000000000 0.00000000000000000 
2 185.00000000000000000 188.00000000000000000 2.00000000000000000 -0.00000000000000000 -0.00000000000000000 -1.00000000000000000 1.00000000000000000 0.00000000000000000 0.00000000000000000 -0.00000000000000000 1.00000000000000000 -0.00000000000000000 2.25000000000000000
Triangulations 0

TShapes 45
Ve
0.000000100005000
108.500000000000000 188.000000000000000 2.000000000000000
0 0

0101101
*
Ve
0.000000100005000
108.500000000000000 188.000000000000000 8.000000000000000
0 0

0101101
*
Ed
 0.000000100005000 1 1 0
1  1 0 0.000000000000000 6.000000000000000
3  1 2CN 1 0 0.000000000000000 6.000000000000000
0

0101000
+45 0 -44 0 *
Ed
 0.000000100005000 1 1 0
1  2 0 0.000000000000000 6.283185307179586
2  3 1 4 0.000000000000000 6.283185307179586
2  4 2 5 0.000000000000000 6.283185307179586
0

0101000
+45 4 -45 4 *
Ed
 0.000000100005000 1 1 0
1  3 0 0.000000000000000 6.283185307179586
2  5 1 8 0.000000000000000 6.283185307179586
2  6 3 5 0.000000000000000 6.283185307179586
0

0101000
+44 8 -44 8 *
Wi

0101100
+43 0 -43 0 -42 3 +41 7 *
Fa
0  0.000000100005000 1 0

0111000
+40 0 *
Ve
0.000000100005000
107.250000000000000 188.000000000000000 2.000000000000000
0 0

0101101
*
Ve
0.000000100005000
107.250000000000000 188.000000000000000 8.000000000000000
0 0

0101101
*
Ed
 0.000000100005000 1 1 0
1  4 0 0.000000000000000 6.000000000000000
3  7 8CN 4 0 0.000000000000000 6.000000000000000
0

0101000
+38 0 -37 0 *
Ed
 0.000000100005000 1 1 0
1  5 0 0.000000000000000 6.283185307179586
2  9 4 4 0.000000000000000 6.283185307179586
2  10 2 5 0.000000000000000 6.283185307179586
0

0101000
+38 4 -38 4 *
Ed
 0.000000100005000 1 1 0
1  6 0 0.000000000000000 6.283185307179586
2  11 4 8 0.000000000000000 6.283185307179586
2  12 3 5 0.000000000000000 6.283185307179586
0

0101000
+37 8 -37 8 *
Wi

0101100
+36 0 -36 0 -35 3 +34 7 *
Fa
0  0.000000100005000 4 0

0111000
+33 0 *
Wi

0101100
+42 1 *
Wi

0101100
-35 1 *
Fa
0  0.000000100000000 2 0

0111000
+31 0 +30 0 *
Wi

0101100
+41 1 *
Wi

0101100
-34 1 *
Fa
0  0.000000100000000 3 0

0111000
+28 0 +27 0 *
Sh

0101100
+39 0 -32 0 +29 9 -26 10 *
So

0100000
-25 0 *
Ve
0.000000100005000
188.500000000000000 188.000000000000000 2.000000000000000
0 0

0101101
*
Ve
0.000000100005000
188.500000000000000 188.000000000000000 8.000000000000000
0 0

0101101
*
Ed
 0.000000100005000 1 1 0
1  7 0 0.000000000000000 6.000000000000000
3  13 14CN 5 0 0.000000000000000 6.000000000000000
0

0101000
+23 0 -22 0 *
Ed
 0.000000100005000 1 1 0
1  8 0 0.000000000000000 6.283185307179586
2  15 5 4 0.000000000000000 6.283185307179586
2  16 6 5 0.000000000000000 6.283185307179586
0

0101000
+23 4 -23 4 *
Ed
 0.000000100005000 1 1 0
1  9 0 0.000000000000000 6.283185307179586
2  17 5 8 0.000000000000000 6.283185307179586
2  18 7 5 0.000000000000000 6.283185307179586
0

0101000
+22 8 -22 8 *
Wi

0101100
+21 0 -21 0 -20 3 +19 7 *
Fa
0  0.000000100005000 5 0

0111000
+18 0 *
Ve
0.000000100005000
187.250000000000000 188.000000000000000 2.000000000000000
0 0

0101101
*
Ve
0.000000100005000
187.250000000000000 188.000000000000000 8.000000000000000
0 0

0101101
*
Ed
 0.000000100005000 1 1 0
1  10 0 0.000000000000000 6.000000000000000
3  19 20CN 8 0 0.000000000000000 6.000000000000000
0

0101000
+16 0 -15 0 *
Ed
 0.000000100005000 1 1 0
1  11 0 0.000000000000000 6.283185307179586
2  21 8 4 0.000000000000000 6.283185307179586
2  22 6 5 0.000000000000000 6.283185307179586
0

0101000
+16 4 -16 4 *
Ed
 0.000000100005000 1 1 0
1  12 0 0.000000000000000 6.283185307179586
2  23 8 8 0.000000000000000 6.283185307179586
2  24 7 5 0.000000000000000 6.283185307179586
0

0101000
+15 8 -15 8 *
Wi

0101100
+14 0 -14 0 -13 3 +12 7 *
Fa
0  0.000000100005000 8 0

0111000
+11 0 *
Wi

0101100
+20 1 *
Wi

0101100
-13 1 *
Fa
0  0.000000100000000 6 0

0111000
+9 0 +8 0 *
Wi

0101100
+19 1 *
Wi

0101100
-12 1 *
Fa
0  0.000000100000000 7 0

0111000
+6 0 +5 0 *
Sh

0101100
+17 0 -10 0 +7 9 -4 10 *
So

0100000
-3 0 *
Co

1100000
+24 0 +2 0 *

+1 0 