
CASCADE Topology V1, (c) Matra-Datavision
Locations 10
1
1.000000000000000 0.000000000000000 0.000000000000000 0.000000000000000 
0.000000000000000 -1.000000000000000 0.000000000000000 0.000000000000000 
0.000000000000000 0.000000000000000 -1.000000000000000 0.000000000000000 
1
1.000000000000000 0.000000000000000 0.000000000000000 0.000000000000000 
0.000000000000000 1.000000000000000 0.000000000000000 0.000000000000000 
0.000000000000000 0.000000000000000 1.000000000000000 0.000000000000000 
2  1 1 2 -1 0
2  2 1 1 -1 0
2  1 -1 0
1
1.000000000000000 0.000000000000000 0.000000000000000 -0.000000000000000 
0.000000000000000 1.000000000000000 0.000000000000000 -0.000000000000000 
0.000000000000000 0.000000000000000 1.000000000000000 2.000000000000000 
2  1 1 2 -1 6 1 0
2  6 -1 2 1 1 -1 0
2  2 -1 0
2  2 -1 6 1 0
Curve2ds 36
1 0.00000000000000000 0.00000000000000000 0.00000000000000000 -1.00000000000000000 
1 11.00000000000000000 0.00000000000000000 0.00000000000000000 -1.00000000000000000 
1 234.00000000000000000 0.00000000000000000 0.00000000000000000 -1.00000000000000000 
1 0.00000000000000000 0.00000000000000000 0.00000000000000000 -1.00000000000000000 
1 0.00000000000000000 0.00000000000000000 1.00000000000000000 0.00000000000000000 
1 -117.00000000000000000 -5.50000000000000000 1.00000000000000000 0.00000000000000000 
1 0.00000000000000000 -2.00000000000000000 1.00000000000000000 0.00000000000000000 
1 -117.00000000000000000 -5.50000000000000000 1.00000000000000000 0.00000000000000000 
1 11.00000000000000000 0.00000000000000000 0.00000000000000000 -1.00000000000000000 
1 0.00000000000000000 0.00000000000000000 0.00000000000000000 -1.00000000000000000 
1 0.00000000000000000 0.00000000000000000 1.00000000000000000 0.00000000000000000 
1 117.00000000000000000 -5.50000000000000000 0.00000000000000000 1.00000000000000000 
1 0.00000000000000000 -2.00000000000000000 1.00000000000000000 0.00000000000000000 
1 117.00000000000000000 -5.50000000000000000 0.00000000000000000 1.00000000000000000 
1 234.00000000000000000 0.00000000000000000 0.00000000000000000 -1.00000000000000000 
1 0.00000000000000000 0.00000000000000000 0.00000000000000000 -1.00000000000000000 
1 0.00000000000000000 0.00000000000000000 1.00000000000000000 0.00000000000000000 
1 117.00000000000000000 5.50000000000000000 -1.00000000000000000 0.00000000000000000 
1 0.00000000000000000 -2.00000000000000000 1.00000000000000000 0.00000000000000000 
1 117.00000000000000000 5.50000000000000000 -1.00000000000000000 0.00000000000000000 
1 0.00000000000000000 0.00000000000000000 1.00000000000000000 0.00000000000000000 
1 -117.00000000000000000 5.50000000000000000 0.00000000000000000 -1.00000000000000000 
1 0.00000000000000000 -2.00000000000000000 1.00000000000000000 0.00000000000000000 
1 -117.00000000000000000 5.50000000000000000 0.00000000000000000 -1.00000000000000000 
1 0.00000000000000000 0.00000000000000000 0.00000000000000000 -1.00000000000000000 
1 6.28318530717958623 0.00000000000000000 0.00000000000000000 -1.00000000000000000 
1 0.00000000000000000 0.00000000000000000 1.00000000000000000 0.00000000000000000 
2 -40.00000000000000000 -0.50000000000000000 -1.00000000000000000 0.00000000000000000 -0.00000000000000000 -1.00000000000000000 2.25000000000000000
1 0.00000000000000000 -2.00000000000000000 1.00000000000000000 0.00000000000000000 
2 -40.00000000000000000 -0.50000000000000000 -1.00000000000000000 0.00000000000000000 -0.00000000000000000 -1.00000000000000000 2.25000000000000000
1 0.00000000000000000 0.00000000000000000 0.00000000000000000 -1.00000000000000000 
1 6.28318530717958623 0.00000000000000000 0.00000000000000000 -1.00000000000000000 
1 0.00000000000000000 0.00000000000000000 1.00000000000000000 0.00000000000000000 
2 40.00000000000000000 -0.50000000000000000 -1.00000000000000000 0.00000000000000000 -0.00000000000000000 -1.00000000000000000 2.25000000000000000
1 0.00000000000000000 -2.00000000000000000 1.00000000000000000 0.00000000000000000 
2 40.00000000000000000 -0.50000000000000000 -1.00000000000000000 0.00000000000000000 -0.00000000000000000 -1.00000000000000000 2.25000000000000000
Curves 18
1 262.00000000000000000 183.00000000000000000 0.00000000000000000 -0.00000000000000000 -0.00000000000000000 1.00000000000000000 
1 28.00000000000000000 183.00000000000000000 0.00000000000000000 -0.00000000000000000 -0.00000000000000000 1.00000000000000000 
1 262.00000000000000000 -183.00000000000000000 0.00000000000000000 -1.00000000000000000 0.00000000000000000 0.00000000000000000 
1 262.00000000000000000 -183.00000000000000000 0.00000000000000000 -1.00000000000000000 0.00000000000000000 0.00000000000000000 
1 28.00000000000000000 194.00000000000000000 0.00000000000000000 -0.00000000000000000 -0.00000000000000000 1.00000000000000000 
1 28.00000000000000000 -183.00000000000000000 0.00000000000000000 0.00000000000000000 -1.00000000000000000 0.00000000000000000 
1 28.00000000000000000 -183.00000000000000000 0.00000000000000000 0.00000000000000000 -1.00000000000000000 0.00000000000000000 
1 262.00000000000000000 194.00000000000000000 0.00000000000000000 -0.00000000000000000 -0.00000000000000000 1.00000000000000000 
1 28.00000000000000000 -194.00000000000000000 0.00000000000000000 1.00000000000000000 0.00000000000000000 0.00000000000000000 
1 28.00000000000000000 -194.00000000000000000 0.00000000000000000 1.00000000000000000 0.00000000000000000 0.00000000000000000 
1 262.00000000000000000 -194.00000000000000000 0.00000000000000000 0.00000000000000000 1.00000000000000000 0.00000000000000000 
1 262.00000000000000000 -194.00000000000000000 0.00000000000000000 0.00000000000000000 1.00000000000000000 0.00000000000000000 
1 187.25000000000000000 188.00000000000000000 0.00000000000000000 -0.00000000000000000 -0.00000000000000000 1.00000000000000000 
2 185.00000000000000000 -188.00000000000000000 0.00000000000000000 0.00000000000000000 0.00000000000000000 1.00000000000000000 1.00000000000000000 0.00000000000000000 -0.00000000000000000 -0.00000000000000000 1.00000000000000000 0.00000000000000000 2.25000000000000000
2 185.00000000000000000 -188.00000000000000000 0.00000000000000000 0.00000000000000000 0.00000000000000000 1.00000000000000000 1.00000000000000000 0.00000000000000000 -0.00000000000000000 -0.00000000000000000 1.00000000000000000 0.00000000000000000 2.25000000000000000
1 107.25000000000000000 188.00000000000000000 0.00000000000000000 -0.00000000000000000 -0.00000000000000000 1.00000000000000000 
2 105.00000000000000000 -188.00000000000000000 0.00000000000000000 0.00000000000000000 0.00000000000000000 1.00000000000000000 1.00000000000000000 0.00000000000000000 -0.00000000000000000 -0.00000000000000000 1.00000000000000000 0.00000000000000000 2.25000000000000000
2 105.00000000000000000 -188.00000000000000000 0.00000000000000000 0.00000000000000000 0.00000000000000000 1.00000000000000000 1.00000000000000000 0.00000000000000000 -0.00000000000000000 -0.00000000000000000 1.00000000000000000 0.00000000000000000 2.25000000000000000
Polygon3D 0
PolygonOnTriangulations 0
Surfaces 8
1 262.00000000000000000 183.00000000000000000 0.00000000000000000 -0.00000000000000000 -1.00000000000000000 -0.00000000000000000 -1.00000000000000000 0.00000000000000000 0.00000000000000000 0.00000000000000000 0.00000000000000000 -1.00000000000000000 
1 262.00000000000000000 194.00000000000000000 0.00000000000000000 1.00000000000000000 0.00000000000000000 0.00000000000000000 0.00000000000000000 -1.00000000000000000 0.00000000000000000 0.00000000000000000 0.00000000000000000 -1.00000000000000000 
1 28.00000000000000000 183.00000000000000000 0.00000000000000000 -1.00000000000000000 0.00000000000000000 0.00000000000000000 0.00000000000000000 1.00000000000000000 0.00000000000000000 0.00000000000000000 0.00000000000000000 -1.00000000000000000 
1 145.00000000000000000 188.50000000000000000 0.00000000000000000 -0.00000000000000000 -0.00000000000000000 -1.00000000000000000 -1.00000000000000000 0.00000000000000000 0.00000000000000000 0.00000000000000000 1.00000000000000000 -0.00000000000000000 
1 145.00000000000000000 188.50000000000000000 0.00000000000000000 -0.00000000000000000 -0.00000000000000000 -1.00000000000000000 -1.00000000000000000 0.00000000000000000 0.00000000000000000 0.00000000000000000 1.00000000000000000 -0.00000000000000000 
1 28.00000000000000000 194.00000000000000000 0.00000000000000000 -0.00000000000000000 1.00000000000000000 0.00000000000000000 1.00000000000000000 0.00000000000000000 0.00000000000000000 0.00000000000000000 0.00000000000000000 -1.00000000000000000 
2 185.00000000000000000 188.00000000000000000 0.00000000000000000 0.00000000000000000 0.00000000000000000 -1.00000000000000000 1.00000000000000000 0.00000000000000000 0.00000000000000000 0.00000000000000000 -1.00000000000000000 0.00000000000000000 2.25000000000000000
2 105.00000000000000000 188.00000000000000000 0.00000000000000000 0.00000000000000000 0.00000000000000000 -1.00000000000000000 1.00000000000000000 0.00000000000000000 0.00000000000000000 0.00000000000000000 -1.00000000000000000 0.00000000000000000 2.25000000000000000
Triangulations 0

TShapes 52
Ve
0.000000100005000
262.000000000000000 183.000000000000000 0.000000000000000
0 0

0101101
*
Ve
0.000000100005000
262.000000000000000 183.000000000000000 2.000000000000000
0 0

0101101
*
Ed
 0.000000100005000 1 1 0
1  1 0 0.000000000000000 2.000000000000000
2  1 1 0 0.000000000000000 2.000000000000000
2  2 2 0 0.000000000000000 2.000000000000000
0

0101000
+52 0 -51 0 *
Ve
0.000000100005000
28.000000000000000 183.000000000000000 0.000000000000000
0 0

0101101
*
Ve
0.000000100005000
28.000000000000000 183.000000000000000 2.000000000000000
0 0

0101101
*
Ed
 0.000000100005000 1 1 0
1  2 0 0.000000000000000 2.000000000000000
2  3 1 0 0.000000000000000 2.000000000000000
2  4 3 0 0.000000000000000 2.000000000000000
0

0101000
+49 0 -48 0 *
Ed
 0.000000100005000 1 1 0
1  3 0 0.000000000000000 234.000000000000000
2  5 1 4 0.000000000000000 234.000000000000000
2  6 4 5 0.000000000000000 234.000000000000000
0

0101000
+52 4 -49 4 *
Ed
 0.000000100005000 1 1 0
1  4 0 0.000000000000000 234.000000000000000
2  7 1 8 0.000000000000000 234.000000000000000
2  8 5 5 0.000000000000000 234.000000000000000
0

0101000
+51 8 -48 8 *
Wi

0101100
+50 0 -47 0 -46 3 +45 7 *
Fa
0  0.000000100005000 1 0

0111000
+44 0 *
Ve
0.000000100005000
28.000000000000000 194.000000000000000 0.000000000000000
0 0

0101101
*
Ve
0.000000100005000
28.000000000000000 194.000000000000000 2.000000000000000
0 0

0101101
*
Ed
 0.000000100005000 1 1 0
1  5 0 0.000000000000000 2.000000000000000
2  9 3 0 0.000000000000000 2.000000000000000
2  10 6 0 0.000000000000000 2.000000000000000
0

0101000
+42 0 -41 0 *
Ed
 0.000000100005000 1 1 0
1  6 0 0.000000000000000 11.000000000000000
2  11 3 4 0.000000000000000 11.000000000000000
2  12 4 5 0.000000000000000 11.000000000000000
0

0101000
+49 4 -42 4 *
Ed
 0.000000100005000 1 1 0
1  7 0 0.000000000000000 11.000000000000000
2  13 3 8 0.000000000000000 11.000000000000000
2  14 5 5 0.000000000000000 11.000000000000000
0

0101000
+48 8 -41 8 *
Wi

0101100
+47 0 -40 0 -39 3 +38 7 *
Fa
0  0.000000100005000 3 0

0111000
+37 0 *
Ve
0.000000100005000
262.000000000000000 194.000000000000000 0.000000000000000
0 0

0101101
*
Ve
0.000000100005000
262.000000000000000 194.000000000000000 2.000000000000000
0 0

0101101
*
Ed
 0.000000100005000 1 1 0
1  8 0 0.000000000000000 2.000000000000000
2  15 6 0 0.000000000000000 2.000000000000000
2  16 2 0 0.000000000000000 2.000000000000000
0

0101000
+35 0 -34 0 *
Ed
 0.000000100005000 1 1 0
1  9 0 0.000000000000000 234.000000000000000
2  17 6 4 0.000000000000000 234.000000000000000
2  18 4 5 0.000000000000000 234.000000000000000
0

0101000
+42 4 -35 4 *
Ed
 0.000000100005000 1 1 0
1  10 0 0.000000000000000 234.000000000000000
2  19 6 8 0.000000000000000 234.000000000000000
2  20 5 5 0.000000000000000 234.000000000000000
0

0101000
+41 8 -34 8 *
Wi

0101100
+40 0 -33 0 -32 3 +31 7 *
Fa
0  0.000000100005000 6 0

0111000
+30 0 *
Ed
 0.000000100005000 1 1 0
1  11 0 0.000000000000000 11.000000000000000
2  21 2 4 0.000000000000000 11.000000000000000
2  22 4 5 0.000000000000000 11.000000000000000
0

0101000
+35 4 -52 4 *
Ed
 0.000000100005000 1 1 0
1  12 0 0.000000000000000 11.000000000000000
2  23 2 8 0.000000000000000 11.000000000000000
2  24 5 5 0.000000000000000 11.000000000000000
0

0101000
+34 8 -51 8 *
Wi

0101100
+33 0 -50 0 -28 3 +27 7 *
Fa
0  0.000000100005000 2 0

0111000
+26 0 *
Ve
0.000000100005000
187.250000000000000 188.000000000000000 0.000000000000000
0 0

0101101
*
Ve
0.000000100005000
187.250000000000000 188.000000000000000 2.000000000000000
0 0

0101101
*
Ed
 0.000000100005000 1 1 0
1  13 0 0.000000000000000 2.000000000000000
3  25 26CN 7 0 0.000000000000000 2.000000000000000
0

0101000
+24 0 -23 0 *
Ed
 0.000000100005000 1 1 0
1  14 0 0.000000000000000 6.283185307179586
2  27 7 4 0.000000000000000 6.283185307179586
2  28 4 5 0.000000000000000 6.283185307179586
0

0101000
+24 4 -24 4 *
Ed
 0.000000100005000 1 1 0
1  15 0 0.000000000000000 6.283185307179586
2  29 7 8 0.000000000000000 6.283185307179586
2  30 5 5 0.000000000000000 6.283185307179586
0

0101000
+23 8 -23 8 *
Wi

0101100
+22 0 -22 0 -21 3 +20 7 *
Fa
0  0.000000100005000 7 0

0111000
+19 0 *
Ve
0.000000100005000
107.250000000000000 188.000000000000000 0.000000000000000
0 0

0101101
*
Ve
0.000000100005000
107.250000000000000 188.000000000000000 2.000000000000000
0 0

0101101
*
Ed
 0.000000100005000 1 1 0
1  16 0 0.000000000000000 2.000000000000000
3  31 32CN 8 0 0.000000000000000 2.000000000000000
0

0101000
+17 0 -16 0 *
Ed
 0.000000100005000 1 1 0
1  17 0 0.000000000000000 6.283185307179586
2  33 8 4 0.000000000000000 6.283185307179586
2  34 4 5 0.000000000000000 6.283185307179586
0

0101000
+17 4 -17 4 *
Ed
 0.000000100005000 1 1 0
1  18 0 0.000000000000000 6.283185307179586
2  35 8 8 0.000000000000000 6.283185307179586
2  36 5 5 0.000000000000000 6.283185307179586
0

0101000
+16 8 -16 8 *
Wi

0101100
+15 0 -15 0 -14 3 +13 7 *
Fa
0  0.000000100005000 8 0

0111000
+12 0 *
Wi

0101100
+46 1 +39 1 +32 1 +28 1 *
Wi

0101100
-21 1 *
Wi

0101100
-14 1 *
Fa
0  0.000000100000000 4 0

0111000
+10 0 +9 0 +8 0 *
Wi

0101100
+45 1 +38 1 +31 1 +27 1 *
Wi

0101100
-20 1 *
Wi

0101100
-13 1 *
Fa
0  0.000000100000000 5 0

0111000
+6 0 +5 0 +4 0 *
Sh

0101100
+43 0 +36 0 +29 0 +25 0 -18 0 -11 0 +7 9 -3 10 *
So

1100000
+2 0 *

+1 0 