
CASCADE Topology V1, (c) Matra-Datavision
Locations 10
1
1.000000000000000 0.000000000000000 0.000000000000000 0.000000000000000 
0.000000000000000 1.000000000000000 0.000000000000000 0.000000000000000 
0.000000000000000 0.000000000000000 1.000000000000000 2.000000000000000 
1
1.000000000000000 0.000000000000000 0.000000000000000 0.000000000000000 
0.000000000000000 1.000000000000000 0.000000000000000 0.000000000000000 
0.000000000000000 0.000000000000000 1.000000000000000 0.000000000000000 
2  1 1 2 -1 0
2  2 1 1 -1 0
2  1 -1 0
1
1.000000000000000 0.000000000000000 0.000000000000000 0.000000000000000 
0.000000000000000 1.000000000000000 0.000000000000000 0.000000000000000 
0.000000000000000 0.000000000000000 1.000000000000000 6.000000000000000 
2  1 1 2 -1 6 1 0
2  6 -1 2 1 1 -1 0
2  2 -1 0
2  2 -1 6 1 0
Curve2ds 108
1 0.00000000000000000 0.00000000000000000 0.00000000000000000 -1.00000000000000000 
1 6.28318530717958623 0.00000000000000000 0.00000000000000000 -1.00000000000000000 
1 0.00000000000000000 0.00000000000000000 1.00000000000000000 0.00000000000000000 
2 -0.00000000000000178 -0.00000000000000355 1.00000000000000000 0.00000000000000000 -0.00000000000000000 1.00000000000000000 3.50000000000000000
1 0.00000000000000000 -6.00000000000000000 1.00000000000000000 0.00000000000000000 
2 -0.00000000000000178 -0.00000000000000355 1.00000000000000000 0.00000000000000000 -0.00000000000000000 1.00000000000000000 3.50000000000000000
1 0.00000000000000000 0.00000000000000000 0.00000000000000000 -1.00000000000000000 
1 6.28318530717958623 0.00000000000000000 0.00000000000000000 -1.00000000000000000 
1 0.00000000000000000 0.00000000000000000 1.00000000000000000 0.00000000000000000 
2 -0.00000000000000178 -0.00000000000000355 1.00000000000000000 0.00000000000000000 -0.00000000000000000 1.00000000000000000 2.25000000000000000
1 0.00000000000000000 -6.00000000000000000 1.00000000000000000 0.00000000000000000 
2 -0.00000000000000178 -0.00000000000000355 1.00000000000000000 0.00000000000000000 -0.00000000000000000 1.00000000000000000 2.25000000000000000
1 0.00000000000000000 0.00000000000000000 0.00000000000000000 -1.00000000000000000 
1 6.28318530717958623 0.00000000000000000 0.00000000000000000 -1.00000000000000000 
1 0.00000000000000000 0.00000000000000000 1.00000000000000000 0.00000000000000000 
2 -0.00000000000001421 -0.00000000000000178 1.00000000000000000 0.00000000000000000 -0.00000000000000000 1.00000000000000000 3.50000000000000000
1 0.00000000000000000 -6.00000000000000000 1.00000000000000000 0.00000000000000000 
2 -0.00000000000001421 -0.00000000000000178 1.00000000000000000 0.00000000000000000 -0.00000000000000000 1.00000000000000000 3.50000000000000000
1 0.00000000000000000 0.00000000000000000 0.00000000000000000 -1.00000000000000000 
1 6.28318530717958623 0.00000000000000000 0.00000000000000000 -1.00000000000000000 
1 0.00000000000000000 0.00000000000000000 1.00000000000000000 0.00000000000000000 
2 -0.00000000000001421 -0.00000000000000178 1.00000000000000000 0.00000000000000000 -0.00000000000000000 1.00000000000000000 2.25000000000000000
1 0.00000000000000000 -6.00000000000000000 1.00000000000000000 0.00000000000000000 
2 -0.00000000000001421 -0.00000000000000178 1.00000000000000000 0.00000000000000000 -0.00000000000000000 1.00000000000000000 2.25000000000000000
1 0.00000000000000000 0.00000000000000000 0.00000000000000000 -1.00000000000000000 
1 6.28318530717958623 0.00000000000000000 0.00000000000000000 -1.00000000000000000 
1 0.00000000000000000 0.00000000000000000 1.00000000000000000 0.00000000000000000 
2 0.00000000000000000 0.00000000000000000 1.00000000000000000 0.00000000000000000 -0.00000000000000000 1.00000000000000000 3.50000000000000000
1 0.00000000000000000 -6.00000000000000000 1.00000000000000000 0.00000000000000000 
2 0.00000000000000000 0.00000000000000000 1.00000000000000000 0.00000000000000000 -0.00000000000000000 1.00000000000000000 3.50000000000000000
1 0.00000000000000000 0.00000000000000000 0.00000000000000000 -1.00000000000000000 
1 6.28318530717958623 0.00000000000000000 0.00000000000000000 -1.00000000000000000 
1 0.00000000000000000 0.00000000000000000 1.00000000000000000 0.00000000000000000 
2 0.00000000000000000 0.00000000000000000 1.00000000000000000 0.00000000000000000 -0.00000000000000000 1.00000000000000000 2.25000000000000000
1 0.00000000000000000 -6.00000000000000000 1.00000000000000000 0.00000000000000000 
2 0.00000000000000000 0.00000000000000000 1.00000000000000000 0.00000000000000000 -0.00000000000000000 1.00000000000000000 2.25000000000000000
1 0.00000000000000000 0.00000000000000000 0.00000000000000000 -1.00000000000000000 
1 6.28318530717958623 0.00000000000000000 0.00000000000000000 -1.00000000000000000 
1 0.00000000000000000 0.00000000000000000 1.00000000000000000 0.00000000000000000 
2 -0.00000000000000355 0.00000000000000000 1.00000000000000000 0.00000000000000000 -0.00000000000000000 1.00000000000000000 3.50000000000000000
1 0.00000000000000000 -6.00000000000000000 1.00000000000000000 0.00000000000000000 
2 -0.00000000000000355 0.00000000000000000 1.00000000000000000 0.00000000000000000 -0.00000000000000000 1.00000000000000000 3.50000000000000000
1 0.00000000000000000 0.00000000000000000 0.00000000000000000 -1.00000000000000000 
1 6.28318530717958623 0.00000000000000000 0.00000000000000000 -1.00000000000000000 
1 0.00000000000000000 0.00000000000000000 1.00000000000000000 0.00000000000000000 
2 -0.00000000000000355 0.00000000000000000 1.00000000000000000 0.00000000000000000 -0.00000000000000000 1.00000000000000000 2.25000000000000000
1 0.00000000000000000 -6.00000000000000000 1.00000000000000000 0.00000000000000000 
2 -0.00000000000000355 0.00000000000000000 1.00000000000000000 0.00000000000000000 -0.00000000000000000 1.00000000000000000 2.25000000000000000
1 0.00000000000000000 0.00000000000000000 0.00000000000000000 -1.00000000000000000 
1 6.28318530717958623 0.00000000000000000 0.00000000000000000 -1.00000000000000000 
1 0.00000000000000000 0.00000000000000000 1.00000000000000000 0.00000000000000000 
2 -0.00000000000005684 -0.00000000000000178 1.00000000000000000 0.00000000000000000 -0.00000000000000000 1.00000000000000000 3.50000000000000000
1 0.00000000000000000 -6.00000000000000000 1.00000000000000000 0.00000000000000000 
2 -0.00000000000005684 -0.00000000000000178 1.00000000000000000 0.00000000000000000 -0.00000000000000000 1.00000000000000000 3.50000000000000000
1 0.00000000000000000 0.00000000000000000 0.00000000000000000 -1.00000000000000000 
1 6.28318530717958623 0.00000000000000000 0.00000000000000000 -1.00000000000000000 
1 0.00000000000000000 0.00000000000000000 1.00000000000000000 0.00000000000000000 
2 -0.00000000000005684 -0.00000000000000178 1.00000000000000000 0.00000000000000000 -0.00000000000000000 1.00000000000000000 2.25000000000000000
1 0.00000000000000000 -6.00000000000000000 1.00000000000000000 0.00000000000000000 
2 -0.00000000000005684 -0.00000000000000178 1.00000000000000000 0.00000000000000000 -0.00000000000000000 1.00000000000000000 2.25000000000000000
1 0.00000000000000000 0.00000000000000000 0.00000000000000000 -1.00000000000000000 
1 6.28318530717958623 0.00000000000000000 0.00000000000000000 -1.00000000000000000 
1 0.00000000000000000 0.00000000000000000 1.00000000000000000 0.00000000000000000 
2 0.00000000000000000 -0.00000000000000178 1.00000000000000000 0.00000000000000000 -0.00000000000000000 1.00000000000000000 3.50000000000000000
1 0.00000000000000000 -6.00000000000000000 1.00000000000000000 0.00000000000000000 
2 0.00000000000000000 -0.00000000000000178 1.00000000000000000 0.00000000000000000 -0.00000000000000000 1.00000000000000000 3.50000000000000000
1 0.00000000000000000 0.00000000000000000 0.00000000000000000 -1.00000000000000000 
1 6.28318530717958623 0.00000000000000000 0.00000000000000000 -1.00000000000000000 
1 0.00000000000000000 0.00000000000000000 1.00000000000000000 0.00000000000000000 
2 0.00000000000000000 -0.00000000000000178 1.00000000000000000 0.00000000000000000 -0.00000000000000000 1.00000000000000000 2.25000000000000000
1 0.00000000000000000 -6.00000000000000000 1.00000000000000000 0.00000000000000000 
2 0.00000000000000000 -0.00000000000000178 1.00000000000000000 0.00000000000000000 -0.00000000000000000 1.00000000000000000 2.25000000000000000
1 0.00000000000000000 0.00000000000000000 0.00000000000000000 -1.00000000000000000 
1 6.28318530717958623 0.00000000000000000 0.00000000000000000 -1.00000000000000000 
1 0.00000000000000000 0.00000000000000000 1.00000000000000000 0.00000000000000000 
2 0.00000000000000000 0.00000000000000000 1.00000000000000000 0.00000000000000000 -0.00000000000000000 1.00000000000000000 3.50000000000000000
1 0.00000000000000000 -6.00000000000000000 1.00000000000000000 0.00000000000000000 
2 0.00000000000000000 0.00000000000000000 1.00000000000000000 0.00000000000000000 -0.00000000000000000 1.00000000000000000 3.50000000000000000
1 0.00000000000000000 0.00000000000000000 0.00000000000000000 -1.00000000000000000 
1 6.28318530717958623 0.00000000000000000 0.00000000000000000 -1.00000000000000000 
1 0.00000000000000000 0.00000000000000000 1.00000000000000000 0.00000000000000000 
2 0.00000000000000000 0.00000000000000000 1.00000000000000000 0.00000000000000000 -0.00000000000000000 1.00000000000000000 2.25000000000000000
1 0.00000000000000000 -6.00000000000000000 1.00000000000000000 0.00000000000000000 
2 0.00000000000000000 0.00000000000000000 1.00000000000000000 0.00000000000000000 -0.00000000000000000 1.00000000000000000 2.25000000000000000
1 0.00000000000000000 0.00000000000000000 0.00000000000000000 -1.00000000000000000 
1 6.28318530717958623 0.00000000000000000 0.00000000000000000 -1.00000000000000000 
1 0.00000000000000000 0.00000000000000000 1.00000000000000000 0.00000000000000000 
2 0.00000000000000000 0.00000000000000000 1.00000000000000000 0.00000000000000000 -0.00000000000000000 1.00000000000000000 3.50000000000000000
1 0.00000000000000000 -6.00000000000000000 1.00000000000000000 0.00000000000000000 
2 0.00000000000000000 0.00000000000000000 1.00000000000000000 0.00000000000000000 -0.00000000000000000 1.00000000000000000 3.50000000000000000
1 0.00000000000000000 0.00000000000000000 0.00000000000000000 -1.00000000000000000 
1 6.28318530717958623 0.00000000000000000 0.00000000000000000 -1.00000000000000000 
1 0.00000000000000000 0.00000000000000000 1.00000000000000000 0.00000000000000000 
2 0.00000000000000000 0.00000000000000000 1.00000000000000000 0.00000000000000000 -0.00000000000000000 1.00000000000000000 2.25000000000000000
1 0.00000000000000000 -6.00000000000000000 1.00000000000000000 0.00000000000000000 
2 0.00000000000000000 0.00000000000000000 1.00000000000000000 0.00000000000000000 -0.00000000000000000 1.00000000000000000 2.25000000000000000
1 0.00000000000000000 0.00000000000000000 0.00000000000000000 -1.00000000000000000 
1 6.28318530717958623 0.00000000000000000 0.00000000000000000 -1.00000000000000000 
1 0.00000000000000000 0.00000000000000000 1.00000000000000000 0.00000000000000000 
2 0.00000000000000000 0.00000000000000000 1.00000000000000000 0.00000000000000000 -0.00000000000000000 1.00000000000000000 3.50000000000000000
1 0.00000000000000000 -6.00000000000000000 1.00000000000000000 0.00000000000000000 
2 0.00000000000000000 0.00000000000000000 1.00000000000000000 0.00000000000000000 -0.00000000000000000 1.00000000000000000 3.50000000000000000
1 0.00000000000000000 0.00000000000000000 0.00000000000000000 -1.00000000000000000 
1 6.28318530717958623 0.00000000000000000 0.00000000000000000 -1.00000000000000000 
1 0.00000000000000000 0.00000000000000000 1.00000000000000000 0.00000000000000000 
2 0.00000000000000000 0.00000000000000000 1.00000000000000000 0.00000000000000000 -0.00000000000000000 1.00000000000000000 2.25000000000000000
1 0.00000000000000000 -6.00000000000000000 1.00000000000000000 0.00000000000000000 
2 0.00000000000000000 0.00000000000000000 1.00000000000000000 0.00000000000000000 -0.00000000000000000 1.00000000000000000 2.25000000000000000
Curves 54
1 17.00000000000000000 13.00000000000000000 2.00000000000000000 0.00000000000000000 0.00000000000000000 1.00000000000000000 
2 13.50000000000000000 13.00000000000000000 0.00000000000000000 0.00000000000000000 0.00000000000000000 1.00000000000000000 1.00000000000000000 0.00000000000000000 -0.00000000000000000 -0.00000000000000000 1.00000000000000000 0.00000000000000000 3.50000000000000000
2 13.50000000000000000 13.00000000000000000 0.00000000000000000 0.00000000000000000 0.00000000000000000 1.00000000000000000 1.00000000000000000 0.00000000000000000 -0.00000000000000000 -0.00000000000000000 1.00000000000000000 0.00000000000000000 3.50000000000000000
1 15.75000000000000000 13.00000000000000000 2.00000000000000000 0.00000000000000000 0.00000000000000000 1.00000000000000000 
2 13.50000000000000000 13.00000000000000000 0.00000000000000000 0.00000000000000000 0.00000000000000000 1.00000000000000000 1.00000000000000000 0.00000000000000000 -0.00000000000000000 -0.00000000000000000 1.00000000000000000 0.00000000000000000 2.25000000000000000
2 13.50000000000000000 13.00000000000000000 0.00000000000000000 0.00000000000000000 0.00000000000000000 1.00000000000000000 1.00000000000000000 0.00000000000000000 -0.00000000000000000 -0.00000000000000000 1.00000000000000000 0.00000000000000000 2.25000000000000000
1 108.00000000000000000 13.00000000000000000 2.00000000000000000 0.00000000000000000 0.00000000000000000 1.00000000000000000 
2 104.50000000000000000 13.00000000000000000 0.00000000000000000 0.00000000000000000 0.00000000000000000 1.00000000000000000 1.00000000000000000 0.00000000000000000 -0.00000000000000000 -0.00000000000000000 1.00000000000000000 0.00000000000000000 3.50000000000000000
2 104.50000000000000000 13.00000000000000000 0.00000000000000000 0.00000000000000000 0.00000000000000000 1.00000000000000000 1.00000000000000000 0.00000000000000000 -0.00000000000000000 -0.00000000000000000 1.00000000000000000 0.00000000000000000 3.50000000000000000
1 106.75000000000000000 13.00000000000000000 2.00000000000000000 0.00000000000000000 0.00000000000000000 1.00000000000000000 
2 104.50000000000000000 13.00000000000000000 0.00000000000000000 0.00000000000000000 0.00000000000000000 1.00000000000000000 1.00000000000000000 0.00000000000000000 -0.00000000000000000 -0.00000000000000000 1.00000000000000000 0.00000000000000000 2.25000000000000000
2 104.50000000000000000 13.00000000000000000 0.00000000000000000 0.00000000000000000 0.00000000000000000 1.00000000000000000 1.00000000000000000 0.00000000000000000 -0.00000000000000000 -0.00000000000000000 1.00000000000000000 0.00000000000000000 2.25000000000000000
1 17.00000000000000000 102.00000000000000000 2.00000000000000000 0.00000000000000000 0.00000000000000000 1.00000000000000000 
2 13.50000000000000000 102.00000000000000000 0.00000000000000000 0.00000000000000000 0.00000000000000000 1.00000000000000000 1.00000000000000000 0.00000000000000000 -0.00000000000000000 -0.00000000000000000 1.00000000000000000 0.00000000000000000 3.50000000000000000
2 13.50000000000000000 102.00000000000000000 0.00000000000000000 0.00000000000000000 0.00000000000000000 1.00000000000000000 1.00000000000000000 0.00000000000000000 -0.00000000000000000 -0.00000000000000000 1.00000000000000000 0.00000000000000000 3.50000000000000000
1 15.75000000000000000 102.00000000000000000 2.00000000000000000 0.00000000000000000 0.00000000000000000 1.00000000000000000 
2 13.50000000000000000 102.00000000000000000 0.00000000000000000 0.00000000000000000 0.00000000000000000 1.00000000000000000 1.00000000000000000 0.00000000000000000 -0.00000000000000000 -0.00000000000000000 1.00000000000000000 0.00000000000000000 2.25000000000000000
2 13.50000000000000000 102.00000000000000000 0.00000000000000000 0.00000000000000000 0.00000000000000000 1.00000000000000000 1.00000000000000000 0.00000000000000000 -0.00000000000000000 -0.00000000000000000 1.00000000000000000 0.00000000000000000 2.25000000000000000
1 20.00000000000000000 175.00000000000000000 2.00000000000000000 0.00000000000000000 0.00000000000000000 1.00000000000000000 
2 16.50000000000000000 175.00000000000000000 0.00000000000000000 0.00000000000000000 0.00000000000000000 1.00000000000000000 1.00000000000000000 0.00000000000000000 -0.00000000000000000 -0.00000000000000000 1.00000000000000000 0.00000000000000000 3.50000000000000000
2 16.50000000000000000 175.00000000000000000 0.00000000000000000 0.00000000000000000 0.00000000000000000 1.00000000000000000 1.00000000000000000 0.00000000000000000 -0.00000000000000000 -0.00000000000000000 1.00000000000000000 0.00000000000000000 3.50000000000000000
1 18.75000000000000000 175.00000000000000000 2.00000000000000000 0.00000000000000000 0.00000000000000000 1.00000000000000000 
2 16.50000000000000000 175.00000000000000000 0.00000000000000000 0.00000000000000000 0.00000000000000000 1.00000000000000000 1.00000000000000000 0.00000000000000000 -0.00000000000000000 -0.00000000000000000 1.00000000000000000 0.00000000000000000 2.25000000000000000
2 16.50000000000000000 175.00000000000000000 0.00000000000000000 0.00000000000000000 0.00000000000000000 1.00000000000000000 1.00000000000000000 0.00000000000000000 -0.00000000000000000 -0.00000000000000000 1.00000000000000000 0.00000000000000000 2.25000000000000000
1 280.00000000000000000 13.00000000000000000 2.00000000000000000 0.00000000000000000 0.00000000000000000 1.00000000000000000 
2 276.50000000000000000 13.00000000000000000 0.00000000000000000 0.00000000000000000 0.00000000000000000 1.00000000000000000 1.00000000000000000 0.00000000000000000 -0.00000000000000000 -0.00000000000000000 1.00000000000000000 0.00000000000000000 3.50000000000000000
2 276.50000000000000000 13.00000000000000000 0.00000000000000000 0.00000000000000000 0.00000000000000000 1.00000000000000000 1.00000000000000000 0.00000000000000000 -0.00000000000000000 -0.00000000000000000 1.00000000000000000 0.00000000000000000 3.50000000000000000
1 278.75000000000000000 13.00000000000000000 2.00000000000000000 0.00000000000000000 0.00000000000000000 1.00000000000000000 
2 276.50000000000000000 13.00000000000000000 0.00000000000000000 0.00000000000000000 0.00000000000000000 1.00000000000000000 1.00000000000000000 0.00000000000000000 -0.00000000000000000 -0.00000000000000000 1.00000000000000000 0.00000000000000000 2.25000000000000000
2 276.50000000000000000 13.00000000000000000 0.00000000000000000 0.00000000000000000 0.00000000000000000 1.00000000000000000 1.00000000000000000 0.00000000000000000 -0.00000000000000000 -0.00000000000000000 1.00000000000000000 0.00000000000000000 2.25000000000000000
1 189.00000000000000000 13.00000000000000000 2.00000000000000000 0.00000000000000000 0.00000000000000000 1.00000000000000000 
2 185.50000000000000000 13.00000000000000000 0.00000000000000000 0.00000000000000000 0.00000000000000000 1.00000000000000000 1.00000000000000000 0.00000000000000000 -0.00000000000000000 -0.00000000000000000 1.00000000000000000 0.00000000000000000 3.50000000000000000
2 185.50000000000000000 13.00000000000000000 0.00000000000000000 0.00000000000000000 0.00000000000000000 1.00000000000000000 1.00000000000000000 0.00000000000000000 -0.00000000000000000 -0.00000000000000000 1.00000000000000000 0.00000000000000000 3.50000000000000000
1 187.75000000000000000 13.00000000000000000 2.00000000000000000 0.00000000000000000 0.00000000000000000 1.00000000000000000 
2 185.50000000000000000 13.00000000000000000 0.00000000000000000 0.00000000000000000 0.00000000000000000 1.00000000000000000 1.00000000000000000 0.00000000000000000 -0.00000000000000000 -0.00000000000000000 1.00000000000000000 0.00000000000000000 2.25000000000000000
2 185.50000000000000000 13.00000000000000000 0.00000000000000000 0.00000000000000000 0.00000000000000000 1.00000000000000000 1.00000000000000000 0.00000000000000000 -0.00000000000000000 -0.00000000000000000 1.00000000000000000 0.00000000000000000 2.25000000000000000
1 280.00000000000000000 102.00000000000000000 2.00000000000000000 0.00000000000000000 0.00000000000000000 1.00000000000000000 
2 276.50000000000000000 102.00000000000000000 0.00000000000000000 0.00000000000000000 0.00000000000000000 1.00000000000000000 1.00000000000000000 0.00000000000000000 -0.00000000000000000 -0.00000000000000000 1.00000000000000000 0.00000000000000000 3.50000000000000000
2 276.50000000000000000 102.00000000000000000 0.00000000000000000 0.00000000000000000 0.00000000000000000 1.00000000000000000 1.00000000000000000 0.00000000000000000 -0.00000000000000000 -0.00000000000000000 1.00000000000000000 0.00000000000000000 3.50000000000000000
1 278.75000000000000000 102.00000000000000000 2.00000000000000000 0.00000000000000000 0.00000000000000000 1.00000000000000000 
2 276.50000000000000000 102.00000000000000000 0.00000000000000000 0.00000000000000000 0.00000000000000000 1.00000000000000000 1.00000000000000000 0.00000000000000000 -0.00000000000000000 -0.00000000000000000 1.00000000000000000 0.00000000000000000 2.25000000000000000
2 276.50000000000000000 102.00000000000000000 0.00000000000000000 0.00000000000000000 0.00000000000000000 1.00000000000000000 1.00000000000000000 0.00000000000000000 -0.00000000000000000 -0.00000000000000000 1.00000000000000000 0.00000000000000000 2.25000000000000000
1 277.00000000000000000 175.00000000000000000 2.00000000000000000 0.00000000000000000 0.00000000000000000 1.00000000000000000 
2 273.50000000000000000 175.00000000000000000 0.00000000000000000 0.00000000000000000 0.00000000000000000 1.00000000000000000 1.00000000000000000 0.00000000000000000 -0.00000000000000000 -0.00000000000000000 1.00000000000000000 0.00000000000000000 3.50000000000000000
2 273.50000000000000000 175.00000000000000000 0.00000000000000000 0.00000000000000000 0.00000000000000000 1.00000000000000000 1.00000000000000000 0.00000000000000000 -0.00000000000000000 -0.00000000000000000 1.00000000000000000 0.00000000000000000 3.50000000000000000
1 275.75000000000000000 175.00000000000000000 2.00000000000000000 0.00000000000000000 0.00000000000000000 1.00000000000000000 
2 273.50000000000000000 175.00000000000000000 0.00000000000000000 0.00000000000000000 0.00000000000000000 1.00000000000000000 1.00000000000000000 0.00000000000000000 -0.00000000000000000 -0.00000000000000000 1.00000000000000000 0.00000000000000000 2.25000000000000000
2 273.50000000000000000 175.00000000000000000 0.00000000000000000 0.00000000000000000 0.00000000000000000 1.00000000000000000 1.00000000000000000 0.00000000000000000 -0.00000000000000000 -0.00000000000000000 1.00000000000000000 0.00000000000000000 2.25000000000000000
1 148.50000000000000000 104.43166847433114697 2.00000000000000000 0.00000000000000000 0.00000000000000000 1.00000000000000000 
2 145.00000000000000000 104.43166847433114697 0.00000000000000000 0.00000000000000000 0.00000000000000000 1.00000000000000000 1.00000000000000000 0.00000000000000000 -0.00000000000000000 -0.00000000000000000 1.00000000000000000 0.00000000000000000 3.50000000000000000
2 145.00000000000000000 104.43166847433114697 0.00000000000000000 0.00000000000000000 0.00000000000000000 1.00000000000000000 1.00000000000000000 0.00000000000000000 -0.00000000000000000 -0.00000000000000000 1.00000000000000000 0.00000000000000000 3.50000000000000000
1 147.25000000000000000 104.43166847433114697 2.00000000000000000 0.00000000000000000 0.00000000000000000 1.00000000000000000 
2 145.00000000000000000 104.43166847433114697 0.00000000000000000 0.00000000000000000 0.00000000000000000 1.00000000000000000 1.00000000000000000 0.00000000000000000 -0.00000000000000000 -0.00000000000000000 1.00000000000000000 0.00000000000000000 2.25000000000000000
2 145.00000000000000000 104.43166847433114697 0.00000000000000000 0.00000000000000000 0.00000000000000000 1.00000000000000000 1.00000000000000000 0.00000000000000000 -0.00000000000000000 -0.00000000000000000 1.00000000000000000 0.00000000000000000 2.25000000000000000
Polygon3D 0
PolygonOnTriangulations 0
Surfaces 36
2 13.50000000000000000 13.00000000000000000 2.00000000000000000 -0.00000000000000000 -0.00000000000000000 -1.00000000000000000 1.00000000000000000 0.00000000000000000 0.00000000000000000 -0.00000000000000000 1.00000000000000000 -0.00000000000000000 3.50000000000000000
1 13.50000000000000178 13.00000000000000355 2.00000000000000000 0.00000000000000000 0.00000000000000000 1.00000000000000000 1.00000000000000000 0.00000000000000000 -0.00000000000000000 -0.00000000000000000 1.00000000000000000 0.00000000000000000 
1 13.50000000000000178 13.00000000000000355 2.00000000000000000 0.00000000000000000 0.00000000000000000 1.00000000000000000 1.00000000000000000 0.00000000000000000 -0.00000000000000000 -0.00000000000000000 1.00000000000000000 0.00000000000000000 
2 13.50000000000000000 13.00000000000000000 2.00000000000000000 -0.00000000000000000 -0.00000000000000000 -1.00000000000000000 1.00000000000000000 0.00000000000000000 0.00000000000000000 -0.00000000000000000 1.00000000000000000 -0.00000000000000000 2.25000000000000000
2 104.50000000000000000 13.00000000000000000 2.00000000000000000 -0.00000000000000000 -0.00000000000000000 -1.00000000000000000 1.00000000000000000 0.00000000000000000 0.00000000000000000 -0.00000000000000000 1.00000000000000000 -0.00000000000000000 3.50000000000000000
1 104.50000000000001421 13.00000000000000178 2.00000000000000000 0.00000000000000000 0.00000000000000000 1.00000000000000000 1.00000000000000000 0.00000000000000000 -0.00000000000000000 -0.00000000000000000 1.00000000000000000 0.00000000000000000 
1 104.50000000000001421 13.00000000000000178 2.00000000000000000 0.00000000000000000 0.00000000000000000 1.00000000000000000 1.00000000000000000 0.00000000000000000 -0.00000000000000000 -0.00000000000000000 1.00000000000000000 0.00000000000000000 
2 104.50000000000000000 13.00000000000000000 2.00000000000000000 -0.00000000000000000 -0.00000000000000000 -1.00000000000000000 1.00000000000000000 0.00000000000000000 0.00000000000000000 -0.00000000000000000 1.00000000000000000 -0.00000000000000000 2.25000000000000000
2 13.50000000000000000 102.00000000000000000 2.00000000000000000 -0.00000000000000000 -0.00000000000000000 -1.00000000000000000 1.00000000000000000 0.00000000000000000 0.00000000000000000 -0.00000000000000000 1.00000000000000000 -0.00000000000000000 3.50000000000000000
1 13.50000000000000000 102.00000000000000000 2.00000000000000000 0.00000000000000000 0.00000000000000000 1.00000000000000000 1.00000000000000000 0.00000000000000000 -0.00000000000000000 -0.00000000000000000 1.00000000000000000 0.00000000000000000 
1 13.50000000000000000 102.00000000000000000 2.00000000000000000 0.00000000000000000 0.00000000000000000 1.00000000000000000 1.00000000000000000 0.00000000000000000 -0.00000000000000000 -0.00000000000000000 1.00000000000000000 0.00000000000000000 
2 13.50000000000000000 102.00000000000000000 2.00000000000000000 -0.00000000000000000 -0.00000000000000000 -1.00000000000000000 1.00000000000000000 0.00000000000000000 0.00000000000000000 -0.00000000000000000 1.00000000000000000 -0.00000000000000000 2.25000000000000000
2 16.50000000000000000 175.00000000000000000 2.00000000000000000 -0.00000000000000000 -0.00000000000000000 -1.00000000000000000 1.00000000000000000 0.00000000000000000 0.00000000000000000 -0.00000000000000000 1.00000000000000000 -0.00000000000000000 3.50000000000000000
1 16.50000000000000355 175.00000000000000000 2.00000000000000000 0.00000000000000000 0.00000000000000000 1.00000000000000000 1.00000000000000000 0.00000000000000000 -0.00000000000000000 -0.00000000000000000 1.00000000000000000 0.00000000000000000 
1 16.50000000000000355 175.00000000000000000 2.00000000000000000 0.00000000000000000 0.00000000000000000 1.00000000000000000 1.00000000000000000 0.00000000000000000 -0.00000000000000000 -0.00000000000000000 1.00000000000000000 0.00000000000000000 
2 16.50000000000000000 175.00000000000000000 2.00000000000000000 -0.00000000000000000 -0.00000000000000000 -1.00000000000000000 1.00000000000000000 0.00000000000000000 0.00000000000000000 -0.00000000000000000 1.00000000000000000 -0.00000000000000000 2.25000000000000000
2 276.50000000000000000 13.00000000000000000 2.00000000000000000 -0.00000000000000000 -0.00000000000000000 -1.00000000000000000 1.00000000000000000 0.00000000000000000 0.00000000000000000 -0.00000000000000000 1.00000000000000000 -0.00000000000000000 3.50000000000000000
1 276.50000000000005684 13.00000000000000178 2.00000000000000000 0.00000000000000000 0.00000000000000000 1.00000000000000000 1.00000000000000000 0.00000000000000000 -0.00000000000000000 -0.00000000000000000 1.00000000000000000 0.00000000000000000 
1 276.50000000000005684 13.00000000000000178 2.00000000000000000 0.00000000000000000 0.00000000000000000 1.00000000000000000 1.00000000000000000 0.00000000000000000 -0.00000000000000000 -0.00000000000000000 1.00000000000000000 0.00000000000000000 
2 276.50000000000000000 13.00000000000000000 2.00000000000000000 -0.00000000000000000 -0.00000000000000000 -1.00000000000000000 1.00000000000000000 0.00000000000000000 0.00000000000000000 -0.00000000000000000 1.00000000000000000 -0.00000000000000000 2.25000000000000000
2 185.50000000000000000 13.00000000000000000 2.00000000000000000 -0.00000000000000000 -0.00000000000000000 -1.00000000000000000 1.00000000000000000 0.00000000000000000 0.00000000000000000 -0.00000000000000000 1.00000000000000000 -0.00000000000000000 3.50000000000000000
1 185.50000000000000000 13.00000000000000178 2.00000000000000000 0.00000000000000000 0.00000000000000000 1.00000000000000000 1.00000000000000000 0.00000000000000000 -0.00000000000000000 -0.00000000000000000 1.00000000000000000 0.00000000000000000 
1 185.50000000000000000 13.00000000000000178 2.00000000000000000 0.00000000000000000 0.00000000000000000 1.00000000000000000 1.00000000000000000 0.00000000000000000 -0.00000000000000000 -0.00000000000000000 1.00000000000000000 0.00000000000000000 
2 185.50000000000000000 13.00000000000000000 2.00000000000000000 -0.00000000000000000 -0.00000000000000000 -1.00000000000000000 1.00000000000000000 0.00000000000000000 0.00000000000000000 -0.00000000000000000 1.00000000000000000 -0.00000000000000000 2.25000000000000000
2 276.50000000000000000 102.00000000000000000 2.00000000000000000 -0.00000000000000000 -0.00000000000000000 -1.00000000000000000 1.00000000000000000 0.00000000000000000 0.00000000000000000 -0.00000000000000000 1.00000000000000000 -0.00000000000000000 3.50000000000000000
1 276.50000000000000000 102.00000000000000000 2.00000000000000000 0.00000000000000000 0.00000000000000000 1.00000000000000000 1.00000000000000000 0.00000000000000000 -0.00000000000000000 -0.00000000000000000 1.00000000000000000 0.00000000000000000 
1 276.50000000000000000 102.00000000000000000 2.00000000000000000 0.00000000000000000 0.00000000000000000 1.00000000000000000 1.00000000000000000 0.00000000000000000 -0.00000000000000000 -0.00000000000000000 1.00000000000000000 0.00000000000000000 
2 276.50000000000000000 102.00000000000000000 2.00000000000000000 -0.00000000000000000 -0.00000000000000000 -1.00000000000000000 1.00000000000000000 0.00000000000000000 0.00000000000000000 -0.00000000000000000 1.00000000000000000 -0.00000000000000000 2.25000000000000000
2 273.50000000000000000 175.00000000000000000 2.00000000000000000 -0.00000000000000000 -0.00000000000000000 -1.00000000000000000 1.00000000000000000 0.00000000000000000 0.00000000000000000 -0.00000000000000000 1.00000000000000000 -0.00000000000000000 3.50000000000000000
1 273.50000000000000000 175.00000000000000000 2.00000000000000000 0.00000000000000000 0.00000000000000000 1.00000000000000000 1.00000000000000000 0.00000000000000000 -0.00000000000000000 -0.00000000000000000 1.00000000000000000 0.00000000000000000 
1 273.50000000000000000 175.00000000000000000 2.00000000000000000 0.00000000000000000 0.00000000000000000 1.00000000000000000 1.00000000000000000 0.00000000000000000 -0.00000000000000000 -0.00000000000000000 1.00000000000000000 0.00000000000000000 
2 273.50000000000000000 175.00000000000000000 2.00000000000000000 -0.00000000000000000 -0.00000000000000000 -1.00000000000000000 1.00000000000000000 0.00000000000000000 0.00000000000000000 -0.00000000000000000 1.00000000000000000 -0.00000000000000000 2.25000000000000000
2 145.00000000000000000 104.43166847433114697 2.00000000000000000 -0.00000000000000000 -0.00000000000000000 -1.00000000000000000 1.00000000000000000 0.00000000000000000 0.00000000000000000 -0.00000000000000000 1.00000000000000000 -0.00000000000000000 3.50000000000000000
1 145.00000000000000000 104.43166847433114697 2.00000000000000000 0.00000000000000000 0.00000000000000000 1.00000000000000000 1.00000000000000000 0.00000000000000000 -0.00000000000000000 -0.00000000000000000 1.00000000000000000 0.00000000000000000 
1 145.00000000000000000 104.43166847433114697 2.00000000000000000 0.00000000000000000 0.00000000000000000 1.00000000000000000 1.00000000000000000 0.00000000000000000 -0.00000000000000000 -0.00000000000000000 1.00000000000000000 0.00000000000000000 
2 145.00000000000000000 104.43166847433114697 2.00000000000000000 -0.00000000000000000 -0.00000000000000000 -1.00000000000000000 1.00000000000000000 0.00000000000000000 0.00000000000000000 -0.00000000000000000 1.00000000000000000 -0.00000000000000000 2.25000000000000000
Triangulations 0

TShapes 199
Ve
0.000000100005000
17.000000000000000 13.000000000000000 2.000000000000000
0 0

0101101
*
Ve
0.000000100005000
17.000000000000000 13.000000000000000 8.000000000000000
0 0

0101101
*
Ed
 0.000000100005000 1 1 0
1  1 0 0.000000000000000 6.000000000000000
3  1 2CN 1 0 0.000000000000000 6.000000000000000
0

0101000
+199 0 -198 0 *
Ed
 0.000000100005000 1 1 0
1  2 0 0.000000000000000 6.283185307179586
2  3 1 4 0.000000000000000 6.283185307179586
2  4 2 5 0.000000000000000 6.283185307179586
0

0101000
+199 4 -199 4 *
Ed
 0.000000100005000 1 1 0
1  3 0 0.000000000000000 6.283185307179586
2  5 1 8 0.000000000000000 6.283185307179586
2  6 3 5 0.000000000000000 6.283185307179586
0

0101000
+198 8 -198 8 *
Wi

0101100
+197 0 -197 0 -196 3 +195 7 *
Fa
0  0.000000100005000 1 0

0111000
+194 0 *
Ve
0.000000100005000
15.750000000000000 13.000000000000000 2.000000000000000
0 0

0101101
*
Ve
0.000000100005000
15.750000000000000 13.000000000000000 8.000000000000000
0 0

0101101
*
Ed
 0.000000100005000 1 1 0
1  4 0 0.000000000000000 6.000000000000000
3  7 8CN 4 0 0.000000000000000 6.000000000000000
0

0101000
+192 0 -191 0 *
Ed
 0.000000100005000 1 1 0
1  5 0 0.000000000000000 6.283185307179586
2  9 4 4 0.000000000000000 6.283185307179586
2  10 2 5 0.000000000000000 6.283185307179586
0

0101000
+192 4 -192 4 *
Ed
 0.000000100005000 1 1 0
1  6 0 0.000000000000000 6.283185307179586
2  11 4 8 0.000000000000000 6.283185307179586
2  12 3 5 0.000000000000000 6.283185307179586
0

0101000
+191 8 -191 8 *
Wi

0101100
+190 0 -190 0 -189 3 +188 7 *
Fa
0  0.000000100005000 4 0

0111000
+187 0 *
Wi

0101100
+196 1 *
Wi

0101100
-189 1 *
Fa
0  0.000000100000000 2 0

0111000
+185 0 +184 0 *
Wi

0101100
+195 1 *
Wi

0101100
-188 1 *
Fa
0  0.000000100000000 3 0

0111000
+182 0 +181 0 *
Sh

0101100
+193 0 -186 0 +183 9 -180 10 *
So

0100000
-179 0 *
Ve
0.000000100005000
108.000000000000000 13.000000000000000 2.000000000000000
0 0

0101101
*
Ve
0.000000100005000
108.000000000000000 13.000000000000000 8.000000000000000
0 0

0101101
*
Ed
 0.000000100005000 1 1 0
1  7 0 0.000000000000000 6.000000000000000
3  13 14CN 5 0 0.000000000000000 6.000000000000000
0

0101000
+177 0 -176 0 *
Ed
 0.000000100005000 1 1 0
1  8 0 0.000000000000000 6.283185307179586
2  15 5 4 0.000000000000000 6.283185307179586
2  16 6 5 0.000000000000000 6.283185307179586
0

0101000
+177 4 -177 4 *
Ed
 0.000000100005000 1 1 0
1  9 0 0.000000000000000 6.283185307179586
2  17 5 8 0.000000000000000 6.283185307179586
2  18 7 5 0.000000000000000 6.283185307179586
0

0101000
+176 8 -176 8 *
Wi

0101100
+175 0 -175 0 -174 3 +173 7 *
Fa
0  0.000000100005000 5 0

0111000
+172 0 *
Ve
0.000000100005000
106.750000000000000 13.000000000000000 2.000000000000000
0 0

0101101
*
Ve
0.000000100005000
106.750000000000000 13.000000000000000 8.000000000000000
0 0

0101101
*
Ed
 0.000000100005000 1 1 0
1  10 0 0.000000000000000 6.000000000000000
3  19 20CN 8 0 0.000000000000000 6.000000000000000
0

0101000
+170 0 -169 0 *
Ed
 0.000000100005000 1 1 0
1  11 0 0.000000000000000 6.283185307179586
2  21 8 4 0.000000000000000 6.283185307179586
2  22 6 5 0.000000000000000 6.283185307179586
0

0101000
+170 4 -170 4 *
Ed
 0.000000100005000 1 1 0
1  12 0 0.000000000000000 6.283185307179586
2  23 8 8 0.000000000000000 6.283185307179586
2  24 7 5 0.000000000000000 6.283185307179586
0

0101000
+169 8 -169 8 *
Wi

0101100
+168 0 -168 0 -167 3 +166 7 *
Fa
0  0.000000100005000 8 0

0111000
+165 0 *
Wi

0101100
+174 1 *
Wi

0101100
-167 1 *
Fa
0  0.000000100000000 6 0

0111000
+163 0 +162 0 *
Wi

0101100
+173 1 *
Wi

0101100
-166 1 *
Fa
0  0.000000100000000 7 0

0111000
+160 0 +159 0 *
Sh

0101100
+171 0 -164 0 +161 9 -158 10 *
So

0100000
-157 0 *
Ve
0.000000100005000
17.000000000000000 102.000000000000000 2.000000000000000
0 0

0101101
*
Ve
0.000000100005000
17.000000000000000 102.000000000000000 8.000000000000000
0 0

0101101
*
Ed
 0.000000100005000 1 1 0
1  13 0 0.000000000000000 6.000000000000000
3  25 26CN 9 0 0.000000000000000 6.000000000000000
0

0101000
+155 0 -154 0 *
Ed
 0.000000100005000 1 1 0
1  14 0 0.000000000000000 6.283185307179586
2  27 9 4 0.000000000000000 6.283185307179586
2  28 10 5 0.000000000000000 6.283185307179586
0

0101000
+155 4 -155 4 *
Ed
 0.000000100005000 1 1 0
1  15 0 0.000000000000000 6.283185307179586
2  29 9 8 0.000000000000000 6.283185307179586
2  30 11 5 0.000000000000000 6.283185307179586
0

0101000
+154 8 -154 8 *
Wi

0101100
+153 0 -153 0 -152 3 +151 7 *
Fa
0  0.000000100005000 9 0

0111000
+150 0 *
Ve
0.000000100005000
15.750000000000000 102.000000000000000 2.000000000000000
0 0

0101101
*
Ve
0.000000100005000
15.750000000000000 102.000000000000000 8.000000000000000
0 0

0101101
*
Ed
 0.000000100005000 1 1 0
1  16 0 0.000000000000000 6.000000000000000
3  31 32CN 12 0 0.000000000000000 6.000000000000000
0

0101000
+148 0 -147 0 *
Ed
 0.000000100005000 1 1 0
1  17 0 0.000000000000000 6.283185307179586
2  33 12 4 0.000000000000000 6.283185307179586
2  34 10 5 0.000000000000000 6.283185307179586
0

0101000
+148 4 -148 4 *
Ed
 0.000000100005000 1 1 0
1  18 0 0.000000000000000 6.283185307179586
2  35 12 8 0.000000000000000 6.283185307179586
2  36 11 5 0.000000000000000 6.283185307179586
0

0101000
+147 8 -147 8 *
Wi

0101100
+146 0 -146 0 -145 3 +144 7 *
Fa
0  0.000000100005000 12 0

0111000
+143 0 *
Wi

0101100
+152 1 *
Wi

0101100
-145 1 *
Fa
0  0.000000100000000 10 0

0111000
+141 0 +140 0 *
Wi

0101100
+151 1 *
Wi

0101100
-144 1 *
Fa
0  0.000000100000000 11 0

0111000
+138 0 +137 0 *
Sh

0101100
+149 0 -142 0 +139 9 -136 10 *
So

0100000
-135 0 *
Ve
0.000000100005000
20.000000000000000 175.000000000000000 2.000000000000000
0 0

0101101
*
Ve
0.000000100005000
20.000000000000000 175.000000000000000 8.000000000000000
0 0

0101101
*
Ed
 0.000000100005000 1 1 0
1  19 0 0.000000000000000 6.000000000000000
3  37 38CN 13 0 0.000000000000000 6.000000000000000
0

0101000
+133 0 -132 0 *
Ed
 0.000000100005000 1 1 0
1  20 0 0.000000000000000 6.283185307179586
2  39 13 4 0.000000000000000 6.283185307179586
2  40 14 5 0.000000000000000 6.283185307179586
0

0101000
+133 4 -133 4 *
Ed
 0.000000100005000 1 1 0
1  21 0 0.000000000000000 6.283185307179586
2  41 13 8 0.000000000000000 6.283185307179586
2  42 15 5 0.000000000000000 6.283185307179586
0

0101000
+132 8 -132 8 *
Wi

0101100
+131 0 -131 0 -130 3 +129 7 *
Fa
0  0.000000100005000 13 0

0111000
+128 0 *
Ve
0.000000100005000
18.750000000000000 175.000000000000000 2.000000000000000
0 0

0101101
*
Ve
0.000000100005000
18.750000000000000 175.000000000000000 8.000000000000000
0 0

0101101
*
Ed
 0.000000100005000 1 1 0
1  22 0 0.000000000000000 6.000000000000000
3  43 44CN 16 0 0.000000000000000 6.000000000000000
0

0101000
+126 0 -125 0 *
Ed
 0.000000100005000 1 1 0
1  23 0 0.000000000000000 6.283185307179586
2  45 16 4 0.000000000000000 6.283185307179586
2  46 14 5 0.000000000000000 6.283185307179586
0

0101000
+126 4 -126 4 *
Ed
 0.000000100005000 1 1 0
1  24 0 0.000000000000000 6.283185307179586
2  47 16 8 0.000000000000000 6.283185307179586
2  48 15 5 0.000000000000000 6.283185307179586
0

0101000
+125 8 -125 8 *
Wi

0101100
+124 0 -124 0 -123 3 +122 7 *
Fa
0  0.000000100005000 16 0

0111000
+121 0 *
Wi

0101100
+130 1 *
Wi

0101100
-123 1 *
Fa
0  0.000000100000000 14 0

0111000
+119 0 +118 0 *
Wi

0101100
+129 1 *
Wi

0101100
-122 1 *
Fa
0  0.000000100000000 15 0

0111000
+116 0 +115 0 *
Sh

0101100
+127 0 -120 0 +117 9 -114 10 *
So

0100000
-113 0 *
Ve
0.000000100005000
280.000000000000000 13.000000000000000 2.000000000000000
0 0

0101101
*
Ve
0.000000100005000
280.000000000000000 13.000000000000000 8.000000000000000
0 0

0101101
*
Ed
 0.000000100005000 1 1 0
1  25 0 0.000000000000000 6.000000000000000
3  49 50CN 17 0 0.000000000000000 6.000000000000000
0

0101000
+111 0 -110 0 *
Ed
 0.000000100005000 1 1 0
1  26 0 0.000000000000000 6.283185307179586
2  51 17 4 0.000000000000000 6.283185307179586
2  52 18 5 0.000000000000000 6.283185307179586
0

0101000
+111 4 -111 4 *
Ed
 0.000000100005000 1 1 0
1  27 0 0.000000000000000 6.283185307179586
2  53 17 8 0.000000000000000 6.283185307179586
2  54 19 5 0.000000000000000 6.283185307179586
0

0101000
+110 8 -110 8 *
Wi

0101100
+109 0 -109 0 -108 3 +107 7 *
Fa
0  0.000000100005000 17 0

0111000
+106 0 *
Ve
0.000000100005000
278.750000000000000 13.000000000000000 2.000000000000000
0 0

0101101
*
Ve
0.000000100005000
278.750000000000000 13.000000000000000 8.000000000000000
0 0

0101101
*
Ed
 0.000000100005000 1 1 0
1  28 0 0.000000000000000 6.000000000000000
3  55 56CN 20 0 0.000000000000000 6.000000000000000
0

0101000
+104 0 -103 0 *
Ed
 0.000000100005000 1 1 0
1  29 0 0.000000000000000 6.283185307179586
2  57 20 4 0.000000000000000 6.283185307179586
2  58 18 5 0.000000000000000 6.283185307179586
0

0101000
+104 4 -104 4 *
Ed
 0.000000100005000 1 1 0
1  30 0 0.000000000000000 6.283185307179586
2  59 20 8 0.000000000000000 6.283185307179586
2  60 19 5 0.000000000000000 6.283185307179586
0

0101000
+103 8 -103 8 *
Wi

0101100
+102 0 -102 0 -101 3 +100 7 *
Fa
0  0.000000100005000 20 0

0111000
+99 0 *
Wi

0101100
+108 1 *
Wi

0101100
-101 1 *
Fa
0  0.000000100000000 18 0

0111000
+97 0 +96 0 *
Wi

0101100
+107 1 *
Wi

0101100
-100 1 *
Fa
0  0.000000100000000 19 0

0111000
+94 0 +93 0 *
Sh

0101100
+105 0 -98 0 +95 9 -92 10 *
So

0100000
-91 0 *
Ve
0.000000100005000
189.000000000000000 13.000000000000000 2.000000000000000
0 0

0101101
*
Ve
0.000000100005000
189.000000000000000 13.000000000000000 8.000000000000000
0 0

0101101
*
Ed
 0.000000100005000 1 1 0
1  31 0 0.000000000000000 6.000000000000000
3  61 62CN 21 0 0.000000000000000 6.000000000000000
0

0101000
+89 0 -88 0 *
Ed
 0.000000100005000 1 1 0
1  32 0 0.000000000000000 6.283185307179586
2  63 21 4 0.000000000000000 6.283185307179586
2  64 22 5 0.000000000000000 6.283185307179586
0

0101000
+89 4 -89 4 *
Ed
 0.000000100005000 1 1 0
1  33 0 0.000000000000000 6.283185307179586
2  65 21 8 0.000000000000000 6.283185307179586
2  66 23 5 0.000000000000000 6.283185307179586
0

0101000
+88 8 -88 8 *
Wi

0101100
+87 0 -87 0 -86 3 +85 7 *
Fa
0  0.000000100005000 21 0

0111000
+84 0 *
Ve
0.000000100005000
187.750000000000000 13.000000000000000 2.000000000000000
0 0

0101101
*
Ve
0.000000100005000
187.750000000000000 13.000000000000000 8.000000000000000
0 0

0101101
*
Ed
 0.000000100005000 1 1 0
1  34 0 0.000000000000000 6.000000000000000
3  67 68CN 24 0 0.000000000000000 6.000000000000000
0

0101000
+82 0 -81 0 *
Ed
 0.000000100005000 1 1 0
1  35 0 0.000000000000000 6.283185307179586
2  69 24 4 0.000000000000000 6.283185307179586
2  70 22 5 0.000000000000000 6.283185307179586
0

0101000
+82 4 -82 4 *
Ed
 0.000000100005000 1 1 0
1  36 0 0.000000000000000 6.283185307179586
2  71 24 8 0.000000000000000 6.283185307179586
2  72 23 5 0.000000000000000 6.283185307179586
0

0101000
+81 8 -81 8 *
Wi

0101100
+80 0 -80 0 -79 3 +78 7 *
Fa
0  0.000000100005000 24 0

0111000
+77 0 *
Wi

0101100
+86 1 *
Wi

0101100
-79 1 *
Fa
0  0.000000100000000 22 0

0111000
+75 0 +74 0 *
Wi

0101100
+85 1 *
Wi

0101100
-78 1 *
Fa
0  0.000000100000000 23 0

0111000
+72 0 +71 0 *
Sh

0101100
+83 0 -76 0 +73 9 -70 10 *
So

0100000
-69 0 *
Ve
0.000000100005000
280.000000000000000 102.000000000000000 2.000000000000000
0 0

0101101
*
Ve
0.000000100005000
280.000000000000000 102.000000000000000 8.000000000000000
0 0

0101101
*
Ed
 0.000000100005000 1 1 0
1  37 0 0.000000000000000 6.000000000000000
3  73 74CN 25 0 0.000000000000000 6.000000000000000
0

0101000
+67 0 -66 0 *
Ed
 0.000000100005000 1 1 0
1  38 0 0.000000000000000 6.283185307179586
2  75 25 4 0.000000000000000 6.283185307179586
2  76 26 5 0.000000000000000 6.283185307179586
0

0101000
+67 4 -67 4 *
Ed
 0.000000100005000 1 1 0
1  39 0 0.000000000000000 6.283185307179586
2  77 25 8 0.000000000000000 6.283185307179586
2  78 27 5 0.000000000000000 6.283185307179586
0

0101000
+66 8 -66 8 *
Wi

0101100
+65 0 -65 0 -64 3 +63 7 *
Fa
0  0.000000100005000 25 0

0111000
+62 0 *
Ve
0.000000100005000
278.750000000000000 102.000000000000000 2.000000000000000
0 0

0101101
*
Ve
0.000000100005000
278.750000000000000 102.000000000000000 8.000000000000000
0 0

0101101
*
Ed
 0.000000100005000 1 1 0
1  40 0 0.000000000000000 6.000000000000000
3  79 80CN 28 0 0.000000000000000 6.000000000000000
0

0101000
+60 0 -59 0 *
Ed
 0.000000100005000 1 1 0
1  41 0 0.000000000000000 6.283185307179586
2  81 28 4 0.000000000000000 6.283185307179586
2  82 26 5 0.000000000000000 6.283185307179586
0

0101000
+60 4 -60 4 *
Ed
 0.000000100005000 1 1 0
1  42 0 0.000000000000000 6.283185307179586
2  83 28 8 0.000000000000000 6.283185307179586
2  84 27 5 0.000000000000000 6.283185307179586
0

0101000
+59 8 -59 8 *
Wi

0101100
+58 0 -58 0 -57 3 +56 7 *
Fa
0  0.000000100005000 28 0

0111000
+55 0 *
Wi

0101100
+64 1 *
Wi

0101100
-57 1 *
Fa
0  0.000000100000000 26 0

0111000
+53 0 +52 0 *
Wi

0101100
+63 1 *
Wi

0101100
-56 1 *
Fa
0  0.000000100000000 27 0

0111000
+50 0 +49 0 *
Sh

0101100
+61 0 -54 0 +51 9 -48 10 *
So

0100000
-47 0 *
Ve
0.000000100005000
277.000000000000000 175.000000000000000 2.000000000000000
0 0

0101101
*
Ve
0.000000100005000
277.000000000000000 175.000000000000000 8.000000000000000
0 0

0101101
*
Ed
 0.000000100005000 1 1 0
1  43 0 0.000000000000000 6.000000000000000
3  85 86CN 29 0 0.000000000000000 6.000000000000000
0

0101000
+45 0 -44 0 *
Ed
 0.000000100005000 1 1 0
1  44 0 0.000000000000000 6.283185307179586
2  87 29 4 0.000000000000000 6.283185307179586
2  88 30 5 0.000000000000000 6.283185307179586
0

0101000
+45 4 -45 4 *
Ed
 0.000000100005000 1 1 0
1  45 0 0.000000000000000 6.283185307179586
2  89 29 8 0.000000000000000 6.283185307179586
2  90 31 5 0.000000000000000 6.283185307179586
0

0101000
+44 8 -44 8 *
Wi

0101100
+43 0 -43 0 -42 3 +41 7 *
Fa
0  0.000000100005000 29 0

0111000
+40 0 *
Ve
0.000000100005000
275.750000000000000 175.000000000000000 2.000000000000000
0 0

0101101
*
Ve
0.000000100005000
275.750000000000000 175.000000000000000 8.000000000000000
0 0

0101101
*
Ed
 0.000000100005000 1 1 0
1  46 0 0.000000000000000 6.000000000000000
3  91 92CN 32 0 0.000000000000000 6.000000000000000
0

0101000
+38 0 -37 0 *
Ed
 0.000000100005000 1 1 0
1  47 0 0.000000000000000 6.283185307179586
2  93 32 4 0.000000000000000 6.283185307179586
2  94 30 5 0.000000000000000 6.283185307179586
0

0101000
+38 4 -38 4 *
Ed
 0.000000100005000 1 1 0
1  48 0 0.000000000000000 6.283185307179586
2  95 32 8 0.000000000000000 6.283185307179586
2  96 31 5 0.000000000000000 6.283185307179586
0

0101000
+37 8 -37 8 *
Wi

0101100
+36 0 -36 0 -35 3 +34 7 *
Fa
0  0.000000100005000 32 0

0111000
+33 0 *
Wi

0101100
+42 1 *
Wi

0101100
-35 1 *
Fa
0  0.000000100000000 30 0

0111000
+31 0 +30 0 *
Wi

0101100
+41 1 *
Wi

0101100
-34 1 *
Fa
0  0.000000100000000 31 0

0111000
+28 0 +27 0 *
Sh

0101100
+39 0 -32 0 +29 9 -26 10 *
So

0100000
-25 0 *
Ve
0.000000100005000
148.500000000000000 104.431668474331147 2.000000000000000
0 0

0101101
*
Ve
0.000000100005000
148.500000000000000 104.431668474331147 8.000000000000000
0 0

0101101
*
Ed
 0.000000100005000 1 1 0
1  49 0 0.000000000000000 6.000000000000000
3  97 98CN 33 0 0.000000000000000 6.000000000000000
0

0101000
+23 0 -22 0 *
Ed
 0.000000100005000 1 1 0
1  50 0 0.000000000000000 6.283185307179586
2  99 33 4 0.000000000000000 6.283185307179586
2  100 34 5 0.000000000000000 6.283185307179586
0

0101000
+23 4 -23 4 *
Ed
 0.000000100005000 1 1 0
1  51 0 0.000000000000000 6.283185307179586
2  101 33 8 0.000000000000000 6.283185307179586
2  102 35 5 0.000000000000000 6.283185307179586
0

0101000
+22 8 -22 8 *
Wi

0101100
+21 0 -21 0 -20 3 +19 7 *
Fa
0  0.000000100005000 33 0

0111000
+18 0 *
Ve
0.000000100005000
147.250000000000000 104.431668474331147 2.000000000000000
0 0

0101101
*
Ve
0.000000100005000
147.250000000000000 104.431668474331147 8.000000000000000
0 0

0101101
*
Ed
 0.000000100005000 1 1 0
1  52 0 0.000000000000000 6.000000000000000
3  103 104CN 36 0 0.000000000000000 6.000000000000000
0

0101000
+16 0 -15 0 *
Ed
 0.000000100005000 1 1 0
1  53 0 0.000000000000000 6.283185307179586
2  105 36 4 0.000000000000000 6.283185307179586
2  106 34 5 0.000000000000000 6.283185307179586
0

0101000
+16 4 -16 4 *
Ed
 0.000000100005000 1 1 0
1  54 0 0.000000000000000 6.283185307179586
2  107 36 8 0.000000000000000 6.283185307179586
2  108 35 5 0.000000000000000 6.283185307179586
0

0101000
+15 8 -15 8 *
Wi

0101100
+14 0 -14 0 -13 3 +12 7 *
Fa
0  0.000000100005000 36 0

0111000
+11 0 *
Wi

0101100
+20 1 *
Wi

0101100
-13 1 *
Fa
0  0.000000100000000 34 0

0111000
+9 0 +8 0 *
Wi

0101100
+19 1 *
Wi

0101100
-12 1 *
Fa
0  0.000000100000000 35 0

0111000
+6 0 +5 0 *
Sh

0101100
+17 0 -10 0 +7 9 -4 10 *
So

0100000
-3 0 *
Co

1100000
+178 0 +156 0 +134 0 +112 0 +90 0 +68 0 +46 0 +24 0 +2 0 *

+1 0 