
CASCADE Topology V1, (c) Matra-Datavision
Locations 10
1
0.000000000000000 0.000000000000000 -1.000000000000000 28.000000000000000 
-1.000000000000000 0.000000000000000 0.000000000000000 0.000000000000000 
0.000000000000000 1.000000000000000 0.000000000000000 0.000000000000000 
1
1.000000000000000 0.000000000000000 0.000000000000000 0.000000000000000 
0.000000000000000 1.000000000000000 0.000000000000000 0.000000000000000 
0.000000000000000 0.000000000000000 1.000000000000000 0.000000000000000 
2  1 1 2 -1 0
2  2 1 1 -1 0
2  1 -1 0
1
1.000000000000000 0.000000000000000 0.000000000000000 1.600000000000000 
0.000000000000000 1.000000000000000 0.000000000000000 -0.000000000000000 
0.000000000000000 0.000000000000000 1.000000000000000 -0.000000000000000 
2  1 1 2 -1 6 1 0
2  6 -1 2 1 1 -1 0
2  2 -1 0
2  2 -1 6 1 0
Curve2ds 18
1 3.14159342305394329 0.00000000000000000 0.00000000000000000 -1.00000000000000000 
1 0.00000000000000000 0.00000000000000000 0.00000000000000000 -1.00000000000000000 
1 4.71238774067920652 0.00000000000000000 0.00000000000000000 -1.00000000000000000 
1 10.59998685911881466 0.00000000000000000 0.00000000000000000 -1.00000000000000000 
1 0.00000000000000000 0.00000000000000000 1.00000000000000000 0.00000000000000000 
2 7.35700777213001889 7.35701053022583551 0.00000000000000000 1.00000000000000000 1.00000000000000000 -0.00000000000000000 10.60000000000007958
1 0.00000000000000000 -1.60000000000000009 1.00000000000000000 0.00000000000000000 
2 7.35700777213001889 7.35701053022583551 0.00000000000000000 1.00000000000000000 1.00000000000000000 -0.00000000000000000 10.60000000000007958
1 0.00000000000000000 0.00000000000000000 0.00000000000000000 -1.00000000000000000 
1 10.59999184367192981 0.00000000000000000 0.00000000000000000 -1.00000000000000000 
1 0.00000000000000000 0.00000000000000000 1.00000000000000000 0.00000000000000000 
1 -3.24299222786190189 -3.24298946977108926 0.00000000000000000 1.00000000000000000 
1 0.00000000000000000 -1.60000000000000142 1.00000000000000000 0.00000000000000000 
1 -3.24299222786190189 -3.24298946977108926 0.00000000000000000 1.00000000000000000 
1 0.00000000000000000 0.00000000000000000 1.00000000000000000 0.00000000000000000 
1 7.35699961581002793 -3.24298946977108926 -1.00000000000000000 0.00000000000000000 
1 0.00000000000000000 -1.60000000000000142 1.00000000000000000 0.00000000000000000 
1 7.35699961581002793 -3.24298946977108926 -1.00000000000000000 0.00000000000000000 
Curves 9
1 28.00000000000000000 193.99999999999690203 12.59999184368007796 1.00000000000000000 -0.00000000000000000 -0.00000000000000000 
1 28.00000000000000000 183.40001314087808737 2.00000000000814815 1.00000000000000000 -0.00000000000000000 -0.00000000000000000 
2 -183.39999999999997726 12.60000000000006892 0.00000000000000000 0.00000000000000000 0.00000000000000000 1.00000000000000000 1.00000000000000000 0.00000000000000000 -0.00000000000000000 -0.00000000000000000 1.00000000000000000 0.00000000000000000 10.60000000000006537
2 -183.39999999999997726 12.60000000000006892 0.00000000000000000 0.00000000000000000 0.00000000000000000 1.00000000000000000 1.00000000000000000 0.00000000000000000 -0.00000000000000000 -0.00000000000000000 1.00000000000000000 0.00000000000000000 10.60000000000006537
1 28.00000000000000000 193.99999999999690203 2.00000000000814815 1.00000000000000000 -0.00000000000000000 -0.00000000000000000 
1 -193.99999999999690203 2.00000000000814815 0.00000000000000000 1.00000000000000000 0.00000000000000000 0.00000000000000000 
1 -193.99999999999690203 2.00000000000814815 0.00000000000000000 1.00000000000000000 0.00000000000000000 0.00000000000000000 
1 -193.99999999999690203 12.59999184368007796 0.00000000000000000 0.00000000000000000 -1.00000000000000000 0.00000000000000000 
1 -193.99999999999690203 12.59999184368007796 0.00000000000000000 0.00000000000000000 -1.00000000000000000 0.00000000000000000 
Polygon3D 0
PolygonOnTriangulations 0
Surfaces 5
2 28.00000000000000000 183.39999999999997726 12.60000000000006892 -1.00000000000000000 0.00000000000000000 0.00000000000000000 0.00000000000000000 -1.00000000000000000 0.00000000000000000 0.00000000000000000 0.00000000000000000 1.00000000000000000 10.60000000000006537
1 28.00000000000000000 193.99999999999690203 12.59999184368007796 0.00000000000000000 1.00000000000000000 0.00000000000000000 0.00000000000000000 0.00000000000000000 -1.00000000000000000 -1.00000000000000000 0.00000000000000000 0.00000000000000000 
1 28.00000000000000000 193.99999999999690203 2.00000000000814815 -0.00000000000000000 -0.00000000000000000 -1.00000000000000000 0.00000000000000000 -1.00000000000000000 0.00000000000000000 -1.00000000000000000 0.00000000000000000 0.00000000000000000 
1 28.00000000000000000 190.75701053022581277 5.24299222787005004 1.00000000000000000 0.00000000000000000 0.00000000000000000 -0.00000000000000000 0.00000000000000000 1.00000000000000000 0.00000000000000000 -1.00000000000000000 0.00000000000000000 
1 28.00000000000000000 190.75701053022581277 5.24299222787005004 1.00000000000000000 0.00000000000000000 0.00000000000000000 -0.00000000000000000 0.00000000000000000 1.00000000000000000 0.00000000000000000 -1.00000000000000000 0.00000000000000000 
Triangulations 0

TShapes 27
Ve
0.000000100000000
28.000000000000000 193.999999999996902 12.599991843680078
0 0

0101101
*
Ve
0.000000100000000
29.600000000000001 193.999999999996902 12.599991843680078
0 0

0101101
*
Ed
 0.000000100000000 1 1 0
1  1 0 0.000000000000000 1.600000000000000
2  1 1 0 0.000000000000000 1.600000000000000
2  2 2 0 0.000000000000000 1.600000000000000
0

0101000
+27 0 -26 0 *
Ve
0.000000100005000
28.000000000000000 183.400013140878087 2.000000000008148
0 0

0101101
*
Ve
0.000000100005000
29.600000000000001 183.400013140878087 2.000000000008148
0 0

0101101
*
Ed
 0.000000100000000 1 1 0
1  2 0 0.000000000000000 1.600000000000000
2  3 1 0 0.000000000000000 1.600000000000000
2  4 3 0 0.000000000000000 1.600000000000000
0

0101000
+24 0 -23 0 *
Ed
 0.000000100000000 1 1 0
1  3 0 3.141593423053943 4.712387740679207
2  5 1 4 3.141593423053943 4.712387740679207
2  6 4 5 3.141593423053943 4.712387740679207
0

0101000
+27 4 -24 4 *
Ed
 0.000000100000000 1 1 0
1  4 0 3.141593423053943 4.712387740679207
2  7 1 8 3.141593423053943 4.712387740679207
2  8 5 5 3.141593423053943 4.712387740679207
0

0101000
+26 8 -23 8 *
Wi

0101100
+25 0 -22 0 -21 3 +20 7 *
Fa
0  0.000000100000000 1 0

0111000
+19 0 *
Ve
0.000000100000000
28.000000000000000 193.999999999996902 2.000000000008148
0 0

0101101
*
Ve
0.000000100000000
29.600000000000001 193.999999999996902 2.000000000008148
0 0

0101101
*
Ed
 0.000000100000000 1 1 0
1  5 0 0.000000000000000 1.600000000000000
2  9 3 0 0.000000000000000 1.600000000000000
2  10 2 0 0.000000000000000 1.600000000000000
0

0101000
+17 0 -16 0 *
Ed
 0.000000100000000 1 1 0
1  6 0 0.000000000000000 10.599986859118815
2  11 3 4 0.000000000000000 10.599986859118815
2  12 4 5 0.000000000000000 10.599986859118815
0

0101000
+17 4 -24 4 *
Ed
 0.000000100000000 1 1 0
1  7 0 0.000000000000000 10.599986859118815
2  13 3 8 0.000000000000000 10.599986859118815
2  14 5 5 0.000000000000000 10.599986859118815
0

0101000
+16 8 -23 8 *
Wi

0101100
+15 0 -22 0 -14 3 +13 7 *
Fa
0  0.000000100000000 3 0

0111000
+12 0 *
Ed
 0.000000100000000 1 1 0
1  8 0 0.000000000000000 10.599991843671930
2  15 2 4 0.000000000000000 10.599991843671930
2  16 4 5 0.000000000000000 10.599991843671930
0

0101000
+27 4 -17 4 *
Ed
 0.000000100000000 1 1 0
1  9 0 0.000000000000000 10.599991843671930
2  17 2 8 0.000000000000000 10.599991843671930
2  18 5 5 0.000000000000000 10.599991843671930
0

0101000
+26 8 -16 8 *
Wi

0101100
+25 0 -15 0 -10 3 +9 7 *
Fa
0  0.000000100000000 2 0

0111000
+8 0 *
Wi

0101100
+21 0 -14 0 -10 0 *
Fa
0  0.000000100000000 4 0

0111000
+6 1 *
Wi

0101100
+20 0 -13 0 -9 0 *
Fa
0  0.000000100000000 5 0

0111000
+4 1 *
Sh

0101100
+18 0 -11 0 -7 0 +5 9 -3 10 *
So

1100000
-2 0 *

+1 0 