
CASCADE Topology V1, (c) Matra-Datavision
Locations 14
1
1.000000000000000 0.000000000000000 0.000000000000000 0.000000000000000 
0.000000000000000 1.000000000000000 0.000000000000000 0.000000000000000 
0.000000000000000 0.000000000000000 1.000000000000000 0.000000000000000 
2  1 -1 0
1
1.000000000000000 0.000000000000000 0.000000000000000 0.000000000000000 
0.000000000000000 1.000000000000000 0.000000000000000 0.000000000000000 
0.000000000000000 0.000000000000000 1.000000000000000 0.000000000000000 
1
1.000000000000000 0.000000000000000 0.000000000000000 0.000000000000000 
0.000000000000000 1.000000000000000 0.000000000000000 0.000000000000000 
0.000000000000000 0.000000000000000 1.000000000000000 0.000000000000000 
2  3 1 4 -1 0
2  4 1 3 -1 0
2  3 -1 0
2  1 -1 4 1 3 -1 0
1
1.000000000000000 0.000000000000000 0.000000000000000 0.000000000000000 
0.000000000000000 1.000000000000000 0.000000000000000 0.000000000000000 
0.000000000000000 0.000000000000000 1.000000000000000 2.000000000000000 
2  3 1 4 -1 9 1 0
2  9 -1 4 1 3 -1 0
2  1 -1 9 -1 4 1 3 -1 0
2  4 -1 0
2  4 -1 9 1 0
Curve2ds 78
1 0.00000000000000000 0.00000000000000000 0.00000000000000000 -1.00000000000000000 
1 183.00000000000000000 0.00000000000000000 0.00000000000000000 -1.00000000000000000 
1 290.00000000000000000 0.00000000000000000 0.00000000000000000 -1.00000000000000000 
1 0.00000000000000000 0.00000000000000000 0.00000000000000000 -1.00000000000000000 
1 0.00000000000000000 0.00000000000000000 1.00000000000000000 0.00000000000000000 
1 -145.00000000000000000 -91.50000000000000000 1.00000000000000000 0.00000000000000000 
1 0.00000000000000000 -2.00000000000000000 1.00000000000000000 0.00000000000000000 
1 -145.00000000000000000 -91.50000000000000000 1.00000000000000000 0.00000000000000000 
1 183.00000000000000000 0.00000000000000000 0.00000000000000000 -1.00000000000000000 
1 0.00000000000000000 -0.00000000000000000 0.00000000000000000 -1.00000000000000000 
1 0.00000000000000000 0.00000000000000000 1.00000000000000000 0.00000000000000000 
1 145.00000000000000000 -91.50000000000000000 0.00000000000000000 1.00000000000000000 
1 0.00000000000000000 -2.00000000000000000 1.00000000000000000 0.00000000000000000 
1 145.00000000000000000 -91.50000000000000000 0.00000000000000000 1.00000000000000000 
1 290.00000000000000000 0.00000000000000000 0.00000000000000000 -1.00000000000000000 
1 0.00000000000000000 0.00000000000000000 0.00000000000000000 -1.00000000000000000 
1 0.00000000000000000 -0.00000000000000000 1.00000000000000000 0.00000000000000000 
1 145.00000000000000000 91.50000000000000000 -1.00000000000000000 0.00000000000000000 
1 0.00000000000000000 -2.00000000000000000 1.00000000000000000 0.00000000000000000 
1 145.00000000000000000 91.50000000000000000 -1.00000000000000000 0.00000000000000000 
1 0.00000000000000000 0.00000000000000000 1.00000000000000000 0.00000000000000000 
1 -145.00000000000000000 91.50000000000000000 0.00000000000000000 -1.00000000000000000 
1 0.00000000000000000 -2.00000000000000000 1.00000000000000000 0.00000000000000000 
1 -145.00000000000000000 91.50000000000000000 0.00000000000000000 -1.00000000000000000 
1 0.00000000000000000 0.00000000000000000 0.00000000000000000 -1.00000000000000000 
1 6.28318530717958623 0.00000000000000000 0.00000000000000000 -1.00000000000000000 
1 0.00000000000000000 0.00000000000000000 1.00000000000000000 0.00000000000000000 
2 40.50000000000000000 -78.50000000000000000 1.00000000000000000 0.00000000000000000 -0.00000000000000000 1.00000000000000000 2.25000000000000000
1 0.00000000000000000 -2.00000000000000000 1.00000000000000000 0.00000000000000000 
2 40.50000000000000000 -78.50000000000000000 1.00000000000000000 0.00000000000000000 -0.00000000000000000 1.00000000000000000 2.25000000000000000
1 0.00000000000000000 0.00000000000000000 0.00000000000000000 -1.00000000000000000 
1 6.28318530717958623 0.00000000000000000 0.00000000000000000 -1.00000000000000000 
1 0.00000000000000000 0.00000000000000000 1.00000000000000000 0.00000000000000000 
2 -128.50000000000000000 83.50000000000000000 1.00000000000000000 0.00000000000000000 -0.00000000000000000 1.00000000000000000 2.25000000000000000
1 0.00000000000000000 -2.00000000000000000 1.00000000000000000 0.00000000000000000 
2 -128.50000000000000000 83.50000000000000000 1.00000000000000000 0.00000000000000000 -0.00000000000000000 1.00000000000000000 2.25000000000000000
1 0.00000000000000000 0.00000000000000000 0.00000000000000000 -1.00000000000000000 
1 6.28318530717958623 0.00000000000000000 0.00000000000000000 -1.00000000000000000 
1 0.00000000000000000 0.00000000000000000 1.00000000000000000 0.00000000000000000 
2 0.00000000000000000 12.93166847433114697 1.00000000000000000 0.00000000000000000 -0.00000000000000000 1.00000000000000000 2.25000000000000000
1 0.00000000000000000 -2.00000000000000000 1.00000000000000000 0.00000000000000000 
2 0.00000000000000000 12.93166847433114697 1.00000000000000000 0.00000000000000000 -0.00000000000000000 1.00000000000000000 2.25000000000000000
1 0.00000000000000000 0.00000000000000000 0.00000000000000000 -1.00000000000000000 
1 6.28318530717958623 0.00000000000000000 0.00000000000000000 -1.00000000000000000 
1 0.00000000000000000 0.00000000000000000 1.00000000000000000 0.00000000000000000 
2 -131.50000000000000000 -78.50000000000000000 1.00000000000000000 0.00000000000000000 -0.00000000000000000 1.00000000000000000 2.25000000000000000
1 0.00000000000000000 -2.00000000000000000 1.00000000000000000 0.00000000000000000 
2 -131.50000000000000000 -78.50000000000000000 1.00000000000000000 0.00000000000000000 -0.00000000000000000 1.00000000000000000 2.25000000000000000
1 0.00000000000000000 0.00000000000000000 0.00000000000000000 -1.00000000000000000 
1 6.28318530717958623 0.00000000000000000 0.00000000000000000 -1.00000000000000000 
1 0.00000000000000000 0.00000000000000000 1.00000000000000000 0.00000000000000000 
2 -40.50000000000000000 -78.50000000000000000 1.00000000000000000 0.00000000000000000 -0.00000000000000000 1.00000000000000000 2.25000000000000000
1 0.00000000000000000 -2.00000000000000000 1.00000000000000000 0.00000000000000000 
2 -40.50000000000000000 -78.50000000000000000 1.00000000000000000 0.00000000000000000 -0.00000000000000000 1.00000000000000000 2.25000000000000000
1 0.00000000000000000 0.00000000000000000 0.00000000000000000 -1.00000000000000000 
1 6.28318530717958623 0.00000000000000000 0.00000000000000000 -1.00000000000000000 
1 0.00000000000000000 0.00000000000000000 1.00000000000000000 0.00000000000000000 
2 -131.50000000000000000 10.50000000000000000 1.00000000000000000 0.00000000000000000 -0.00000000000000000 1.00000000000000000 2.25000000000000000
1 0.00000000000000000 -2.00000000000000000 1.00000000000000000 0.00000000000000000 
2 -131.50000000000000000 10.50000000000000000 1.00000000000000000 0.00000000000000000 -0.00000000000000000 1.00000000000000000 2.25000000000000000
1 0.00000000000000000 0.00000000000000000 0.00000000000000000 -1.00000000000000000 
1 6.28318530717958623 0.00000000000000000 0.00000000000000000 -1.00000000000000000 
1 0.00000000000000000 0.00000000000000000 1.00000000000000000 0.00000000000000000 
2 128.50000000000000000 83.50000000000000000 1.00000000000000000 0.00000000000000000 -0.00000000000000000 1.00000000000000000 2.25000000000000000
1 0.00000000000000000 -2.00000000000000000 1.00000000000000000 0.00000000000000000 
2 128.50000000000000000 83.50000000000000000 1.00000000000000000 0.00000000000000000 -0.00000000000000000 1.00000000000000000 2.25000000000000000
1 0.00000000000000000 0.00000000000000000 0.00000000000000000 -1.00000000000000000 
1 6.28318530717958623 0.00000000000000000 0.00000000000000000 -1.00000000000000000 
1 0.00000000000000000 0.00000000000000000 1.00000000000000000 0.00000000000000000 
2 131.50000000000000000 -78.50000000000000000 1.00000000000000000 0.00000000000000000 -0.00000000000000000 1.00000000000000000 2.25000000000000000
1 0.00000000000000000 -2.00000000000000000 1.00000000000000000 0.00000000000000000 
2 131.50000000000000000 -78.50000000000000000 1.00000000000000000 0.00000000000000000 -0.00000000000000000 1.00000000000000000 2.25000000000000000
1 0.00000000000000000 0.00000000000000000 0.00000000000000000 -1.00000000000000000 
1 6.28318530717958623 0.00000000000000000 0.00000000000000000 -1.00000000000000000 
1 0.00000000000000000 0.00000000000000000 1.00000000000000000 0.00000000000000000 
2 131.50000000000000000 10.50000000000000000 1.00000000000000000 0.00000000000000000 -0.00000000000000000 1.00000000000000000 2.25000000000000000
1 0.00000000000000000 -2.00000000000000000 1.00000000000000000 0.00000000000000000 
2 131.50000000000000000 10.50000000000000000 1.00000000000000000 0.00000000000000000 -0.00000000000000000 1.00000000000000000 2.25000000000000000
Curves 39
1 0.00000000000000000 0.00000000000000000 0.00000000000000000 0.00000000000000000 0.00000000000000000 1.00000000000000000 
1 290.00000000000000000 0.00000000000000000 0.00000000000000000 0.00000000000000000 0.00000000000000000 1.00000000000000000 
1 0.00000000000000000 0.00000000000000000 0.00000000000000000 1.00000000000000000 0.00000000000000000 0.00000000000000000 
1 0.00000000000000000 0.00000000000000000 0.00000000000000000 1.00000000000000000 0.00000000000000000 0.00000000000000000 
1 290.00000000000000000 183.00000000000000000 0.00000000000000000 0.00000000000000000 0.00000000000000000 1.00000000000000000 
1 290.00000000000000000 0.00000000000000000 0.00000000000000000 0.00000000000000000 1.00000000000000000 0.00000000000000000 
1 290.00000000000000000 0.00000000000000000 0.00000000000000000 0.00000000000000000 1.00000000000000000 0.00000000000000000 
1 0.00000000000000000 183.00000000000000000 0.00000000000000000 0.00000000000000000 0.00000000000000000 1.00000000000000000 
1 290.00000000000000000 183.00000000000000000 0.00000000000000000 -1.00000000000000000 0.00000000000000000 0.00000000000000000 
1 290.00000000000000000 183.00000000000000000 0.00000000000000000 -1.00000000000000000 0.00000000000000000 0.00000000000000000 
1 0.00000000000000000 183.00000000000000000 0.00000000000000000 0.00000000000000000 -1.00000000000000000 0.00000000000000000 
1 0.00000000000000000 183.00000000000000000 0.00000000000000000 0.00000000000000000 -1.00000000000000000 0.00000000000000000 
1 187.75000000000000000 13.00000000000000000 0.00000000000000000 0.00000000000000000 0.00000000000000000 1.00000000000000000 
2 185.50000000000000000 13.00000000000000000 0.00000000000000000 0.00000000000000000 0.00000000000000000 1.00000000000000000 1.00000000000000000 0.00000000000000000 -0.00000000000000000 -0.00000000000000000 1.00000000000000000 0.00000000000000000 2.25000000000000000
2 185.50000000000000000 13.00000000000000000 0.00000000000000000 0.00000000000000000 0.00000000000000000 1.00000000000000000 1.00000000000000000 0.00000000000000000 -0.00000000000000000 -0.00000000000000000 1.00000000000000000 0.00000000000000000 2.25000000000000000
1 18.75000000000000000 175.00000000000000000 0.00000000000000000 0.00000000000000000 0.00000000000000000 1.00000000000000000 
2 16.50000000000000000 175.00000000000000000 0.00000000000000000 0.00000000000000000 0.00000000000000000 1.00000000000000000 1.00000000000000000 0.00000000000000000 -0.00000000000000000 -0.00000000000000000 1.00000000000000000 0.00000000000000000 2.25000000000000000
2 16.50000000000000000 175.00000000000000000 0.00000000000000000 0.00000000000000000 0.00000000000000000 1.00000000000000000 1.00000000000000000 0.00000000000000000 -0.00000000000000000 -0.00000000000000000 1.00000000000000000 0.00000000000000000 2.25000000000000000
1 147.25000000000000000 104.43166847433114697 0.00000000000000000 0.00000000000000000 0.00000000000000000 1.00000000000000000 
2 145.00000000000000000 104.43166847433114697 0.00000000000000000 0.00000000000000000 0.00000000000000000 1.00000000000000000 1.00000000000000000 0.00000000000000000 -0.00000000000000000 -0.00000000000000000 1.00000000000000000 0.00000000000000000 2.25000000000000000
2 145.00000000000000000 104.43166847433114697 0.00000000000000000 0.00000000000000000 0.00000000000000000 1.00000000000000000 1.00000000000000000 0.00000000000000000 -0.00000000000000000 -0.00000000000000000 1.00000000000000000 0.00000000000000000 2.25000000000000000
1 15.75000000000000000 13.00000000000000000 0.00000000000000000 0.00000000000000000 0.00000000000000000 1.00000000000000000 
2 13.50000000000000000 13.00000000000000000 0.00000000000000000 0.00000000000000000 0.00000000000000000 1.00000000000000000 1.00000000000000000 0.00000000000000000 -0.00000000000000000 -0.00000000000000000 1.00000000000000000 0.00000000000000000 2.25000000000000000
2 13.50000000000000000 13.00000000000000000 0.00000000000000000 0.00000000000000000 0.00000000000000000 1.00000000000000000 1.00000000000000000 0.00000000000000000 -0.00000000000000000 -0.00000000000000000 1.00000000000000000 0.00000000000000000 2.25000000000000000
1 106.75000000000000000 13.00000000000000000 0.00000000000000000 0.00000000000000000 0.00000000000000000 1.00000000000000000 
2 104.50000000000000000 13.00000000000000000 0.00000000000000000 0.00000000000000000 0.00000000000000000 1.00000000000000000 1.00000000000000000 0.00000000000000000 -0.00000000000000000 -0.00000000000000000 1.00000000000000000 0.00000000000000000 2.25000000000000000
2 104.50000000000000000 13.00000000000000000 0.00000000000000000 0.00000000000000000 0.00000000000000000 1.00000000000000000 1.00000000000000000 0.00000000000000000 -0.00000000000000000 -0.00000000000000000 1.00000000000000000 0.00000000000000000 2.25000000000000000
1 15.75000000000000000 102.00000000000000000 0.00000000000000000 0.00000000000000000 0.00000000000000000 1.00000000000000000 
2 13.50000000000000000 102.00000000000000000 0.00000000000000000 0.00000000000000000 0.00000000000000000 1.00000000000000000 1.00000000000000000 0.00000000000000000 -0.00000000000000000 -0.00000000000000000 1.00000000000000000 0.00000000000000000 2.25000000000000000
2 13.50000000000000000 102.00000000000000000 0.00000000000000000 0.00000000000000000 0.00000000000000000 1.00000000000000000 1.00000000000000000 0.00000000000000000 -0.00000000000000000 -0.00000000000000000 1.00000000000000000 0.00000000000000000 2.25000000000000000
1 275.75000000000000000 175.00000000000000000 0.00000000000000000 0.00000000000000000 0.00000000000000000 1.00000000000000000 
2 273.50000000000000000 175.00000000000000000 0.00000000000000000 0.00000000000000000 0.00000000000000000 1.00000000000000000 1.00000000000000000 0.00000000000000000 -0.00000000000000000 -0.00000000000000000 1.00000000000000000 0.00000000000000000 2.25000000000000000
2 273.50000000000000000 175.00000000000000000 0.00000000000000000 0.00000000000000000 0.00000000000000000 1.00000000000000000 1.00000000000000000 0.00000000000000000 -0.00000000000000000 -0.00000000000000000 1.00000000000000000 0.00000000000000000 2.25000000000000000
1 278.75000000000000000 13.00000000000000000 0.00000000000000000 0.00000000000000000 0.00000000000000000 1.00000000000000000 
2 276.50000000000000000 13.00000000000000000 0.00000000000000000 0.00000000000000000 0.00000000000000000 1.00000000000000000 1.00000000000000000 0.00000000000000000 -0.00000000000000000 -0.00000000000000000 1.00000000000000000 0.00000000000000000 2.25000000000000000
2 276.50000000000000000 13.00000000000000000 0.00000000000000000 0.00000000000000000 0.00000000000000000 1.00000000000000000 1.00000000000000000 0.00000000000000000 -0.00000000000000000 -0.00000000000000000 1.00000000000000000 0.00000000000000000 2.25000000000000000
1 278.75000000000000000 102.00000000000000000 0.00000000000000000 0.00000000000000000 0.00000000000000000 1.00000000000000000 
2 276.50000000000000000 102.00000000000000000 0.00000000000000000 0.00000000000000000 0.00000000000000000 1.00000000000000000 1.00000000000000000 0.00000000000000000 -0.00000000000000000 -0.00000000000000000 1.00000000000000000 0.00000000000000000 2.25000000000000000
2 276.50000000000000000 102.00000000000000000 0.00000000000000000 0.00000000000000000 0.00000000000000000 1.00000000000000000 1.00000000000000000 0.00000000000000000 -0.00000000000000000 -0.00000000000000000 1.00000000000000000 0.00000000000000000 2.25000000000000000
Polygon3D 0
PolygonOnTriangulations 0
Surfaces 15
1 0.00000000000000000 0.00000000000000000 0.00000000000000000 0.00000000000000000 1.00000000000000000 0.00000000000000000 1.00000000000000000 0.00000000000000000 0.00000000000000000 0.00000000000000000 0.00000000000000000 -1.00000000000000000 
1 0.00000000000000000 183.00000000000000000 0.00000000000000000 1.00000000000000000 0.00000000000000000 -0.00000000000000000 0.00000000000000000 -1.00000000000000000 0.00000000000000000 0.00000000000000000 -0.00000000000000000 -1.00000000000000000 
1 290.00000000000000000 0.00000000000000000 0.00000000000000000 -1.00000000000000000 0.00000000000000000 0.00000000000000000 0.00000000000000000 1.00000000000000000 0.00000000000000000 0.00000000000000000 0.00000000000000000 -1.00000000000000000 
1 145.00000000000000000 91.50000000000000000 0.00000000000000000 0.00000000000000000 0.00000000000000000 1.00000000000000000 1.00000000000000000 0.00000000000000000 -0.00000000000000000 -0.00000000000000000 1.00000000000000000 0.00000000000000000 
1 145.00000000000000000 91.50000000000000000 0.00000000000000000 0.00000000000000000 0.00000000000000000 1.00000000000000000 1.00000000000000000 0.00000000000000000 -0.00000000000000000 -0.00000000000000000 1.00000000000000000 0.00000000000000000 
1 290.00000000000000000 183.00000000000000000 0.00000000000000000 0.00000000000000000 -1.00000000000000000 0.00000000000000000 -1.00000000000000000 0.00000000000000000 0.00000000000000000 -0.00000000000000000 -0.00000000000000000 -1.00000000000000000 
2 185.50000000000000000 13.00000000000000000 0.00000000000000000 -0.00000000000000000 -0.00000000000000000 -1.00000000000000000 1.00000000000000000 0.00000000000000000 0.00000000000000000 -0.00000000000000000 1.00000000000000000 -0.00000000000000000 2.25000000000000000
2 16.50000000000000000 175.00000000000000000 0.00000000000000000 -0.00000000000000000 -0.00000000000000000 -1.00000000000000000 1.00000000000000000 0.00000000000000000 0.00000000000000000 -0.00000000000000000 1.00000000000000000 -0.00000000000000000 2.25000000000000000
2 145.00000000000000000 104.43166847433114697 0.00000000000000000 -0.00000000000000000 -0.00000000000000000 -1.00000000000000000 1.00000000000000000 0.00000000000000000 0.00000000000000000 -0.00000000000000000 1.00000000000000000 -0.00000000000000000 2.25000000000000000
2 13.50000000000000000 13.00000000000000000 0.00000000000000000 -0.00000000000000000 -0.00000000000000000 -1.00000000000000000 1.00000000000000000 0.00000000000000000 0.00000000000000000 -0.00000000000000000 1.00000000000000000 -0.00000000000000000 2.25000000000000000
2 104.50000000000000000 13.00000000000000000 0.00000000000000000 -0.00000000000000000 -0.00000000000000000 -1.00000000000000000 1.00000000000000000 0.00000000000000000 0.00000000000000000 -0.00000000000000000 1.00000000000000000 -0.00000000000000000 2.25000000000000000
2 13.50000000000000000 102.00000000000000000 0.00000000000000000 -0.00000000000000000 -0.00000000000000000 -1.00000000000000000 1.00000000000000000 0.00000000000000000 0.00000000000000000 -0.00000000000000000 1.00000000000000000 -0.00000000000000000 2.25000000000000000
2 273.50000000000000000 175.00000000000000000 0.00000000000000000 -0.00000000000000000 -0.00000000000000000 -1.00000000000000000 1.00000000000000000 0.00000000000000000 0.00000000000000000 -0.00000000000000000 1.00000000000000000 -0.00000000000000000 2.25000000000000000
2 276.50000000000000000 13.00000000000000000 0.00000000000000000 -0.00000000000000000 -0.00000000000000000 -1.00000000000000000 1.00000000000000000 0.00000000000000000 0.00000000000000000 -0.00000000000000000 1.00000000000000000 -0.00000000000000000 2.25000000000000000
2 276.50000000000000000 102.00000000000000000 0.00000000000000000 -0.00000000000000000 -0.00000000000000000 -1.00000000000000000 1.00000000000000000 0.00000000000000000 0.00000000000000000 -0.00000000000000000 1.00000000000000000 -0.00000000000000000 2.25000000000000000
Triangulations 0

TShapes 115
Ve
0.000000100005000
0.000000000000000 0.000000000000000 0.000000000000000
0 0

0101101
*
Ve
0.000000100005000
0.000000000000000 0.000000000000000 2.000000000000000
0 0

0101101
*
Ed
 0.000000100005000 1 1 0
1  1 0 0.000000000000000 2.000000000000000
2  1 1 0 0.000000000000000 2.000000000000000
2  2 2 0 0.000000000000000 2.000000000000000
0

0101000
+115 2 -114 2 *
Ve
0.000000100005000
290.000000000000000 0.000000000000000 0.000000000000000
0 0

0101101
*
Ve
0.000000100005000
290.000000000000000 0.000000000000000 2.000000000000000
0 0

0101101
*
Ed
 0.000000100005000 1 1 0
1  2 0 0.000000000000000 2.000000000000000
2  3 1 0 0.000000000000000 2.000000000000000
2  4 3 0 0.000000000000000 2.000000000000000
0

0101000
+112 2 -111 2 *
Ed
 0.000000100005000 1 1 0
1  3 0 0.000000000000000 290.000000000000000
2  5 1 6 0.000000000000000 290.000000000000000
2  6 4 7 0.000000000000000 290.000000000000000
0

0101000
+115 8 -112 8 *
Ed
 0.000000100005000 1 1 0
1  4 0 0.000000000000000 290.000000000000000
2  7 1 11 0.000000000000000 290.000000000000000
2  8 5 7 0.000000000000000 290.000000000000000
0

0101000
+114 12 -111 12 *
Wi

0101100
+113 0 -110 0 -109 5 +108 10 *
Fa
0  0.000000100005000 1 0

0111000
+107 0 *
Ve
0.000000100005000
290.000000000000000 183.000000000000000 0.000000000000000
0 0

0101101
*
Ve
0.000000100005000
290.000000000000000 183.000000000000000 2.000000000000000
0 0

0101101
*
Ed
 0.000000100005000 1 1 0
1  5 0 0.000000000000000 2.000000000000000
2  9 3 0 0.000000000000000 2.000000000000000
2  10 6 0 0.000000000000000 2.000000000000000
0

0101000
+105 2 -104 2 *
Ed
 0.000000100005000 1 1 0
1  6 0 0.000000000000000 183.000000000000000
2  11 3 6 0.000000000000000 183.000000000000000
2  12 4 7 0.000000000000000 183.000000000000000
0

0101000
+112 8 -105 8 *
Ed
 0.000000100005000 1 1 0
1  7 0 0.000000000000000 183.000000000000000
2  13 3 11 0.000000000000000 183.000000000000000
2  14 5 7 0.000000000000000 183.000000000000000
0

0101000
+111 12 -104 12 *
Wi

0101100
+110 0 -103 0 -102 5 +101 10 *
Fa
0  0.000000100005000 3 0

0111000
+100 0 *
Ve
0.000000100005000
0.000000000000000 183.000000000000000 0.000000000000000
0 0

0101101
*
Ve
0.000000100005000
0.000000000000000 183.000000000000000 2.000000000000000
0 0

0101101
*
Ed
 0.000000100005000 1 1 0
1  8 0 0.000000000000000 2.000000000000000
2  15 6 0 0.000000000000000 2.000000000000000
2  16 2 0 0.000000000000000 2.000000000000000
0

0101000
+98 2 -97 2 *
Ed
 0.000000100005000 1 1 0
1  9 0 0.000000000000000 290.000000000000000
2  17 6 6 0.000000000000000 290.000000000000000
2  18 4 7 0.000000000000000 290.000000000000000
0

0101000
+105 8 -98 8 *
Ed
 0.000000100005000 1 1 0
1  10 0 0.000000000000000 290.000000000000000
2  19 6 11 0.000000000000000 290.000000000000000
2  20 5 7 0.000000000000000 290.000000000000000
0

0101000
+104 12 -97 12 *
Wi

0101100
+103 0 -96 0 -95 5 +94 10 *
Fa
0  0.000000100005000 6 0

0111000
+93 0 *
Ed
 0.000000100005000 1 1 0
1  11 0 0.000000000000000 183.000000000000000
2  21 2 6 0.000000000000000 183.000000000000000
2  22 4 7 0.000000000000000 183.000000000000000
0

0101000
+98 8 -115 8 *
Ed
 0.000000100005000 1 1 0
1  12 0 0.000000000000000 183.000000000000000
2  23 2 11 0.000000000000000 183.000000000000000
2  24 5 7 0.000000000000000 183.000000000000000
0

0101000
+97 12 -114 12 *
Wi

0101100
+96 0 -113 0 -91 5 +90 10 *
Fa
0  0.000000100005000 2 0

0111000
+89 0 *
Ve
0.000000100005000
187.750000000000000 13.000000000000000 0.000000000000000
0 0

0101101
*
Ve
0.000000100005000
187.750000000000000 13.000000000000000 2.000000000000000
0 0

0101101
*
Ed
 0.000000100005000 1 1 0
1  13 0 0.000000000000000 2.000000000000000
3  25 26CN 7 0 0.000000000000000 2.000000000000000
0

0101000
+87 2 -86 2 *
Ed
 0.000000100005000 1 1 0
1  14 0 0.000000000000000 6.283185307179586
2  27 7 6 0.000000000000000 6.283185307179586
2  28 4 7 0.000000000000000 6.283185307179586
0

0101000
+87 8 -87 8 *
Ed
 0.000000100005000 1 1 0
1  15 0 0.000000000000000 6.283185307179586
2  29 7 11 0.000000000000000 6.283185307179586
2  30 5 7 0.000000000000000 6.283185307179586
0

0101000
+86 12 -86 12 *
Wi

0101100
+85 0 -85 0 -84 5 +83 10 *
Fa
0  0.000000100005000 7 0

0111000
+82 0 *
Ve
0.000000100005000
18.750000000000000 175.000000000000000 0.000000000000000
0 0

0101101
*
Ve
0.000000100005000
18.750000000000000 175.000000000000000 2.000000000000000
0 0

0101101
*
Ed
 0.000000100005000 1 1 0
1  16 0 0.000000000000000 2.000000000000000
3  31 32CN 8 0 0.000000000000000 2.000000000000000
0

0101000
+80 2 -79 2 *
Ed
 0.000000100005000 1 1 0
1  17 0 0.000000000000000 6.283185307179586
2  33 8 6 0.000000000000000 6.283185307179586
2  34 4 7 0.000000000000000 6.283185307179586
0

0101000
+80 8 -80 8 *
Ed
 0.000000100005000 1 1 0
1  18 0 0.000000000000000 6.283185307179586
2  35 8 11 0.000000000000000 6.283185307179586
2  36 5 7 0.000000000000000 6.283185307179586
0

0101000
+79 12 -79 12 *
Wi

0101100
+78 0 -78 0 -77 5 +76 10 *
Fa
0  0.000000100005000 8 0

0111000
+75 0 *
Ve
0.000000100005000
147.250000000000000 104.431668474331147 0.000000000000000
0 0

0101101
*
Ve
0.000000100005000
147.250000000000000 104.431668474331147 2.000000000000000
0 0

0101101
*
Ed
 0.000000100005000 1 1 0
1  19 0 0.000000000000000 2.000000000000000
3  37 38CN 9 0 0.000000000000000 2.000000000000000
0

0101000
+73 2 -72 2 *
Ed
 0.000000100005000 1 1 0
1  20 0 0.000000000000000 6.283185307179586
2  39 9 6 0.000000000000000 6.283185307179586
2  40 4 7 0.000000000000000 6.283185307179586
0

0101000
+73 8 -73 8 *
Ed
 0.000000100005000 1 1 0
1  21 0 0.000000000000000 6.283185307179586
2  41 9 11 0.000000000000000 6.283185307179586
2  42 5 7 0.000000000000000 6.283185307179586
0

0101000
+72 12 -72 12 *
Wi

0101100
+71 0 -71 0 -70 5 +69 10 *
Fa
0  0.000000100005000 9 0

0111000
+68 0 *
Ve
0.000000100005000
15.750000000000000 13.000000000000000 0.000000000000000
0 0

0101101
*
Ve
0.000000100005000
15.750000000000000 13.000000000000000 2.000000000000000
0 0

0101101
*
Ed
 0.000000100005000 1 1 0
1  22 0 0.000000000000000 2.000000000000000
3  43 44CN 10 0 0.000000000000000 2.000000000000000
0

0101000
+66 2 -65 2 *
Ed
 0.000000100005000 1 1 0
1  23 0 0.000000000000000 6.283185307179586
2  45 10 6 0.000000000000000 6.283185307179586
2  46 4 7 0.000000000000000 6.283185307179586
0

0101000
+66 8 -66 8 *
Ed
 0.000000100005000 1 1 0
1  24 0 0.000000000000000 6.283185307179586
2  47 10 11 0.000000000000000 6.283185307179586
2  48 5 7 0.000000000000000 6.283185307179586
0

0101000
+65 12 -65 12 *
Wi

0101100
+64 0 -64 0 -63 5 +62 10 *
Fa
0  0.000000100005000 10 0

0111000
+61 0 *
Ve
0.000000100005000
106.750000000000000 13.000000000000000 0.000000000000000
0 0

0101101
*
Ve
0.000000100005000
106.750000000000000 13.000000000000000 2.000000000000000
0 0

0101101
*
Ed
 0.000000100005000 1 1 0
1  25 0 0.000000000000000 2.000000000000000
3  49 50CN 11 0 0.000000000000000 2.000000000000000
0

0101000
+59 2 -58 2 *
Ed
 0.000000100005000 1 1 0
1  26 0 0.000000000000000 6.283185307179586
2  51 11 6 0.000000000000000 6.283185307179586
2  52 4 7 0.000000000000000 6.283185307179586
0

0101000
+59 8 -59 8 *
Ed
 0.000000100005000 1 1 0
1  27 0 0.000000000000000 6.283185307179586
2  53 11 11 0.000000000000000 6.283185307179586
2  54 5 7 0.000000000000000 6.283185307179586
0

0101000
+58 12 -58 12 *
Wi

0101100
+57 0 -57 0 -56 5 +55 10 *
Fa
0  0.000000100005000 11 0

0111000
+54 0 *
Ve
0.000000100005000
15.750000000000000 102.000000000000000 0.000000000000000
0 0

0101101
*
Ve
0.000000100005000
15.750000000000000 102.000000000000000 2.000000000000000
0 0

0101101
*
Ed
 0.000000100005000 1 1 0
1  28 0 0.000000000000000 2.000000000000000
3  55 56CN 12 0 0.000000000000000 2.000000000000000
0

0101000
+52 2 -51 2 *
Ed
 0.000000100005000 1 1 0
1  29 0 0.000000000000000 6.283185307179586
2  57 12 6 0.000000000000000 6.283185307179586
2  58 4 7 0.000000000000000 6.283185307179586
0

0101000
+52 8 -52 8 *
Ed
 0.000000100005000 1 1 0
1  30 0 0.000000000000000 6.283185307179586
2  59 12 11 0.000000000000000 6.283185307179586
2  60 5 7 0.000000000000000 6.283185307179586
0

0101000
+51 12 -51 12 *
Wi

0101100
+50 0 -50 0 -49 5 +48 10 *
Fa
0  0.000000100005000 12 0

0111000
+47 0 *
Ve
0.000000100005000
275.750000000000000 175.000000000000000 0.000000000000000
0 0

0101101
*
Ve
0.000000100005000
275.750000000000000 175.000000000000000 2.000000000000000
0 0

0101101
*
Ed
 0.000000100005000 1 1 0
1  31 0 0.000000000000000 2.000000000000000
3  61 62CN 13 0 0.000000000000000 2.000000000000000
0

0101000
+45 2 -44 2 *
Ed
 0.000000100005000 1 1 0
1  32 0 0.000000000000000 6.283185307179586
2  63 13 6 0.000000000000000 6.283185307179586
2  64 4 7 0.000000000000000 6.283185307179586
0

0101000
+45 8 -45 8 *
Ed
 0.000000100005000 1 1 0
1  33 0 0.000000000000000 6.283185307179586
2  65 13 11 0.000000000000000 6.283185307179586
2  66 5 7 0.000000000000000 6.283185307179586
0

0101000
+44 12 -44 12 *
Wi

0101100
+43 0 -43 0 -42 5 +41 10 *
Fa
0  0.000000100005000 13 0

0111000
+40 0 *
Ve
0.000000100005000
278.750000000000000 13.000000000000000 0.000000000000000
0 0

0101101
*
Ve
0.000000100005000
278.750000000000000 13.000000000000000 2.000000000000000
0 0

0101101
*
Ed
 0.000000100005000 1 1 0
1  34 0 0.000000000000000 2.000000000000000
3  67 68CN 14 0 0.000000000000000 2.000000000000000
0

0101000
+38 2 -37 2 *
Ed
 0.000000100005000 1 1 0
1  35 0 0.000000000000000 6.283185307179586
2  69 14 6 0.000000000000000 6.283185307179586
2  70 4 7 0.000000000000000 6.283185307179586
0

0101000
+38 8 -38 8 *
Ed
 0.000000100005000 1 1 0
1  36 0 0.000000000000000 6.283185307179586
2  71 14 11 0.000000000000000 6.283185307179586
2  72 5 7 0.000000000000000 6.283185307179586
0

0101000
+37 12 -37 12 *
Wi

0101100
+36 0 -36 0 -35 5 +34 10 *
Fa
0  0.000000100005000 14 0

0111000
+33 0 *
Ve
0.000000100005000
278.750000000000000 102.000000000000000 0.000000000000000
0 0

0101101
*
Ve
0.000000100005000
278.750000000000000 102.000000000000000 2.000000000000000
0 0

0101101
*
Ed
 0.000000100005000 1 1 0
1  37 0 0.000000000000000 2.000000000000000
3  73 74CN 15 0 0.000000000000000 2.000000000000000
0

0101000
+31 2 -30 2 *
Ed
 0.000000100005000 1 1 0
1  38 0 0.000000000000000 6.283185307179586
2  75 15 6 0.000000000000000 6.283185307179586
2  76 4 7 0.000000000000000 6.283185307179586
0

0101000
+31 8 -31 8 *
Ed
 0.000000100005000 1 1 0
1  39 0 0.000000000000000 6.283185307179586
2  77 15 11 0.000000000000000 6.283185307179586
2  78 5 7 0.000000000000000 6.283185307179586
0

0101000
+30 12 -30 12 *
Wi

0101100
+29 0 -29 0 -28 5 +27 10 *
Fa
0  0.000000100005000 15 0

0111000
+26 0 *
Wi

0101100
+109 3 +102 3 +95 3 +91 3 *
Wi

0101100
-84 3 *
Wi

0101100
-77 3 *
Wi

0101100
-70 3 *
Wi

0101100
-63 3 *
Wi

0101100
-56 3 *
Wi

0101100
-49 3 *
Wi

0101100
-42 3 *
Wi

0101100
-35 3 *
Wi

0101100
-28 3 *
Fa
0  0.000000100000000 4 0

0111000
+24 0 +23 0 +22 0 +21 0 +20 0 +19 0 +18 0 +17 0 +16 0 +15 0 
*
Wi

0101100
+108 3 +101 3 +94 3 +90 3 *
Wi

0101100
-83 3 *
Wi

0101100
-76 3 *
Wi

0101100
-69 3 *
Wi

0101100
-62 3 *
Wi

0101100
-55 3 *
Wi

0101100
-48 3 *
Wi

0101100
-41 3 *
Wi

0101100
-34 3 *
Wi

0101100
-27 3 *
Fa
0  0.000000100000000 5 0

0111000
+13 0 +12 0 +11 0 +10 0 +9 0 +8 0 +7 0 +6 0 +5 0 +4 0 
*
Sh

0101100
+106 0 +99 0 +92 0 +88 0 -81 0 -74 0 -67 0 -60 0 -53 0 -46 0 
-39 0 -32 0 -25 0 +14 13 -3 14 *
So

1100000
-2 0 *

+1 1 